<?xml version="1.0" standalone="no"?>
<!DOCTYPE svg PUBLIC "-//W3C//DTD SVG 1.1//EN" "http://www.w3.org/Graphics/SVG/1.1/DTD/svg11.dtd" >
<svg>
<metadata>
Created by FontForge 20090914 at Fri Feb 24 11:41:56 2012
 By root
&#194;&#169; 2010
</metadata>
<defs>
<font id="mittleschriftcaps" horiz-adv-x="480" >
  <font-face 
    font-family="Mittleschrift Caps"
    font-weight="400"
    font-variant="small-caps"
    font-stretch="normal"
    units-per-em="1000"
    panose-1="0 0 4 0 0 0 0 0 0 0"
    ascent="800"
    descent="-200"
    x-height="700"
    cap-height="700"
    bbox="-30 -250 962 938"
    underline-thickness="50"
    underline-position="-125"
    unicode-range="U+0020-U+2122"
  />
<missing-glyph horiz-adv-x="500" 
d="M63 0v895h375v-895h-375zM125 63h250v770h-250v-770z" />
    <glyph glyph-name=".notdef" horiz-adv-x="500" 
d="M63 0v895h375v-895h-375zM125 63h250v770h-250v-770z" />
    <glyph glyph-name=".null" horiz-adv-x="0" 
 />
    <glyph glyph-name="nonmarkingreturn" horiz-adv-x="233" 
 />
    <glyph glyph-name="space" unicode=" " horiz-adv-x="233" 
 />
    <glyph glyph-name="exclam" unicode="!" horiz-adv-x="270" 
d="M195 700l-34 -530h-52l-34 530h120zM183 0h-96v96h96v-96z" />
    <glyph glyph-name="numbersign" unicode="#" 
d="M271 218h-98l-31 -218h-78l31 218h-92v66h99l22 144h-92v66h99l31 218h78l-31 -218h98l31 218h78l-31 -218h92v-66h-99l-22 -144h92v-66h-99l-31 -218h-78zM300 428h-98l-22 -144h98z" />
    <glyph glyph-name="percent" unicode="%" horiz-adv-x="519" 
d="M395 712h66l-337 -712h-66zM108 558q0 -49 37 -49t37 49v54q0 49 -37 49t-37 -49v-54zM51 619q0 26 8 45t21 31t30 17.5t35 5.5t35 -5.5t30 -17.5t21 -31t8 -45v-68q0 -26 -8 -45t-21 -31t-30 -17.5t-35 -5.5t-35 5.5t-30 17.5t-21 31t-8 45v68zM280 161q0 26 8 45t21 31
t30 17.5t35 5.5t35 -5.5t30 -17.5t21 -31t8 -45v-68q0 -26 -8 -45t-21 -31t-30 -17.5t-35 -5.5t-35 5.5t-30 17.5t-21 31t-8 45v68zM337 100q0 -49 37 -49t37 49v54q0 49 -37 49t-37 -49v-54z" />
    <glyph glyph-name="ampersand" unicode="&#x26;" horiz-adv-x="648" 
d="M232 353q-54 -29 -78.5 -65t-24.5 -74q0 -28 10.5 -52t28.5 -41t42 -27t51 -10q33 0 70.5 14.5t72.5 48.5zM463 72q-45 -33 -93.5 -55.5t-105.5 -22.5q-50 0 -91.5 18t-71 48t-46 69.5t-16.5 83.5q0 63 35 118.5t101 89.5q-26 29 -42.5 64t-16.5 71q0 32 11.5 61.5
t32.5 52t50.5 35.5t65.5 13t65.5 -13t50.5 -35.5t32.5 -52t11.5 -61.5q0 -50 -27.5 -89.5t-91.5 -69.5l152 -183q22 28 36.5 57.5t25.5 61.5l91 -36q-16 -39 -39.5 -80.5t-53.5 -73.5l120 -143h-120zM206 560q0 -22 15 -46t38 -45q50 19 68.5 41.5t18.5 49.5q0 28 -20 48
t-50 20t-50 -20t-20 -48z" />
    <glyph glyph-name="parenleft" unicode="(" horiz-adv-x="295" 
d="M265 -100h-38q-162 174 -162 400t162 400h38q-51 -107 -73 -194q-24 -95 -24 -206t24 -206q22 -87 73 -194z" />
    <glyph glyph-name="parenright" unicode=")" horiz-adv-x="295" 
d="M230 300q0 -226 -162 -400h-38q51 107 73 194q24 95 24 206t-24 206q-22 87 -73 194h38q162 -174 162 -400z" />
    <glyph glyph-name="asterisk" unicode="*" horiz-adv-x="352" 
d="M146 513l-80 -46l-30 46l83 51l-83 51l30 46l80 -46v97h60v-97l80 46l30 -46l-83 -51l83 -51l-30 -46l-80 46v-97h-60v97z" />
    <glyph glyph-name="plus" unicode="+" horiz-adv-x="600" 
d="M261 506h78v-214h214v-78h-214v-214h-78v214h-214v78h214v214z" />
    <glyph glyph-name="comma" unicode="," horiz-adv-x="226" 
d="M161 0l-96 -72v172h96v-100z" />
    <glyph glyph-name="hyphen" unicode="-" horiz-adv-x="353" 
d="M321 225h-290v100h290v-100z" />
    <glyph glyph-name="hyphen" unicode="&#x2010;" horiz-adv-x="353" 
d="M321 225h-290v100h290v-100z" />
    <glyph glyph-name="hyphen" unicode="&#xad;" horiz-adv-x="353" 
d="M321 225h-290v100h290v-100z" />
    <glyph glyph-name="period" unicode="." horiz-adv-x="230" 
d="M165 0h-100v106h100v-106z" />
    <glyph glyph-name="slash" unicode="/" horiz-adv-x="338" 
d="M353 700l-288 -700h-80l288 700h80z" />
    <glyph glyph-name="zero" unicode="0" horiz-adv-x="550" 
d="M479 194q0 -87 -58.5 -145.5t-145.5 -58.5t-145.5 58.5t-58.5 145.5v302q0 91 57 152.5t147 61.5q91 0 147.5 -61t56.5 -153v-302zM379 208v284q0 53 -25 86q-28 36 -79 36q-50 0 -77 -35.5t-27 -86.5v-284q0 -52 25 -85q28 -37 79 -37q52 0 80 36q24 32 24 86z" />
    <glyph glyph-name="one" unicode="1" horiz-adv-x="550" 
d="M354 0h-106v591l-98 -74v109l98 74h106v-700z" />
    <glyph glyph-name="two" unicode="2" horiz-adv-x="550" 
d="M473 511q0 -76 -69 -162l-203 -254h266v-95h-390v87l237 305q59 76 59 123q0 44 -25.5 71.5t-68.5 27.5q-44 0 -69.5 -29.5t-29.5 -75.5h-100q1 94 67 153q53 48 129 48q89 0 143 -54.5t54 -144.5z" />
    <glyph glyph-name="three" unicode="3" horiz-adv-x="550" 
d="M472 205q0 -112 -83 -174q-55 -41 -131 -41q-77 0 -131 49t-62 126h100q4 -36 30.5 -57.5t62.5 -21.5q49 0 81.5 31.5t32.5 80.5q0 116 -113 116h-35v90h44q41 0 69.5 29t28.5 70q0 46 -24 77q-27 34 -71 34q-42 0 -69 -24.5t-31 -66.5h-100q4 82 57.5 134.5t135.5 52.5
q88 0 145 -57.5t57 -146.5q0 -96 -80 -143v-3q86 -44 86 -155z" />
    <glyph glyph-name="four" unicode="4" horiz-adv-x="550" 
d="M47 202l238 510h114l-241 -510h186v205h102v-205h57v-96h-57v-106h-102v106h-297v96z" />
    <glyph glyph-name="five" unicode="5" horiz-adv-x="550" 
d="M470 194q0 -89 -50 -145q-53 -59 -140 -59q-85 0 -139 44.5t-60 128.5h100q13 -77 93 -77q47 0 73 33q23 29 23 77v76q0 46 -23.5 76t-68.5 30q-66 0 -94 -57h-86v379h355v-96h-255v-161q44 31 97 31q83 0 131 -56q44 -53 44 -137v-87z" />
    <glyph glyph-name="six" unicode="6" horiz-adv-x="550" 
d="M479 201q0 -91 -56.5 -151t-147.5 -60q-89 0 -146.5 57t-57.5 146q0 73 34 138l192 369h107l-158 -308q27 11 60 11q89 0 139 -74q34 -50 34 -128zM379 201q0 49 -27.5 82t-76.5 33t-76.5 -33t-27.5 -82t27.5 -82t76.5 -33t76.5 33t27.5 82z" />
    <glyph glyph-name="seven" unicode="7" horiz-adv-x="550" 
d="M72 712h405v-102l-241 -610h-114l241 610h-189v-103h-102v205z" />
    <glyph glyph-name="eight" unicode="8" horiz-adv-x="550" 
d="M490 204q0 -92 -61.5 -153.5t-153.5 -61.5q-93 0 -154 61t-61 154q0 48 24 91.5t65 67.5q-74 51 -74 140q0 88 56 147.5t144 59.5q85 0 142.5 -57.5t57.5 -142.5q0 -94 -74 -147q89 -49 89 -159zM379 510q0 43 -30.5 73.5t-73.5 30.5t-73.5 -30.5t-30.5 -73.5
q0 -45 29.5 -74.5t74.5 -29.5t74.5 30t29.5 74zM390 204q0 48 -33.5 82t-81.5 34t-81.5 -34t-33.5 -82q0 -50 32.5 -84.5t82.5 -34.5q51 0 83 33.5t32 85.5z" />
    <glyph glyph-name="nine" unicode="9" horiz-adv-x="550" 
d="M479 507q0 -73 -34 -138l-192 -369h-107l158 308q-27 -11 -60 -11q-83 0 -130 62q-43 55 -43 140q0 91 56.5 151t147.5 60q89 0 146.5 -57t57.5 -146zM379 499q0 49 -27.5 82t-76.5 33t-76.5 -33t-27.5 -82t27.5 -82t76.5 -33t76.5 33t27.5 82z" />
    <glyph glyph-name="colon" unicode=":" horiz-adv-x="226" 
d="M161 225h-96v100h96v-100zM161 0h-96v100h96v-100z" />
    <glyph glyph-name="semicolon" unicode=";" horiz-adv-x="226" 
d="M161 225h-96v100h96v-100zM161 0l-96 -72v172h96v-100z" />
    <glyph glyph-name="less" unicode="&#x3c;" horiz-adv-x="600" 
d="M47 289l506 225v-84l-416 -177l416 -177v-84l-506 225v72z" />
    <glyph glyph-name="equal" unicode="=" horiz-adv-x="600" 
d="M47 192h506v-78h-506v78zM47 392h506v-78h-506v78z" />
    <glyph glyph-name="greater" unicode="&#x3e;" horiz-adv-x="600" 
d="M553 289l-506 225v-84l416 -177l-416 -177v-84l506 225v72z" />
    <glyph glyph-name="question" unicode="?" horiz-adv-x="530" 
d="M455 520q0 -55 -24 -99q-12 -21 -47 -63q-44 -52 -51 -62q-24 -37 -24 -74v-46h-100v47q0 50 14 80q8 17 44 64l67 87q21 32 21 61q0 40 -25.5 67.5t-64.5 27.5q-37 0 -63.5 -26.5t-26.5 -63.5v-15h-100v15q0 81 54.5 135.5t135.5 54.5q80 0 135 -55t55 -135zM309 0h-100
v96h100v-96z" />
    <glyph glyph-name="A" unicode="A" horiz-adv-x="620" 
d="M608 0h-109l-52 155h-274l-52 -155h-109l251 700h94zM417 245l-105 314h-4l-105 -314h214z" />
    <glyph glyph-name="B" unicode="B" horiz-adv-x="629" 
d="M564 198q0 -95 -65 -148q-60 -50 -158 -50h-261v700h268q87 0 144 -43q63 -48 63 -133q0 -128 -100 -163v-3q53 -16 81 -59t28 -101zM449 503q0 47 -31.5 74t-78.5 27h-153v-201h160q45 0 74 27.5t29 72.5zM458 201q0 50 -31 78t-82 28h-159v-211h156q47 0 81.5 29.5
t34.5 75.5z" />
    <glyph glyph-name="C" unicode="C" horiz-adv-x="626" 
d="M571 197q-16 -94 -83 -150.5t-163 -56.5q-115 0 -184 79q-66 75 -66 191v183q0 118 65 192q69 78 185 78q94 0 162.5 -57t83.5 -150h-107q-10 37 -36 64q-41 43 -103 43q-73 0 -111 -52q-33 -46 -33 -122v-175q0 -75 33 -121q39 -53 111 -53q50 0 88 29t51 78h107z" />
    <glyph glyph-name="D" unicode="D" horiz-adv-x="640" 
d="M570 255q0 -91 -43 -157q-64 -98 -190 -98h-257v700h257q126 0 190 -98q43 -66 43 -157v-190zM464 243v214q0 67 -39 107t-105 40h-134v-508h134q67 0 105.5 40t38.5 107z" />
    <glyph glyph-name="E" unicode="E" horiz-adv-x="582" 
d="M527 0h-447v700h447v-96h-341v-206h292v-96h-292v-206h341v-96z" />
    <glyph glyph-name="F" unicode="F" horiz-adv-x="573" 
d="M528 604h-342v-210h290v-96h-293v-298h-103v700h448v-96z" />
    <glyph glyph-name="G" unicode="G" horiz-adv-x="650" 
d="M575 244q0 -111 -70 -182.5t-180 -71.5q-121 0 -193 88q-57 69 -57 166v219q0 108 71 179t179 71q95 0 163.5 -57t82.5 -150h-106q-12 51 -49.5 79t-90.5 28q-62 0 -103 -40.5t-41 -103.5v-235q0 -63 40 -103.5t104 -40.5t104 40t40 104v55h-135v96h241v-141z" />
    <glyph glyph-name="H" unicode="H" horiz-adv-x="658" 
d="M578 0h-106v302h-286v-302h-106v700h106v-302h286v302h106v-700z" />
    <glyph glyph-name="I" unicode="I" horiz-adv-x="266" 
d="M186 0h-106v700h106v-700z" />
    <glyph glyph-name="J" unicode="J" horiz-adv-x="473" 
d="M440 224q0 -106 -59 -169q-61 -66 -163 -66q-124 1 -185 111l90 45q33 -59 92 -60q52 0 85.5 33.5t33.5 85.5v496h106v-476z" />
    <glyph glyph-name="K" unicode="K" horiz-adv-x="635" 
d="M615 0h-122l-189 340l-118 -123v-217h-106v700h106v-361l287 361h124l-227 -279z" />
    <glyph glyph-name="L" unicode="L" horiz-adv-x="537" 
d="M517 0h-437v700h106v-604h331v-96z" />
    <glyph glyph-name="M" unicode="M" horiz-adv-x="761" 
d="M681 0h-106v444l-149 -344h-91l-149 344v-444h-106v700h96l203 -456h3l203 456h96v-700z" />
    <glyph glyph-name="N" unicode="N" horiz-adv-x="673" 
d="M593 0h-100l-307 503v-503h-106v700h100l307 -503v503h106v-700z" />
    <glyph glyph-name="O" unicode="O" horiz-adv-x="648" 
d="M573 251q0 -181 -155 -242q-48 -19 -94 -19q-44 0 -92.5 18.5t-80.5 47.5q-76 70 -76 195v198q0 181 155 242q48 19 94 19q44 0 92.5 -18.5t80.5 -47.5q76 -70 76 -195v-198zM467 245v210q0 67 -38.5 111t-104.5 44t-104.5 -44t-38.5 -111v-210q0 -67 39 -111t104 -44
q66 0 104.5 44t38.5 111z" />
    <glyph glyph-name="P" unicode="P" horiz-adv-x="608" 
d="M563 489q0 -104 -68 -161q-64 -53 -171 -53h-138v-275h-106v700h243q103 0 169 -53q71 -58 71 -158zM457 493q0 55 -39 85q-36 26 -93 26h-139v-233h139q59 0 95.5 31.5t36.5 90.5z" />
    <glyph glyph-name="Q" unicode="Q" horiz-adv-x="649" 
d="M639 51l-66 -69l-87 69q-67 -61 -162 -61q-113 0 -181 73.5t-68 187.5v198q0 181 155 242q48 19 94 19q44 0 92.5 -18.5t80.5 -47.5q76 -70 76 -195v-198q0 -76 -26 -126zM467 245v210q0 67 -38.5 111t-104.5 44t-104.5 -44t-38.5 -111v-210q0 -67 39 -111t104 -44
q46 0 82 25l-96 77l67 69l84 -67q6 18 6 51z" />
    <glyph glyph-name="R" unicode="R" horiz-adv-x="642" 
d="M607 0h-134l-150 296h-137v-296h-106v700h280q95 0 157.5 -54t62.5 -147q0 -86 -56 -141q-34 -33 -87 -47zM474 498q0 48 -32 77t-80 29h-176v-212h175q48 0 80.5 29.5t32.5 76.5z" />
    <glyph glyph-name="S" unicode="S" horiz-adv-x="632" 
d="M572 192q2 -82 -59 -142q-62 -60 -196 -60q-144 0 -257 93l78 78q90 -71 185 -71q60 0 97 23q46 28 46 84q0 33 -23 57t-56 32l-105 20q-185 36 -185 195q0 97 65 155q63 54 161 54q134 -1 230 -81l-72 -72q-71 53 -155 53q-52 0 -85 -23q-38 -27 -38 -77q3 -83 113 -101
l73 -14q183 -31 183 -203z" />
    <glyph glyph-name="T" unicode="T" horiz-adv-x="528" 
d="M508 604h-193v-604h-106v604h-189v96h488v-96z" />
    <glyph glyph-name="U" unicode="U" horiz-adv-x="660" 
d="M580 241q0 -109 -70.5 -180t-179.5 -71q-107 0 -178.5 72t-71.5 179v459h106v-464q0 -62 41 -104t103 -42q66 0 105 40t39 106v464h106v-459z" />
    <glyph glyph-name="V" unicode="V" horiz-adv-x="541" 
d="M531 700l-220 -700h-81l-220 700h115l151 -507h3l145 507h107z" />
    <glyph glyph-name="W" unicode="W" horiz-adv-x="858" 
d="M843 700l-180 -700h-92l-137 505h-3l-139 -505h-92l-180 700h115l113 -492h3l139 492h85l137 -492h3l118 492h110z" />
    <glyph glyph-name="X" unicode="X" horiz-adv-x="578" 
d="M558 0h-121l-148 253h-3l-150 -253h-116l210 358l-198 342h121l136 -242h3l138 242h116l-198 -342z" />
    <glyph glyph-name="Y" unicode="Y" horiz-adv-x="533" 
d="M521 700l-202 -407v-293h-106v293l-201 407h115l139 -291h3l142 291h110z" />
    <glyph glyph-name="Z" unicode="Z" horiz-adv-x="544" 
d="M499 0h-454v96l334 508h-315v96h435v-96l-334 -508h334v-96z" />
    <glyph glyph-name="bracketleft" unicode="[" horiz-adv-x="292" 
d="M262 640h-92v-676h91v-64h-181v804h182v-64z" />
    <glyph glyph-name="bracketright" unicode="]" horiz-adv-x="292" 
d="M212 -100h-181v64h91v676h-92v64h182v-804z" />
    <glyph glyph-name="underscore" unicode="_" horiz-adv-x="599" 
d="M599 -224h-599v84h599v-84z" />
    <glyph glyph-name="grave" unicode="`" horiz-adv-x="240" 
d="M141 718h-134l142 -146h84z" />
    <glyph glyph-name="a" unicode="a" horiz-adv-x="620" 
d="M608 0h-109l-52 155h-274l-52 -155h-109l251 700h94zM417 245l-105 314h-4l-105 -314h214z" />
    <glyph glyph-name="b" unicode="b" horiz-adv-x="629" 
d="M564 198q0 -95 -65 -148q-60 -50 -158 -50h-261v700h268q87 0 144 -43q63 -48 63 -133q0 -128 -100 -163v-3q53 -16 81 -59t28 -101zM449 503q0 47 -31.5 74t-78.5 27h-153v-201h160q45 0 74 27.5t29 72.5zM458 201q0 50 -31 78t-82 28h-159v-211h156q47 0 81.5 29.5
t34.5 75.5z" />
    <glyph glyph-name="c" unicode="c" horiz-adv-x="626" 
d="M571 197q-16 -94 -83 -150.5t-163 -56.5q-115 0 -184 79q-66 75 -66 191v183q0 118 65 192q69 78 185 78q94 0 162.5 -57t83.5 -150h-107q-10 37 -36 64q-41 43 -103 43q-73 0 -111 -52q-33 -46 -33 -122v-175q0 -75 33 -121q39 -53 111 -53q50 0 88 29t51 78h107z" />
    <glyph glyph-name="d" unicode="d" horiz-adv-x="640" 
d="M570 255q0 -91 -43 -157q-64 -98 -190 -98h-257v700h257q126 0 190 -98q43 -66 43 -157v-190zM464 243v214q0 67 -39 107t-105 40h-134v-508h134q67 0 105.5 40t38.5 107z" />
    <glyph glyph-name="e" unicode="e" horiz-adv-x="582" 
d="M527 0h-447v700h447v-96h-341v-206h292v-96h-292v-206h341v-96z" />
    <glyph glyph-name="f" unicode="f" horiz-adv-x="573" 
d="M528 604h-342v-210h290v-96h-293v-298h-103v700h448v-96z" />
    <glyph glyph-name="g" unicode="g" horiz-adv-x="650" 
d="M575 244q0 -111 -70 -182.5t-180 -71.5q-121 0 -193 88q-57 69 -57 166v219q0 108 71 179t179 71q95 0 163.5 -57t82.5 -150h-106q-12 51 -49.5 79t-90.5 28q-62 0 -103 -40.5t-41 -103.5v-235q0 -63 40 -103.5t104 -40.5t104 40t40 104v55h-135v96h241v-141z" />
    <glyph glyph-name="h" unicode="h" horiz-adv-x="658" 
d="M578 0h-106v302h-286v-302h-106v700h106v-302h286v302h106v-700z" />
    <glyph glyph-name="i" unicode="i" horiz-adv-x="266" 
d="M186 0h-106v700h106v-700z" />
    <glyph glyph-name="j" unicode="j" horiz-adv-x="473" 
d="M440 224q0 -106 -59 -169q-61 -66 -163 -66q-124 1 -185 111l90 45q33 -59 92 -60q52 0 85.5 33.5t33.5 85.5v496h106v-476z" />
    <glyph glyph-name="k" unicode="k" horiz-adv-x="635" 
d="M615 0h-122l-189 340l-118 -123v-217h-106v700h106v-361l287 361h124l-227 -279z" />
    <glyph glyph-name="l" unicode="l" horiz-adv-x="537" 
d="M517 0h-437v700h106v-604h331v-96z" />
    <glyph glyph-name="m" unicode="m" horiz-adv-x="761" 
d="M681 0h-106v444l-149 -344h-91l-149 344v-444h-106v700h96l203 -456h3l203 456h96v-700z" />
    <glyph glyph-name="n" unicode="n" horiz-adv-x="673" 
d="M593 0h-100l-307 503v-503h-106v700h100l307 -503v503h106v-700z" />
    <glyph glyph-name="o" unicode="o" horiz-adv-x="648" 
d="M573 251q0 -181 -155 -242q-48 -19 -94 -19q-44 0 -92.5 18.5t-80.5 47.5q-76 70 -76 195v198q0 181 155 242q48 19 94 19q44 0 92.5 -18.5t80.5 -47.5q76 -70 76 -195v-198zM467 245v210q0 67 -38.5 111t-104.5 44t-104.5 -44t-38.5 -111v-210q0 -67 39 -111t104 -44
q66 0 104.5 44t38.5 111z" />
    <glyph glyph-name="p" unicode="p" horiz-adv-x="608" 
d="M563 489q0 -104 -68 -161q-64 -53 -171 -53h-138v-275h-106v700h243q103 0 169 -53q71 -58 71 -158zM457 493q0 55 -39 85q-36 26 -93 26h-139v-233h139q59 0 95.5 31.5t36.5 90.5z" />
    <glyph glyph-name="q" unicode="q" horiz-adv-x="649" 
d="M639 51l-66 -69l-87 69q-67 -61 -162 -61q-113 0 -181 73.5t-68 187.5v198q0 181 155 242q48 19 94 19q44 0 92.5 -18.5t80.5 -47.5q76 -70 76 -195v-198q0 -76 -26 -126zM467 245v210q0 67 -38.5 111t-104.5 44t-104.5 -44t-38.5 -111v-210q0 -67 39 -111t104 -44
q46 0 82 25l-96 77l67 69l84 -67q6 18 6 51z" />
    <glyph glyph-name="r" unicode="r" horiz-adv-x="642" 
d="M607 0h-134l-150 296h-137v-296h-106v700h280q95 0 157.5 -54t62.5 -147q0 -86 -56 -141q-34 -33 -87 -47zM474 498q0 48 -32 77t-80 29h-176v-212h175q48 0 80.5 29.5t32.5 76.5z" />
    <glyph glyph-name="s" unicode="s" horiz-adv-x="632" 
d="M572 192q2 -82 -59 -142q-62 -60 -196 -60q-144 0 -257 93l78 78q90 -71 185 -71q60 0 97 23q46 28 46 84q0 33 -23 57t-56 32l-105 20q-185 36 -185 195q0 97 65 155q63 54 161 54q134 -1 230 -81l-72 -72q-71 53 -155 53q-52 0 -85 -23q-38 -27 -38 -77q3 -83 113 -101
l73 -14q183 -31 183 -203z" />
    <glyph glyph-name="t" unicode="t" horiz-adv-x="528" 
d="M508 604h-193v-604h-106v604h-189v96h488v-96z" />
    <glyph glyph-name="u" unicode="u" horiz-adv-x="660" 
d="M580 241q0 -109 -70.5 -180t-179.5 -71q-107 0 -178.5 72t-71.5 179v459h106v-464q0 -62 41 -104t103 -42q66 0 105 40t39 106v464h106v-459z" />
    <glyph glyph-name="v" unicode="v" horiz-adv-x="541" 
d="M531 700l-220 -700h-81l-220 700h115l151 -507h3l145 507h107z" />
    <glyph glyph-name="w" unicode="w" horiz-adv-x="858" 
d="M843 700l-180 -700h-92l-137 505h-3l-139 -505h-92l-180 700h115l113 -492h3l139 492h85l137 -492h3l118 492h110z" />
    <glyph glyph-name="x" unicode="x" horiz-adv-x="578" 
d="M558 0h-121l-148 253h-3l-150 -253h-116l210 358l-198 342h121l136 -242h3l138 242h116l-198 -342z" />
    <glyph glyph-name="y" unicode="y" horiz-adv-x="533" 
d="M521 700l-202 -407v-293h-106v293l-201 407h115l139 -291h3l142 291h110z" />
    <glyph glyph-name="z" unicode="z" horiz-adv-x="544" 
d="M499 0h-454v96l334 508h-315v96h435v-96l-334 -508h334v-96z" />
    <glyph glyph-name="braceleft" unicode="{" horiz-adv-x="278" 
d="M9 338q19 0 33.5 9.5t24.5 26t15 38.5t5 46v143q0 53 29 82t69 29h85v-66h-49q-24 0 -34 -25.5t-10 -57.5v-129q0 -33 -10 -56.5t-23 -38.5t-26 -23t-19 -10v-2q6 -2 19 -9.5t26 -22.5t23 -39t10 -58v-128q0 -32 10 -57.5t34 -25.5h49v-66h-85q-40 0 -69 29t-29 82v141
q0 51 -20 86t-58 36v66z" />
    <glyph glyph-name="braceright" unicode="}" horiz-adv-x="278" 
d="M270 338q-19 0 -33.5 9.5t-24.5 26t-15 38.5t-5 46v143q0 53 -29 82t-69 29h-85v-66h49q24 0 34 -25.5t10 -57.5v-129q0 -33 10 -56.5t23 -38.5t26 -23t19 -10v-2q-6 -2 -19 -9.5t-26 -22.5t-23 -39t-10 -58v-128q0 -32 -10 -57.5t-34 -25.5h-49v-66h85q40 0 69 29t29 82
v141q0 51 20 86t58 36v66z" />
    <glyph glyph-name="section" unicode="&#xa3;" 
d="M20 366h55q-20 42 -27.5 77.5t-7.5 72.5q0 47 14 84.5t39 63.5t59 40t74 14q50 0 87.5 -15t62 -42.5t36.5 -65t12 -82.5h-102q-2 54 -25.5 81.5t-63.5 27.5q-41 0 -66 -28.5t-25 -79.5q0 -38 10.5 -78t24.5 -70h161v-66h-136q7 -23 12.5 -45.5t5.5 -42.5
q0 -28 -8.5 -54.5t-22.5 -53.5q10 -1 24.5 -3.5t30 -4.5l30.5 -4t27 -2q22 0 48 7.5t49 25.5l63 -79q-35 -29 -73.5 -39.5t-71.5 -10.5q-14 0 -40 3t-54.5 7t-56 7t-44.5 3q-20 0 -42.5 -4.5t-45.5 -15.5v96q17 10 35.5 14.5t37.5 5.5q8 20 13 43t5 42q0 20 -7.5 48
t-16.5 57h-80v66z" />
    <glyph glyph-name="dieresis" unicode="&#xa8;" horiz-adv-x="240" 
d="M-22 694h108v-108h-108v108zM154 694h108v-108h-108v108z" />
    <glyph glyph-name="copyright" unicode="&#xa9;" horiz-adv-x="800" 
d="M116 356q0 -63 21.5 -116.5t59.5 -92t90 -60t113 -21.5t113 21.5t90 60t59.5 92t21.5 116.5t-21.5 116.5t-59.5 92t-90 60t-113 21.5t-113 -21.5t-90 -60t-59.5 -92t-21.5 -116.5zM38 356q0 75 28.5 141t77.5 115t115 77.5t141 28.5t141 -28.5t115 -77.5t77.5 -115
t28.5 -141t-28.5 -141t-77.5 -115t-115 -77.5t-141 -28.5t-141 28.5t-115 77.5t-77.5 115t-28.5 141zM596 293q-14 -80 -63 -124t-120 -44q-51 0 -92 17.5t-69.5 48.5t-43.5 73t-15 92q0 51 14.5 93t42 73t68 48t92.5 17q73 0 124.5 -40.5t61.5 -122.5h-72q-8 40 -39 65.5
t-74 25.5q-33 0 -59 -12.5t-44 -34t-27.5 -50t-9.5 -60.5q0 -31 10 -60t28.5 -51.5t45 -36t58.5 -13.5q43 0 73.5 27t37.5 69h72z" />
    <glyph glyph-name="guillemotleft" unicode="&#x2039;" horiz-adv-x="296" 
d="M46 277l204 202v-102l-102 -100l102 -100v-102z" />
    <glyph glyph-name="registered" unicode="&#xae;" horiz-adv-x="800" 
d="M116 356q0 -63 21.5 -116.5t59.5 -92t90 -60t113 -21.5t113 21.5t90 60t59.5 92t21.5 116.5t-21.5 116.5t-59.5 92t-90 60t-113 21.5t-113 -21.5t-90 -60t-59.5 -92t-21.5 -116.5zM38 356q0 75 28.5 141t77.5 115t115 77.5t141 28.5t141 -28.5t115 -77.5t77.5 -115
t28.5 -141t-28.5 -141t-77.5 -115t-115 -77.5t-141 -28.5t-141 28.5t-115 77.5t-77.5 115t-28.5 141zM263 577h160q73 0 109 -30t36 -96q0 -32 -8.5 -54t-23.5 -36.5t-34.5 -22t-41.5 -10.5l121 -173h-84l-121 171h-41v-171h-72v422zM335 392h50q22 0 42 1.5t35.5 7.5
t24.5 17.5t9 32.5q0 18 -8 30t-21.5 18.5t-30.5 9t-35 2.5h-66v-119z" />
    <glyph glyph-name="plusminus" horiz-adv-x="870" 
d="M652 357h-231v-140h-70v140h-231v70h231v178h70v-178h231v-70zM652 98h-532v70h532v-70z" />
    <glyph glyph-name="acute" unicode="&#xb4;" horiz-adv-x="240" 
d="M99 718h134l-142 -146h-84z" />
    <glyph glyph-name="guillemotright" unicode="&#x203a;" horiz-adv-x="296" 
d="M250 277l-204 202v-102l102 -100l-102 -100v-102z" />
    <glyph glyph-name="divide" unicode="&#xf7;" horiz-adv-x="600" 
d="M233 46q0 28 19.5 47.5t47.5 19.5t47.5 -19.5t19.5 -47.5t-19.5 -47.5t-47.5 -19.5t-47.5 19.5t-19.5 47.5zM233 460q0 28 19.5 47.5t47.5 19.5t47.5 -19.5t19.5 -47.5t-19.5 -47.5t-47.5 -19.5t-47.5 19.5t-19.5 47.5zM47 292h506v-78h-506v78z" />
    <glyph glyph-name="afii10017" unicode="|" horiz-adv-x="222" 
d="M72 750h78v-1000h-78v1000z" />
    <glyph glyph-name="afii10018" unicode="&#x22;" horiz-adv-x="333" 
d="M193 712h78v-176h-78v176zM62 712h78v-176h-78v176z" />
    <glyph glyph-name="afii10019" unicode="'" horiz-adv-x="240" 
d="M81 712h78v-176h-78v176z" />
    <glyph glyph-name="afii10020" unicode="&#xa7;" 
d="M240 163q29 0 47.5 11.5t27.5 24.5q11 15 14 32.5t3 45.5q0 35 -4.5 51t-16.5 31q-9 11 -27.5 20.5t-43.5 9.5t-43.5 -9.5t-27.5 -20.5q-12 -15 -16.5 -31t-4.5 -51q0 -28 3 -45.5t14 -32.5q9 -13 27.5 -24.5t47.5 -11.5zM156 -10q2 -38 23.5 -62t62.5 -24q34 0 56.5 20
t22.5 58q0 19 -4 31t-15 21.5t-30.5 18t-51.5 19.5l-38 13q-41 14 -67.5 30.5t-41.5 37.5t-21 49.5t-6 66.5q0 34 4 59.5t14.5 45t29.5 34.5t50 29q-38 21 -52 49.5t-14 69.5q0 35 12.5 64.5t34.5 51t51.5 33.5t63.5 12q33 0 63.5 -10.5t53 -31.5t36 -53.5t13.5 -76.5h-90
q0 35 -19 58.5t-57 23.5t-55 -20.5t-17 -42.5q0 -17 5 -28t17 -20t32 -17t49 -17q41 -13 71.5 -27.5t51 -36t30.5 -54.5t10 -83q0 -30 -3 -53.5t-13 -43t-28.5 -36t-49.5 -32.5q45 -19 61 -52.5t16 -75.5q0 -41 -14.5 -74.5t-39.5 -57t-58 -36t-70 -12.5q-34 0 -64.5 12.5
t-54 36t-37 57.5t-13.5 76h90z" />
    <glyph glyph-name="afii10021" unicode="&#xa4;" 
d="M104 356q0 -66 37.5 -104.5t99.5 -38.5t99.5 38.5t37.5 104.5t-37.5 104.5t-99.5 38.5t-99.5 -38.5t-37.5 -104.5zM64 233q-17 20 -27.5 53t-10.5 70t10.5 69.5t27.5 54.5l-49 49l53 52l49 -49q21 17 54 28t70 11t68.5 -10.5t54.5 -27.5l49 48l52 -52l-48 -49
q17 -22 28 -54.5t11 -69.5q0 -38 -11 -70.5t-28 -53.5l48 -49l-52 -52l-49 49q-23 -17 -54.5 -28t-68.5 -11t-70 11.5t-54 27.5l-49 -49l-53 52z" />
    <glyph glyph-name="afii10022" unicode="&#xa5;" 
d="M192 160h-150v66h150v67l-14 27h-136v66h104l-160 326h108l146 -316l146 316h108l-160 -326h104v-66h-136l-14 -27v-67h150v-66h-150v-160h-96v160z" />
    <glyph glyph-name="afii10024" unicode="&#xab;" 
d="M433 479v-102l-102 -100l102 -100v-102l-204 202zM251 479v-102l-102 -100l102 -100v-102l-204 202z" />
    <glyph glyph-name="afii10025" unicode="&#xbb;" 
d="M47 479v-102l102 -100l-102 -100v-102l204 202zM229 479v-102l102 -100l-102 -100v-102l204 202z" />
    <glyph glyph-name="afii10026" unicode="&#xc6;" horiz-adv-x="907" 
d="M426 255v361h-2l-184 -361h186zM426 159h-237l-86 -159h-114l387 712h505v-102h-347v-203h296v-96h-296v-209h347v-102h-455v159z" />
    <glyph glyph-name="afii10026" unicode="&#xe6;" horiz-adv-x="907" 
d="M426 255v361h-2l-184 -361h186zM426 159h-237l-86 -159h-114l387 712h505v-102h-347v-203h296v-96h-296v-209h347v-102h-455v159z" />
    <glyph glyph-name="afii10027" unicode="&#x152;" horiz-adv-x="926" 
d="M451 56q-25 -29 -66.5 -45.5t-79.5 -16.5q-42 0 -77.5 11.5t-63.5 29.5t-48.5 41t-33.5 46q-9 16 -14.5 30.5t-9.5 38.5t-5.5 62.5t-1.5 102.5t1.5 102.5t5.5 62.5t9.5 38.5t14.5 30.5q13 23 33.5 46t48.5 41t63.5 29.5t77.5 11.5q41 0 79.5 -14.5t66.5 -46.5v55h447
v-102h-339v-203h288v-96h-288v-209h341v-102h-449v56zM159 356q0 -55 1.5 -88t6 -54t11 -34t17.5 -26q17 -21 44.5 -36.5t65.5 -15.5t65.5 15.5t44.5 36.5q10 13 17 26t11.5 34t6 54t1.5 88t-1.5 88t-6 54t-11.5 33.5t-17 26.5q-17 21 -44.5 36.5t-65.5 15.5t-65.5 -15.5
t-44.5 -36.5q-11 -14 -17.5 -26.5t-11 -33.5t-6 -54t-1.5 -88z" />
    <glyph glyph-name="afii10027" unicode="&#x153;" horiz-adv-x="926" 
d="M451 56q-25 -29 -66.5 -45.5t-79.5 -16.5q-42 0 -77.5 11.5t-63.5 29.5t-48.5 41t-33.5 46q-9 16 -14.5 30.5t-9.5 38.5t-5.5 62.5t-1.5 102.5t1.5 102.5t5.5 62.5t9.5 38.5t14.5 30.5q13 23 33.5 46t48.5 41t63.5 29.5t77.5 11.5q41 0 79.5 -14.5t66.5 -46.5v55h447
v-102h-339v-203h288v-96h-288v-209h341v-102h-449v56zM159 356q0 -55 1.5 -88t6 -54t11 -34t17.5 -26q17 -21 44.5 -36.5t65.5 -15.5t65.5 15.5t44.5 36.5q10 13 17 26t11.5 34t6 54t1.5 88t-1.5 88t-6 54t-11.5 33.5t-17 26.5q-17 21 -44.5 36.5t-65.5 15.5t-65.5 -15.5
t-44.5 -36.5q-11 -14 -17.5 -26.5t-11 -33.5t-6 -54t-1.5 -88z" />
    <glyph glyph-name="afii10028" unicode="&#xbf;" horiz-adv-x="530" 
d="M75 190q0 55 24 99q12 21 47 63q44 52 51 62q24 37 24 74v46h100v-47q0 -50 -14 -80q-8 -17 -44 -64l-67 -87q-21 -32 -21 -61q0 -40 25.5 -67.5t64.5 -27.5q37 0 63.5 26.5t26.5 63.5v15h100v-15q0 -81 -54.5 -135.5t-135.5 -54.5q-80 0 -135 55t-55 135zM221 710h100
v-96h-100v96z" />
    <glyph glyph-name="afii10029" unicode="&#xd8;" horiz-adv-x="610" 
d="M212 137q17 -16 40 -25.5t53 -9.5q38 0 65.5 15.5t44.5 36.5q10 13 17 26t11.5 34t6 54t1.5 88q0 41 -1 70t-3 49t-5.5 33t-9.5 24zM397 577q-17 15 -40 24t-52 9q-38 0 -65.5 -15.5t-44.5 -36.5q-11 -14 -17.5 -26.5t-11 -33.5t-6 -54t-1.5 -88q0 -40 1 -68.5t3 -48.5
t5.5 -33.5t8.5 -23.5zM117 74q-11 13 -19.5 25t-15.5 23q-9 16 -14.5 30.5t-9.5 38.5t-5.5 62.5t-1.5 102.5t1.5 102.5t5.5 62.5t9.5 38.5t14.5 30.5q13 23 33.5 46t48.5 41t63.5 29.5t77.5 11.5q44 0 80.5 -12t65.5 -32l49 88l46 -25l-54 -98q21 -23 36 -49
q9 -16 14.5 -30.5t9.5 -38.5t5.5 -62.5t1.5 -102.5t-1.5 -102.5t-5.5 -62.5t-9.5 -38.5t-14.5 -30.5q-13 -23 -33.5 -46t-48.5 -41t-63.5 -29.5t-77.5 -11.5q-45 0 -81.5 12.5t-65.5 33.5l-50 -90l-46 25z" />
    <glyph glyph-name="afii10029" unicode="&#xf8;" horiz-adv-x="610" 
d="M212 137q17 -16 40 -25.5t53 -9.5q38 0 65.5 15.5t44.5 36.5q10 13 17 26t11.5 34t6 54t1.5 88q0 41 -1 70t-3 49t-5.5 33t-9.5 24zM397 577q-17 15 -40 24t-52 9q-38 0 -65.5 -15.5t-44.5 -36.5q-11 -14 -17.5 -26.5t-11 -33.5t-6 -54t-1.5 -88q0 -40 1 -68.5t3 -48.5
t5.5 -33.5t8.5 -23.5zM117 74q-11 13 -19.5 25t-15.5 23q-9 16 -14.5 30.5t-9.5 38.5t-5.5 62.5t-1.5 102.5t1.5 102.5t5.5 62.5t9.5 38.5t14.5 30.5q13 23 33.5 46t48.5 41t63.5 29.5t77.5 11.5q44 0 80.5 -12t65.5 -32l49 88l46 -25l-54 -98q21 -23 36 -49
q9 -16 14.5 -30.5t9.5 -38.5t5.5 -62.5t1.5 -102.5t-1.5 -102.5t-5.5 -62.5t-9.5 -38.5t-14.5 -30.5q-13 -23 -33.5 -46t-48.5 -41t-63.5 -29.5t-77.5 -11.5q-45 0 -81.5 12.5t-65.5 33.5l-50 -90l-46 25z" />
    <glyph glyph-name="afii10030" unicode="&#xd0;" horiz-adv-x="690" 
d="M634 255q0 -91 -43 -157q-64 -98 -190 -98h-257v700h257q126 0 190 -98q43 -66 43 -157v-190zM528 243v214q0 67 -39 107t-105 40h-134v-508h134q67 0 105.5 40t38.5 107zM362 295h-306v100h306v-100z" />
    <glyph glyph-name="afii10030" unicode="&#xf0;" horiz-adv-x="690" 
d="M634 255q0 -91 -43 -157q-64 -98 -190 -98h-257v700h257q126 0 190 -98q43 -66 43 -157v-190zM528 243v214q0 67 -39 107t-105 40h-134v-508h134q67 0 105.5 40t38.5 107zM362 295h-306v100h306v-100z" />
    <glyph glyph-name="afii10031" unicode="&#x192;" 
d="M183 374h-86l12 78h88l27 152q6 34 22 56t38.5 35t49 18t53.5 5q23 0 46 -6l-15 -95q-11 2 -21.5 3.5t-21.5 1.5q-23 0 -37 -11.5t-18 -35.5l-21 -123h90l-12 -78h-92l-71 -415q-11 -67 -45 -101t-107 -34q-14 0 -30 2t-30 7l17 92q8 -2 20 -3.5t26 -1.5q41 0 47 38z" />
    <glyph glyph-name="afii10032" unicode="&#x201a;" horiz-adv-x="226" 
d="M162 1l-98 -75v174h98v-99z" />
    <glyph glyph-name="afii10033" unicode="&#x201e;" horiz-adv-x="326" 
d="M147 1l-98 -75v174h98v-99zM276 1l-98 -75v174h98v-99z" />
    <glyph glyph-name="afii10034" unicode="&#xc5;" horiz-adv-x="620" 
d="M247 835q0 -26 18.5 -44.5t44.5 -18.5t44.5 18.5t18.5 44.5t-18.5 44.5t-44.5 18.5t-44.5 -18.5t-18.5 -44.5zM207 835q0 21 8 40t22 33t33 22t40 8t40 -8t33 -22t22 -33t8 -40t-8 -40t-22 -33t-33 -22t-40 -8t-40 8t-33 22t-22 33t-8 40zM608 0h-109l-52 155h-274
l-52 -155h-109l251 700h94zM417 245l-105 314h-4l-105 -314h214z" />
    <glyph glyph-name="afii10034" unicode="&#xe5;" horiz-adv-x="620" 
d="M247 835q0 -26 18.5 -44.5t44.5 -18.5t44.5 18.5t18.5 44.5t-18.5 44.5t-44.5 18.5t-44.5 -18.5t-18.5 -44.5zM207 835q0 21 8 40t22 33t33 22t40 8t40 -8t33 -22t22 -33t8 -40t-8 -40t-22 -33t-33 -22t-40 -8t-40 8t-33 22t-22 33t-8 40zM608 0h-109l-52 155h-274
l-52 -155h-109l251 700h94zM417 245l-105 314h-4l-105 -314h214z" />
    <glyph glyph-name="afii10035" unicode="&#xc0;" horiz-adv-x="620" 
d="M12 0h109l52 155h274l52 -155h109l-251 700h-94zM203 245l105 314h4l105 -314h-214zM292 893h-134l142 -146h84z" />
    <glyph glyph-name="afii10035" unicode="&#xe0;" horiz-adv-x="620" 
d="M12 0h109l52 155h274l52 -155h109l-251 700h-94zM203 245l105 314h4l105 -314h-214zM292 893h-134l142 -146h84z" />
    <glyph glyph-name="afii10036" unicode="&#xc1;" horiz-adv-x="620" 
d="M608 0h-109l-52 155h-274l-52 -155h-109l251 700h94zM417 245l-105 314h-4l-105 -314h214zM328 893h134l-142 -146h-84z" />
    <glyph glyph-name="afii10036" unicode="&#xe1;" horiz-adv-x="620" 
d="M608 0h-109l-52 155h-274l-52 -155h-109l251 700h94zM417 245l-105 314h-4l-105 -314h214zM328 893h134l-142 -146h-84z" />
    <glyph glyph-name="afii10037" unicode="&#xc4;" horiz-adv-x="620" 
d="M168 869h108v-108h-108v108zM344 869h108v-108h-108v108zM608 0h-109l-52 155h-274l-52 -155h-109l251 700h94zM417 245l-105 314h-4l-105 -314h214z" />
    <glyph glyph-name="afii10037" unicode="&#xe4;" horiz-adv-x="620" 
d="M168 869h108v-108h-108v108zM344 869h108v-108h-108v108zM608 0h-109l-52 155h-274l-52 -155h-109l251 700h94zM417 245l-105 314h-4l-105 -314h214z" />
    <glyph glyph-name="afii10038" unicode="&#xc2;" horiz-adv-x="620" 
d="M147 747h96l67 86l67 -86h96l-106 146h-114zM608 0h-109l-52 155h-274l-52 -155h-109l251 700h94zM417 245l-105 314h-4l-105 -314h214z" />
    <glyph glyph-name="afii10038" unicode="&#xe2;" horiz-adv-x="620" 
d="M147 747h96l67 86l67 -86h96l-106 146h-114zM608 0h-109l-52 155h-274l-52 -155h-109l251 700h94zM417 245l-105 314h-4l-105 -314h214z" />
    <glyph glyph-name="afii10039" unicode="&#xc3;" horiz-adv-x="620" 
d="M132 757q7 52 37.5 84t75.5 32q19 0 36.5 -6t34.5 -13t33.5 -13t31.5 -6q14 0 28 8t19 36h60q-4 -23 -12.5 -43.5t-21.5 -37t-32 -26t-44 -9.5q-19 0 -38.5 6t-38 12.5l-35.5 12.5t-32 6q-6 0 -13 -2t-13.5 -7t-11 -13.5t-4.5 -20.5h-60zM608 0h-109l-52 155h-274
l-52 -155h-109l251 700h94zM417 245l-105 314h-4l-105 -314h214z" />
    <glyph glyph-name="afii10039" unicode="&#xe3;" horiz-adv-x="620" 
d="M132 757q7 52 37.5 84t75.5 32q19 0 36.5 -6t34.5 -13t33.5 -13t31.5 -6q14 0 28 8t19 36h60q-4 -23 -12.5 -43.5t-21.5 -37t-32 -26t-44 -9.5q-19 0 -38.5 6t-38 12.5l-35.5 12.5t-32 6q-6 0 -13 -2t-13.5 -7t-11 -13.5t-4.5 -20.5h-60zM608 0h-109l-52 155h-274
l-52 -155h-109l251 700h94zM417 245l-105 314h-4l-105 -314h214z" />
    <glyph glyph-name="afii10040" unicode="&#xc8;" horiz-adv-x="582" 
d="M527 0h-447v700h447v-96h-341v-206h292v-96h-292v-206h341v-96zM312 893h-134l142 -146h84z" />
    <glyph glyph-name="afii10040" unicode="&#xe8;" horiz-adv-x="582" 
d="M527 0h-447v700h447v-96h-341v-206h292v-96h-292v-206h341v-96zM312 893h-134l142 -146h84z" />
    <glyph glyph-name="afii10041" unicode="&#xc9;" horiz-adv-x="582" 
d="M270 893h134l-142 -146h-84zM527 0h-447v700h447v-96h-341v-206h292v-96h-292v-206h341v-96z" />
    <glyph glyph-name="afii10041" unicode="&#xe9;" horiz-adv-x="582" 
d="M270 893h134l-142 -146h-84zM527 0h-447v700h447v-96h-341v-206h292v-96h-292v-206h341v-96z" />
    <glyph glyph-name="afii10042" unicode="&#xca;" horiz-adv-x="582" 
d="M128 747h96l67 86l67 -86h96l-106 146h-114zM527 0h-447v700h447v-96h-341v-206h292v-96h-292v-206h341v-96z" />
    <glyph glyph-name="afii10042" unicode="&#xea;" horiz-adv-x="582" 
d="M128 747h96l67 86l67 -86h96l-106 146h-114zM527 0h-447v700h447v-96h-341v-206h292v-96h-292v-206h341v-96z" />
    <glyph glyph-name="afii10043" unicode="&#xcb;" horiz-adv-x="582" 
d="M149 869h108v-108h-108v108zM325 869h108v-108h-108v108zM527 0h-447v700h447v-96h-341v-206h292v-96h-292v-206h341v-96z" />
    <glyph glyph-name="afii10043" unicode="&#xeb;" horiz-adv-x="582" 
d="M149 869h108v-108h-108v108zM325 869h108v-108h-108v108zM527 0h-447v700h447v-96h-341v-206h292v-96h-292v-206h341v-96z" />
    <glyph glyph-name="afii10044" unicode="&#xcc;" horiz-adv-x="266" 
d="M186 0h-106v700h106v-700zM-20 893h134l92 -146h-84z" />
    <glyph glyph-name="afii10044" unicode="&#xec;" horiz-adv-x="266" 
d="M186 0h-106v700h106v-700zM-20 893h134l92 -146h-84z" />
    <glyph glyph-name="afii10045" unicode="&#xcd;" horiz-adv-x="266" 
d="M186 0h-106v700h106v-700zM144 893h134l-142 -146h-84z" />
    <glyph glyph-name="afii10045" unicode="&#xed;" horiz-adv-x="266" 
d="M186 0h-106v700h106v-700zM144 893h134l-142 -146h-84z" />
    <glyph glyph-name="afii10046" unicode="&#xce;" horiz-adv-x="266" 
d="M-30 747h96l67 86l67 -86h96l-106 146h-114zM186 0h-106v700h106v-700z" />
    <glyph glyph-name="afii10046" unicode="&#xee;" horiz-adv-x="266" 
d="M-30 747h96l67 86l67 -86h96l-106 146h-114zM186 0h-106v700h106v-700z" />
    <glyph glyph-name="afii10047" unicode="&#xcf;" horiz-adv-x="266" 
d="M-9 869h108v-108h-108v108zM167 869h108v-108h-108v108zM186 0h-106v700h106v-700z" />
    <glyph glyph-name="afii10047" unicode="&#xef;" horiz-adv-x="266" 
d="M-9 869h108v-108h-108v108zM167 869h108v-108h-108v108zM186 0h-106v700h106v-700z" />
    <glyph glyph-name="afii10048" unicode="&#xd7;" horiz-adv-x="600" 
d="M246 253l-179 178l55 56l178 -179l177 179l56 -56l-179 -178l179 -177l-56 -55l-177 179l-178 -179l-55 55z" />
    <glyph glyph-name="afii10049" unicode="&#x160;" horiz-adv-x="632" 
d="M153 893h96l67 -86l67 86h96l-106 -146h-114zM572 192q2 -82 -59 -142q-62 -60 -196 -60q-144 0 -257 93l78 78q90 -71 185 -71q60 0 97 23q46 28 46 84q0 33 -23 57t-56 32l-105 20q-185 36 -185 195q0 97 65 155q63 54 161 54q134 -1 230 -81l-72 -72q-71 53 -155 53
q-52 0 -85 -23q-38 -27 -38 -77q3 -83 113 -101l73 -14q183 -31 183 -203z" />
    <glyph glyph-name="afii10049" unicode="&#x161;" horiz-adv-x="632" 
d="M153 893h96l67 -86l67 86h96l-106 -146h-114zM572 192q2 -82 -59 -142q-62 -60 -196 -60q-144 0 -257 93l78 78q90 -71 185 -71q60 0 97 23q46 28 46 84q0 33 -23 57t-56 32l-105 20q-185 36 -185 195q0 97 65 155q63 54 161 54q134 -1 230 -81l-72 -72q-71 53 -155 53
q-52 0 -85 -23q-38 -27 -38 -77q3 -83 113 -101l73 -14q183 -31 183 -203z" />
    <glyph glyph-name="afii10065" unicode="&#x17d;" horiz-adv-x="544" 
d="M109 893h96l67 -86l67 86h96l-106 -146h-114zM499 0h-454v96l334 508h-315v96h435v-96l-334 -508h334v-96z" />
    <glyph glyph-name="afii10065" unicode="&#x17e;" horiz-adv-x="544" 
d="M109 893h96l67 -86l67 86h96l-106 -146h-114zM499 0h-454v96l334 508h-315v96h435v-96l-334 -508h334v-96z" />
    <glyph glyph-name="afii10066" unicode="&#xd2;" horiz-adv-x="648" 
d="M573 251q0 -181 -155 -242q-48 -19 -94 -19q-44 0 -92.5 18.5t-80.5 47.5q-76 70 -76 195v198q0 181 155 242q48 19 94 19q44 0 92.5 -18.5t80.5 -47.5q76 -70 76 -195v-198zM467 245v210q0 67 -38.5 111t-104.5 44t-104.5 -44t-38.5 -111v-210q0 -67 39 -111t104 -44
q66 0 104.5 44t38.5 111zM311 895h-134l142 -146h84z" />
    <glyph glyph-name="afii10066" unicode="&#xf2;" horiz-adv-x="648" 
d="M573 251q0 -181 -155 -242q-48 -19 -94 -19q-44 0 -92.5 18.5t-80.5 47.5q-76 70 -76 195v198q0 181 155 242q48 19 94 19q44 0 92.5 -18.5t80.5 -47.5q76 -70 76 -195v-198zM467 245v210q0 67 -38.5 111t-104.5 44t-104.5 -44t-38.5 -111v-210q0 -67 39 -111t104 -44
q66 0 104.5 44t38.5 111zM311 895h-134l142 -146h84z" />
    <glyph glyph-name="afii10067" unicode="&#xd3;" horiz-adv-x="648" 
d="M337 895h134l-142 -146h-84zM467 245v210q0 67 -38.5 111t-104.5 44t-104.5 -44t-38.5 -111v-210q0 -67 39 -111t104 -44q66 0 104.5 44t38.5 111zM573 251q0 -181 -155 -242q-48 -19 -94 -19q-44 0 -92.5 18.5t-80.5 47.5q-76 70 -76 195v198q0 181 155 242q48 19 94 19
q44 0 92.5 -18.5t80.5 -47.5q76 -70 76 -195v-198z" />
    <glyph glyph-name="afii10067" unicode="&#xf3;" horiz-adv-x="648" 
d="M337 895h134l-142 -146h-84zM467 245v210q0 67 -38.5 111t-104.5 44t-104.5 -44t-38.5 -111v-210q0 -67 39 -111t104 -44q66 0 104.5 44t38.5 111zM573 251q0 -181 -155 -242q-48 -19 -94 -19q-44 0 -92.5 18.5t-80.5 47.5q-76 70 -76 195v198q0 181 155 242q48 19 94 19
q44 0 92.5 -18.5t80.5 -47.5q76 -70 76 -195v-198z" />
    <glyph glyph-name="afii10068" unicode="&#xd4;" horiz-adv-x="648" 
d="M161 747h96l67 86l67 -86h96l-106 146h-114zM573 251q0 -181 -155 -242q-48 -19 -94 -19q-44 0 -92.5 18.5t-80.5 47.5q-76 70 -76 195v198q0 181 155 242q48 19 94 19q44 0 92.5 -18.5t80.5 -47.5q76 -70 76 -195v-198zM467 245v210q0 67 -38.5 111t-104.5 44
t-104.5 -44t-38.5 -111v-210q0 -67 39 -111t104 -44q66 0 104.5 44t38.5 111z" />
    <glyph glyph-name="afii10068" unicode="&#xf4;" horiz-adv-x="648" 
d="M161 747h96l67 86l67 -86h96l-106 146h-114zM573 251q0 -181 -155 -242q-48 -19 -94 -19q-44 0 -92.5 18.5t-80.5 47.5q-76 70 -76 195v198q0 181 155 242q48 19 94 19q44 0 92.5 -18.5t80.5 -47.5q76 -70 76 -195v-198zM467 245v210q0 67 -38.5 111t-104.5 44
t-104.5 -44t-38.5 -111v-210q0 -67 39 -111t104 -44q66 0 104.5 44t38.5 111z" />
    <glyph glyph-name="afii10069" unicode="&#xd6;" horiz-adv-x="648" 
d="M182 869h108v-108h-108v108zM358 869h108v-108h-108v108zM573 251q0 -181 -155 -242q-48 -19 -94 -19q-44 0 -92.5 18.5t-80.5 47.5q-76 70 -76 195v198q0 181 155 242q48 19 94 19q44 0 92.5 -18.5t80.5 -47.5q76 -70 76 -195v-198zM467 245v210q0 67 -38.5 111
t-104.5 44t-104.5 -44t-38.5 -111v-210q0 -67 39 -111t104 -44q66 0 104.5 44t38.5 111z" />
    <glyph glyph-name="afii10069" unicode="&#xf6;" horiz-adv-x="648" 
d="M182 869h108v-108h-108v108zM358 869h108v-108h-108v108zM573 251q0 -181 -155 -242q-48 -19 -94 -19q-44 0 -92.5 18.5t-80.5 47.5q-76 70 -76 195v198q0 181 155 242q48 19 94 19q44 0 92.5 -18.5t80.5 -47.5q76 -70 76 -195v-198zM467 245v210q0 67 -38.5 111
t-104.5 44t-104.5 -44t-38.5 -111v-210q0 -67 39 -111t104 -44q66 0 104.5 44t38.5 111z" />
    <glyph glyph-name="afii10070" unicode="&#xd5;" horiz-adv-x="648" 
d="M146 757q7 52 37.5 84t75.5 32q19 0 36.5 -6t34.5 -13t33.5 -13t31.5 -6q14 0 28 8t19 36h60q-4 -23 -12.5 -43.5t-21.5 -37t-32 -26t-44 -9.5q-19 0 -38.5 6t-38 12.5l-35.5 12.5t-32 6q-6 0 -13 -2t-13.5 -7t-11 -13.5t-4.5 -20.5h-60zM573 251q0 -181 -155 -242
q-48 -19 -94 -19q-44 0 -92.5 18.5t-80.5 47.5q-76 70 -76 195v198q0 181 155 242q48 19 94 19q44 0 92.5 -18.5t80.5 -47.5q76 -70 76 -195v-198zM467 245v210q0 67 -38.5 111t-104.5 44t-104.5 -44t-38.5 -111v-210q0 -67 39 -111t104 -44q66 0 104.5 44t38.5 111z" />
    <glyph glyph-name="afii10070" unicode="&#xf5;" horiz-adv-x="648" 
d="M146 757q7 52 37.5 84t75.5 32q19 0 36.5 -6t34.5 -13t33.5 -13t31.5 -6q14 0 28 8t19 36h60q-4 -23 -12.5 -43.5t-21.5 -37t-32 -26t-44 -9.5q-19 0 -38.5 6t-38 12.5l-35.5 12.5t-32 6q-6 0 -13 -2t-13.5 -7t-11 -13.5t-4.5 -20.5h-60zM573 251q0 -181 -155 -242
q-48 -19 -94 -19q-44 0 -92.5 18.5t-80.5 47.5q-76 70 -76 195v198q0 181 155 242q48 19 94 19q44 0 92.5 -18.5t80.5 -47.5q76 -70 76 -195v-198zM467 245v210q0 67 -38.5 111t-104.5 44t-104.5 -44t-38.5 -111v-210q0 -67 39 -111t104 -44q66 0 104.5 44t38.5 111z" />
    <glyph glyph-name="afii10072" unicode="&#xd9;" horiz-adv-x="660" 
d="M580 241q0 -109 -70.5 -180t-179.5 -71q-107 0 -178.5 72t-71.5 179v459h106v-464q0 -62 41 -104t103 -42q66 0 105 40t39 106v464h106v-459zM351 893h-134l142 -146h84z" />
    <glyph glyph-name="afii10072" unicode="&#xf9;" horiz-adv-x="660" 
d="M580 241q0 -109 -70.5 -180t-179.5 -71q-107 0 -178.5 72t-71.5 179v459h106v-464q0 -62 41 -104t103 -42q66 0 105 40t39 106v464h106v-459zM351 893h-134l142 -146h84z" />
    <glyph glyph-name="afii10073" unicode="&#xda;" horiz-adv-x="660" 
d="M309 893h134l-142 -146h-84zM580 241q0 -109 -70.5 -180t-179.5 -71q-107 0 -178.5 72t-71.5 179v459h106v-464q0 -62 41 -104t103 -42q66 0 105 40t39 106v464h106v-459z" />
    <glyph glyph-name="afii10073" unicode="&#xfa;" horiz-adv-x="660" 
d="M309 893h134l-142 -146h-84zM580 241q0 -109 -70.5 -180t-179.5 -71q-107 0 -178.5 72t-71.5 179v459h106v-464q0 -62 41 -104t103 -42q66 0 105 40t39 106v464h106v-459z" />
    <glyph glyph-name="afii10074" unicode="&#xdb;" horiz-adv-x="660" 
d="M167 747h96l67 86l67 -86h96l-106 146h-114zM580 241q0 -109 -70.5 -180t-179.5 -71q-107 0 -178.5 72t-71.5 179v459h106v-464q0 -62 41 -104t103 -42q66 0 105 40t39 106v464h106v-459z" />
    <glyph glyph-name="afii10074" unicode="&#xfb;" horiz-adv-x="660" 
d="M167 747h96l67 86l67 -86h96l-106 146h-114zM580 241q0 -109 -70.5 -180t-179.5 -71q-107 0 -178.5 72t-71.5 179v459h106v-464q0 -62 41 -104t103 -42q66 0 105 40t39 106v464h106v-459z" />
    <glyph glyph-name="afii10075" unicode="&#xdc;" horiz-adv-x="660" 
d="M188 869h108v-108h-108v108zM364 869h108v-108h-108v108zM580 241q0 -109 -70.5 -180t-179.5 -71q-107 0 -178.5 72t-71.5 179v459h106v-464q0 -62 41 -104t103 -42q66 0 105 40t39 106v464h106v-459z" />
    <glyph glyph-name="afii10075" unicode="&#xfc;" horiz-adv-x="660" 
d="M188 869h108v-108h-108v108zM364 869h108v-108h-108v108zM580 241q0 -109 -70.5 -180t-179.5 -71q-107 0 -178.5 72t-71.5 179v459h106v-464q0 -62 41 -104t103 -42q66 0 105 40t39 106v464h106v-459z" />
    <glyph glyph-name="afii10076" unicode="&#xdf;" horiz-adv-x="537" 
d="M256 482h61q25 0 39.5 13t14.5 46q0 20 -3 32.5t-13 21.5q-11 9 -36.5 15.5t-51.5 5.5q-56 -2 -77.5 -17.5t-23.5 -46.5v-552h-102v552q0 42 16 73t44.5 52t67.5 31t85 10q43 0 79.5 -12t62 -34t40 -53t14.5 -70q0 -82 -73 -113q73 -29 73 -111v-181q0 -30 -10 -56
t-28.5 -45.5t-44.5 -31t-58 -11.5h-63v96h36q37 0 51.5 11.5t14.5 41.5v178q0 29 -13 44t-43 15h-59v96z" />
    <glyph glyph-name="afii10077" unicode="&#xde;" horiz-adv-x="593" 
d="M75 712h108v-124h164q55 0 96.5 -19.5t69.5 -50t42.5 -69.5t14.5 -78t-14.5 -78t-42.5 -69.5t-69.5 -50t-96.5 -19.5h-164v-154h-108v712zM183 256h162q27 0 49 10.5t37 27t23 37t8 40.5t-8 40.5t-23 37t-37 27t-50 10.5h-161v-230z" />
    <glyph glyph-name="afii10077" unicode="&#xfe;" horiz-adv-x="593" 
d="M75 712h108v-124h164q55 0 96.5 -19.5t69.5 -50t42.5 -69.5t14.5 -78t-14.5 -78t-42.5 -69.5t-69.5 -50t-96.5 -19.5h-164v-154h-108v712zM183 256h162q27 0 49 10.5t37 27t23 37t8 40.5t-8 40.5t-23 37t-37 27t-50 10.5h-161v-230z" />
    <glyph glyph-name="afii10078" unicode="&#xdd;" horiz-adv-x="533" 
d="M246 893h134l-142 -146h-84zM521 700l-202 -407v-293h-106v293l-201 407h115l139 -291h3l142 291h110z" />
    <glyph glyph-name="afii10078" unicode="&#xfd;" horiz-adv-x="533" 
d="M246 893h134l-142 -146h-84zM521 700l-202 -407v-293h-106v293l-201 407h115l139 -291h3l142 291h110z" />
    <glyph glyph-name="afii10079" unicode="&#xff;" horiz-adv-x="533" 
d="M125 869h108v-108h-108v108zM301 869h108v-108h-108v108zM521 700l-202 -407v-293h-106v293l-201 407h115l139 -291h3l142 291h110z" />
    <glyph glyph-name="afii10079" unicode="&#x178;" horiz-adv-x="533" 
d="M125 869h108v-108h-108v108zM301 869h108v-108h-108v108zM521 700l-202 -407v-293h-106v293l-201 407h115l139 -291h3l142 291h110z" />
    <glyph glyph-name="afii10080" unicode="&#xb9;" horiz-adv-x="330" 
d="M156 630l-66 -44v84l66 44h84v-427h-84v343z" />
    <glyph glyph-name="afii10081" unicode="&#xb2;" horiz-adv-x="340" 
d="M29 359l176 188q11 11 16.5 22.5t5.5 25.5q0 23 -14.5 37t-40.5 14t-40 -16.5t-16 -45.5h-84q0 30 10.5 54.5t29 42.5t43.5 27.5t54 9.5q31 0 57.5 -9.5t45 -26.5t29 -39.5t10.5 -47.5q0 -21 -6.5 -40.5t-25.5 -39.5l-148 -156h180v-72h-282v72z" />
    <glyph glyph-name="afii10082" unicode="&#xb3;" horiz-adv-x="340" 
d="M128 540h32q33 0 52.5 14.5t19.5 40.5q0 21 -17 36t-42 15q-23 0 -42 -13t-25 -39h-84q4 54 43 89t99 35q37 0 65 -10.5t47.5 -27.5t29.5 -39t10 -45q0 -24 -10.5 -47.5t-40.5 -40.5q31 -17 43.5 -42.5t12.5 -51.5q0 -60 -42.5 -95.5t-112.5 -35.5q-59 0 -98 29.5
t-49 90.5h84q8 -22 25 -35t43 -13q29 0 47.5 15.5t18.5 41.5q0 28 -21 45t-51 17h-37v66z" />
    <glyph glyph-name="afii10083" unicode="&#xaa;" horiz-adv-x="325" 
d="M221 535h-80q-26 0 -41.5 -7.5t-15.5 -25.5q0 -17 20 -23.5t42 -6.5q24 0 39 2t23 7.5t10.5 14t2.5 21.5v18zM221 439h-2q-20 -33 -80 -33q-36 0 -61.5 7.5t-41 20t-23 29t-7.5 33.5q0 42 27 70.5t76 28.5h112v18q0 14 -6 22t-16 11.5t-22 4.5t-24 1q-19 0 -31 -1
t-20.5 -4t-13.5 -7.5t-9 -10.5l-52 44q20 27 49 36t74 9q70 0 109.5 -22t39.5 -78v-208h-78v29z" />
    <glyph glyph-name="afii10084" unicode="&#xba;" horiz-adv-x="325" 
d="M93 562q0 -27 2 -40t13 -26q19 -24 54 -24q36 0 55 24q11 13 13 26t2 40t-2 40t-13 26q-19 24 -54 24q-36 0 -55 -24q-11 -13 -13 -26t-2 -40zM15 562q0 23 1.5 39.5t5 29t9.5 22.5t16 21q20 23 50.5 33.5t65.5 10.5t65 -10.5t50 -33.5q10 -11 16 -21t9.5 -22.5t5 -29
t1.5 -39.5t-1.5 -39.5t-5 -29t-9.5 -23t-16 -20.5q-20 -23 -50.5 -33.5t-65.5 -10.5t-65 10.5t-50 33.5q-10 10 -16 20.5t-9.5 23t-5 29t-1.5 39.5z" />
    <glyph glyph-name="afii10085" unicode="&#xac;" horiz-adv-x="600" 
d="M475 314h-428v78h506v-284h-78v206z" />
    <glyph glyph-name="afii10086" unicode="&#xb0;" horiz-adv-x="400" 
d="M108 575q0 -19 7 -36t19.5 -29.5t29.5 -19.5t36 -7t36 7t29.5 19.5t19.5 29.5t7 36t-7 36t-19.5 29.5t-29.5 19.5t-36 7t-36 -7t-29.5 -19.5t-19.5 -29.5t-7 -36zM57 575q0 30 11 56t30.5 45.5t45.5 30.5t56 11t56 -11t45.5 -30.5t30.5 -45.5t11 -56t-11 -56t-30.5 -45.5
t-45.5 -30.5t-56 -11t-56 11t-45.5 30.5t-30.5 45.5t-11 56z" />
    <glyph glyph-name="afii10087" unicode="&#xb1;" horiz-adv-x="600" 
d="M47 78h506v-78h-506v78zM261 283h-214v78h214v145h78v-145h214v-78h-214v-145h-78v145z" />
    <glyph glyph-name="afii10088" unicode="&#xb5;" horiz-adv-x="537" 
d="M66 507h102v-302q0 -52 28.5 -80.5t72.5 -28.5q43 0 71.5 28.5t28.5 80.5v302h102v-507h-102v54h-2q-24 -30 -57.5 -45t-73.5 -15q-35 0 -68 15v-214h-102v712z" />
    <glyph glyph-name="afii10089" unicode="&#xb6;" horiz-adv-x="600" 
d="M258 334q-46 0 -84.5 14.5t-66.5 39.5t-43.5 59t-15.5 73q0 97 61.5 144.5t166.5 47.5h210v-897h-78v831h-72v-831h-78v519z" />
    <glyph glyph-name="afii10090" unicode="&#xb7;" horiz-adv-x="240" 
d="M53 292q0 28 19.5 47.5t47.5 19.5t47.5 -19.5t19.5 -47.5t-19.5 -47.5t-47.5 -19.5t-47.5 19.5t-19.5 47.5z" />
    <glyph glyph-name="afii10091" unicode="&#xaf;" horiz-adv-x="315" 
d="M13 673h288v-66h-288v66z" />
    <glyph glyph-name="afii10092" unicode="@" horiz-adv-x="800" 
d="M550 538h66l-80 -259q-5 -14 -7.5 -27t-2.5 -24q0 -13 5 -21t18 -8q21 0 45 20t44 51.5t33 69.5t13 74q0 49 -19.5 90.5t-55 71.5t-84.5 47t-108 17q-71 0 -127 -23t-94.5 -62t-59 -90t-20.5 -107q0 -60 21.5 -112.5t61.5 -91t96.5 -60.5t126.5 -22q90 0 149.5 24
t102.5 69h66q-51 -81 -137.5 -126t-192.5 -45q-80 0 -148 27t-117.5 75.5t-78 116t-28.5 147.5q0 79 28.5 144.5t79 113t118.5 74t148 26.5q72 0 135.5 -22t111.5 -62t75.5 -94.5t27.5 -120.5q0 -63 -23.5 -114.5t-58.5 -88t-74.5 -57t-71.5 -20.5q-70 0 -80 64h-2
q-10 -12 -21.5 -23.5t-26 -20.5t-34 -14.5t-44.5 -5.5q-31 0 -57 12t-45 33t-29.5 48.5t-10.5 58.5q0 49 17 98t48.5 88t75.5 63.5t98 24.5q35 0 65.5 -18t47.5 -60h2zM262 298q0 -41 24 -67t62 -26q33 0 61.5 21t49.5 52t33 67t12 65q0 17 -6 33t-17 28.5t-25.5 20
t-32.5 7.5q-35 0 -64.5 -20t-51 -50t-33.5 -65t-12 -66z" />
    <glyph glyph-name="afii10093" unicode="&#xa6;" horiz-adv-x="222" 
d="M72 675h78v-350h-78v350zM72 175h78v-350h-78v350z" />
    <glyph glyph-name="afii10094" unicode="&#x2020;" 
d="M192 420h-170v78h170v214h96v-214h170v-78h-170v-605h-96v605z" />
    <glyph glyph-name="afii10095" unicode="&#x2021;" 
d="M192 420h-170v78h170v214h96v-214h170v-78h-170v-313h170v-78h-170v-214h-96v214h-170v78h170v313z" />
    <glyph glyph-name="afii10096" horiz-adv-x="0" 
 />
    <glyph glyph-name="afii10097" horiz-adv-x="0" 
 />
    <glyph glyph-name="afii10071" unicode="$" 
d="M265 90q46 11 63.5 40.5t17.5 73.5q0 34 -16.5 61t-64.5 36v-211zM214 622q-29 -5 -50.5 -30t-21.5 -77q0 -35 15 -57.5t57 -36.5v201zM78 163q26 -29 57 -48.5t79 -24.5v223q-94 22 -134 72.5t-40 127.5q0 88 46.5 141.5t127.5 63.5v70h51v-70q50 -1 89.5 -17.5
t79.5 -49.5l-58 -76q-23 21 -52.5 33t-58.5 14v-213q96 -19 139.5 -74t43.5 -132q0 -42 -13 -77.5t-37 -62.5t-58 -45t-75 -24v-108h-51v108q-29 0 -57 7t-54.5 20t-50.5 30.5t-44 37.5z" />
    <glyph glyph-name="endash" unicode="&#x2013;" horiz-adv-x="616" 
d="M574 238h-532v84h532v-84z" />
    <glyph glyph-name="emdash" unicode="&#x2014;" horiz-adv-x="1004" 
d="M962 238h-920v84h920v-84z" />
    <glyph glyph-name="quoteleft" unicode="&#x2018;" horiz-adv-x="226" 
d="M64 635l98 75v-174h-98v99z" />
    <glyph glyph-name="quoteright" unicode="&#x2019;" horiz-adv-x="226" 
d="M162 611l-98 -75v174h98v-99z" />
    <glyph glyph-name="bullet" unicode="&#x2022;" horiz-adv-x="500" 
d="M72 356q0 37 14 69.5t38 56.5t56.5 38t69.5 14t69.5 -14t56.5 -38t38 -56.5t14 -69.5t-14 -69.5t-38 -56.5t-56.5 -38t-69.5 -14t-69.5 14t-56.5 38t-38 56.5t-14 69.5z" />
    <glyph glyph-name="ellipsis" unicode="&#x2026;" horiz-adv-x="710" 
d="M645 0h-100v106h100v-106zM405 0h-100v106h100v-106zM165 0h-100v106h100v-106z" />
    <glyph glyph-name="trademark" unicode="&#x2122;" horiz-adv-x="990" 
d="M836 634h-2l-132 -334h-51l-131 334h-2v-334h-78v412h122l115 -304l115 304h122v-412h-78v334zM164 640h-124v72h326v-72h-124v-340h-78v340z" />
    <glyph glyph-name="approxequal" unicode="&#x201c;" horiz-adv-x="326" 
d="M178 635l98 75v-174h-98v99zM49 635l98 75v-174h-98v99z" />
    <glyph glyph-name="notequal" unicode="&#x201d;" horiz-adv-x="326" 
d="M147 611l-98 -75v174h98v-99zM276 611l-98 -75v174h98v-99z" />
    <glyph glyph-name="glyph173" horiz-adv-x="233" 
 />
    <glyph glyph-name="glyph174" horiz-adv-x="233" 
 />
    <glyph glyph-name="nonbreakingspace" unicode="&#xa0;" horiz-adv-x="233" 
 />
    <glyph glyph-name="perthousand" unicode="&#x2030;" horiz-adv-x="759" 
d="M393 712h66l-337 -712h-66zM106 558q0 -49 37 -49t37 49v54q0 49 -37 49t-37 -49v-54zM49 619q0 26 8 45t21 31t30 17.5t35 5.5t35 -5.5t30 -17.5t21 -31t8 -45v-68q0 -26 -8 -45t-21 -31t-30 -17.5t-35 -5.5t-35 5.5t-30 17.5t-21 31t-8 45v68zM278 161q0 26 8 45t21 31
t30 17.5t35 5.5t35 -5.5t30 -17.5t21 -31t8 -45v-68q0 -26 -8 -45t-21 -31t-30 -17.5t-35 -5.5t-35 5.5t-30 17.5t-21 31t-8 45v68zM335 100q0 -49 37 -49t37 49v54q0 49 -37 49t-37 -49v-54zM579 100q0 -49 37 -49t37 49v54q0 49 -37 49t-37 -49v-54zM522 161q0 26 8 45
t21 31t30 17.5t35 5.5t35 -5.5t30 -17.5t21 -31t8 -45v-68q0 -26 -8 -45t-21 -31t-30 -17.5t-35 -5.5t-35 5.5t-30 17.5t-21 31t-8 45v68z" />
    <glyph glyph-name="onequarter" unicode="&#xbc;" horiz-adv-x="750" 
d="M122 630l-66 -44v84l66 44h84v-427h-84v343zM381 134l155 291h84l-152 -291h109v110h84v-110h33v-72h-33v-62h-84v62h-196v72zM533 729h66l-431 -746h-66z" />
    <glyph glyph-name="onehalf" unicode="&#xbd;" horiz-adv-x="750" 
d="M122 630l-66 -44v84l66 44h84v-427h-84v343zM412 72l176 188q11 11 16.5 22.5t5.5 25.5q0 23 -14.5 37t-40.5 14t-40 -16.5t-16 -45.5h-84q0 30 10.5 54.5t29 42.5t43.5 27.5t54 9.5q31 0 57.5 -9.5t45 -26.5t29 -39.5t10.5 -47.5q0 -21 -6.5 -40.5t-25.5 -39.5
l-148 -156h180v-72h-282v72zM508 729h66l-431 -746h-66z" />
    <glyph glyph-name="threequarters" unicode="&#xbe;" horiz-adv-x="750" 
d="M142 540h32q33 0 52.5 14.5t19.5 40.5q0 21 -17 36t-42 15q-23 0 -42 -13t-25 -39h-84q4 54 43 89t99 35q37 0 65 -10.5t47.5 -27.5t29.5 -39t10 -45q0 -24 -10.5 -47.5t-40.5 -40.5q31 -17 43.5 -42.5t12.5 -51.5q0 -60 -42.5 -95.5t-112.5 -35.5q-59 0 -98 29.5
t-49 90.5h84q8 -22 25 -35t43 -13q29 0 47.5 15.5t18.5 41.5q0 28 -21 45t-51 17h-37v66zM404 134l155 291h84l-152 -291h109v110h84v-110h33v-72h-33v-62h-84v62h-196v72zM586 729h66l-431 -746h-66z" />
    <glyph glyph-name="Euro" unicode="&#x20ac;" 
d="M442 586q-16 15 -44 26.5t-72 11.5q-62 0 -94 -40t-40 -115h218l-24 -78h-203v-33v-34h181l-24 -79h-148q8 -81 42 -119.5t92 -38.5q43 0 71 10.5t45 26.5v-100q-14 -11 -47 -20t-85 -9q-91 0 -147.5 59t-72.5 191h-70l24 79h38q-1 7 -1 16v18v16.5t1 16.5h-62l24 78h44
q14 118 68 183t154 65q48 0 82.5 -11t49.5 -22v-98z" />
    <glyph glyph-name="cent" unicode="&#xa2;" 
d="M243 -6q-41 3 -78.5 19.5t-66.5 48t-46.5 79t-17.5 112.5q0 66 17.5 113.5t46.5 79t66.5 48t78.5 19.5v91h40v-91q54 -6 94 -29.5t69 -58.5l-75 -67q-16 20 -37.5 33.5t-50.5 19.5v-315q29 6 50.5 19.5t37.5 33.5l75 -67q-29 -35 -69 -58.5t-94 -29.5v-91h-40v91z
M243 411q-51 -8 -79 -45.5t-28 -112.5t28 -112t79 -45v315z" />
    <glyph glyph-name="exclamdown" unicode="&#xa1;" horiz-adv-x="270" 
d="M75 0l34 530h52l34 -530h-120zM87 700h96v-96h-96v96z" />
    <glyph glyph-name="cedilla" unicode="&#xb8;" horiz-adv-x="240" 
d="M156 0l-44 -60h2q5 2 12 3t15 1q42 0 65 -22.5t23 -53.5q0 -24 -10 -41.5t-27 -29.5t-39.5 -17.5t-46.5 -5.5q-23 0 -49.5 7t-51.5 17l18 42q17 -6 34.5 -10.5t35.5 -4.5q26 0 42 9.5t16 32.5q0 19 -14.5 28t-34.5 9t-38 -11l-22 19l63 88h51z" />
    <glyph glyph-name="Ccedilla" unicode="&#xc7;" horiz-adv-x="626" 
d="M571 197q-16 -94 -83 -150.5t-163 -56.5q-115 0 -184 79q-66 75 -66 191v183q0 118 65 192q69 78 185 78q94 0 162.5 -57t83.5 -150h-107q-10 37 -36 64q-41 43 -103 43q-73 0 -111 -52q-33 -46 -33 -122v-175q0 -75 33 -121q39 -53 111 -53q50 0 88 29t51 78h107zM360 0
l-44 -60h2q5 2 12 3t15 1q42 0 65 -22.5t23 -53.5q0 -24 -10 -41.5t-27 -29.5t-39.5 -17.5t-46.5 -5.5q-23 0 -49.5 7t-51.5 17l18 42q17 -6 34.5 -10.5t35.5 -4.5q26 0 42 9.5t16 32.5q0 19 -14.5 28t-34.5 9t-38 -11l-22 19l63 88h51z" />
    <glyph glyph-name="Ccedilla" unicode="&#xe7;" horiz-adv-x="626" 
d="M571 197q-16 -94 -83 -150.5t-163 -56.5q-115 0 -184 79q-66 75 -66 191v183q0 118 65 192q69 78 185 78q94 0 162.5 -57t83.5 -150h-107q-10 37 -36 64q-41 43 -103 43q-73 0 -111 -52q-33 -46 -33 -122v-175q0 -75 33 -121q39 -53 111 -53q50 0 88 29t51 78h107zM360 0
l-44 -60h2q5 2 12 3t15 1q42 0 65 -22.5t23 -53.5q0 -24 -10 -41.5t-27 -29.5t-39.5 -17.5t-46.5 -5.5q-23 0 -49.5 7t-51.5 17l18 42q17 -6 34.5 -10.5t35.5 -4.5q26 0 42 9.5t16 32.5q0 19 -14.5 28t-34.5 9t-38 -11l-22 19l63 88h51z" />
    <glyph glyph-name="Ntilde" unicode="&#xd1;" horiz-adv-x="684" 
d="M164 757q7 52 37.5 84t75.5 32q19 0 36.5 -6t34.5 -13t33.5 -13t31.5 -6q14 0 28 8t19 36h60q-4 -23 -12.5 -43.5t-21.5 -37t-32 -26t-44 -9.5q-19 0 -38.5 6t-38 12.5l-35.5 12.5t-32 6q-6 0 -13 -2t-13.5 -7t-11 -13.5t-4.5 -20.5h-60zM75 712h102l322 -506h2v506h108
v-712h-102l-322 506h-2v-506h-108v712z" />
    <glyph glyph-name="Ntilde" unicode="&#xf1;" horiz-adv-x="684" 
d="M164 757q7 52 37.5 84t75.5 32q19 0 36.5 -6t34.5 -13t33.5 -13t31.5 -6q14 0 28 8t19 36h60q-4 -23 -12.5 -43.5t-21.5 -37t-32 -26t-44 -9.5q-19 0 -38.5 6t-38 12.5l-35.5 12.5t-32 6q-6 0 -13 -2t-13.5 -7t-11 -13.5t-4.5 -20.5h-60zM75 712h102l322 -506h2v506h108
v-712h-102l-322 506h-2v-506h-108v712z" />
    <glyph glyph-name="tilde" unicode="&#x2dc;" horiz-adv-x="430" 
d="M37 598q7 52 37.5 84t75.5 32q19 0 36.5 -6t34.5 -13t33.5 -13t31.5 -6q14 0 28 8t19 36h60q-4 -23 -12.5 -43.5t-21.5 -37t-32 -26t-44 -9.5q-19 0 -38.5 6t-38 12.5l-35.5 12.5t-32 6q-6 0 -13 -2t-13.5 -7t-11 -13.5t-4.5 -20.5h-60z" />
    <glyph glyph-name="circumflex" unicode="&#x2c6;" horiz-adv-x="430" 
d="M52 579h96l67 86l67 -86h96l-106 146h-114z" />
  </font>
</defs>
</svg>
