<?xml version="1.0" encoding="utf-8"?>
<!-- Svg Vector Icons : http://www.onlinewebfonts.com/icon -->
<!DOCTYPE svg PUBLIC "-//W3C//DTD SVG 1.1//EN" "http://www.w3.org/Graphics/SVG/1.1/DTD/svg11.dtd">
<svg version="1.1" xmlns="http://www.w3.org/2000/svg" xmlns:xlink="http://www.w3.org/1999/xlink" x="0px" y="0px" viewBox="0 0 256 256" enable-background="new 0 0 256 256" xml:space="preserve">
<metadata> Svg Vector Icons : http://www.onlinewebfonts.com/icon </metadata>
<g><g><g><path fill="#999999" d="M70,34.6C38.8,48.1,12.6,59.4,11.7,59.8l-1.5,0.7L10,127.9c-0.1,66.3-0.1,67.4,0.9,68c4.6,2.4,116.6,50.2,117.4,50.1c0.6-0.1,16-6.7,34.4-14.6c18.4-7.9,44.6-19.2,58.3-25.1l24.9-10.7l0.2-67.3c0-37-0.1-67.5-0.3-67.7c-0.3-0.3-13-5.8-28.4-12.5c-15.4-6.6-30.6-13.3-33.8-14.8c-3.3-1.5-6.2-2.8-6.5-2.8c-0.4,0-11.5-4.6-24.6-10.3C139.2,14.6,128.1,10,127.6,10C127.1,10,101.2,21.1,70,34.6z M150,24c11.7,5.1,21.2,9.2,21.1,9.3C171,33.4,146.3,44,116.1,57l-55,23.5l-21.6-9.2c-11.8-5.1-21.5-9.2-21.4-9.3c0.6-0.6,109.7-47.3,110.1-47.2C128.6,14.8,138.3,19,150,24z M184.2,38.9c2.3,1.1,4,2.1,3.8,2.3c-0.3,0.3-105.1,45.2-108.5,46.5c-0.7,0.3-12.2-4.3-12.2-4.9c0-0.2,24.7-10.8,54.9-23.7c52.5-22.4,54.9-23.4,56.4-22.8C179.3,36.7,181.9,37.8,184.2,38.9z M216.8,52.8c20.2,8.7,21.3,9.2,19.9,9.8c-0.8,0.3-25.6,10.9-55.2,23.5L127.8,109l-21.5-9.1c-11.8-5.1-21.3-9.3-21.1-9.5c0.2-0.2,22.4-9.8,49.3-21.3c26.9-11.5,51.2-21.9,54-23.1c2.8-1.2,5.5-2.2,6-2.2C195.1,43.6,205.1,47.8,216.8,52.8z M37.1,75.3l22.3,9.5l0.2,15.9c0.1,9.5,0.3,16.2,0.6,16.5c0.3,0.4,4.5,2.4,9.3,4.5c9.8,4.4,10.3,4.4,10.8,1c0.2-1.1,0.3-8,0.2-15.4c-0.1-7.4,0-13.4,0.1-13.4s10.2,4.3,22.4,9.5l22.3,9.5l0.2,63.8l0.1,63.9l-2.6-1.2c-1.5-0.7-26.5-11.4-55.5-24l-52.9-22.8v-63.5c0-34.9,0.1-63.5,0.2-63.5C14.8,65.7,24.9,70,37.1,75.3z M241.6,129.2v63.5l-55.6,23.9l-55.7,23.9l-0.2-63.6c0-35,0-63.7,0.1-63.8c0.3-0.3,110.5-47.2,111-47.3C241.4,65.7,241.6,94.3,241.6,129.2z M71.9,90.1l4.4,1.9v13.8c0,10.7-0.2,13.8-0.6,13.7c-0.4,0-3-1.1-5.9-2.4l-5.3-2.4l-0.2-13.9l-0.1-13.9l1.6,0.7C66.7,87.9,69.4,89.1,71.9,90.1z"/><path fill="#999999" d="M27.3,150.5c-0.7,0.7-0.8,3-0.8,17.7c0,15.5,0.1,17,0.9,17.7c1.5,1.4,50.2,22.1,51.5,21.9c1.1-0.2,1.2-0.5,1.4-3.7c0.4-5.4,0.2-32.5-0.4-32.9c-0.6-0.6-50.4-21.6-51.2-21.6C28.4,149.7,27.7,150,27.3,150.5z M54.2,164.9l21.9,9.2l0.2,14.2c0.1,11.3,0,14.1-0.5,13.9c-4-1.6-43.5-18.7-44-19.1c-0.5-0.4-0.7-3.8-0.7-14.2c0-10.8,0.2-13.7,0.7-13.5C32,155.6,42.2,159.9,54.2,164.9z"/><path fill="#999999" d="M168.2,108.4l-25.4,11l-0.2,51l-0.1,51.1l1.3,0.3c1,0.3,7.3-2.2,26-10.1c13.6-5.8,25.1-10.8,25.6-11.2c0.8-0.7,0.9-3.8,0.9-51.1c0-45.1-0.1-50.4-0.8-51.1c-0.4-0.5-1.1-0.8-1.4-0.8C193.8,97.4,182.2,102.4,168.2,108.4z M191.8,150.4v46.9l-1.1,0.6c-1.2,0.6-43.6,18.5-44,18.5c-0.1,0-0.2-21.2-0.1-47l0.2-47l21.9-9.4c12-5.2,22.2-9.5,22.5-9.5C191.7,103.4,191.8,113.1,191.8,150.4z"/><path fill="#999999" d="M168.5,124.4c-6.9,3-12.9,5.6-13.2,5.8c-0.8,0.5-0.8,2.5,0,3.3c0.4,0.4,1,0.6,1.5,0.6c1.8,0,26.6-10.7,27.1-11.7c0.7-1.2-0.7-3.4-2-3.4C181.4,119.1,175.3,121.5,168.5,124.4z"/><path fill="#999999" d="M163.7,139c-8.6,3.8-8.8,3.9-8.9,5.5c-0.1,1.2,0.1,1.7,0.9,2.2c0.9,0.5,2.4,0,9.4-3c4.6-2,8.9-3.9,9.5-4.3c2-1.3,1.2-4.3-1.1-4.2C172.9,135.1,168.5,136.9,163.7,139z"/><path fill="#999999" d="M168.6,149.4c-6.9,2.9-12.8,5.5-13.2,5.8c-1.4,1.2-0.6,4,1.3,4c0.7,0,16.6-6.5,24.3-9.9c1.7-0.8,3-1.7,3.2-2.3c0.4-1.1-1.1-2.9-2.3-2.9C181.4,144.1,175.4,146.5,168.6,149.4z"/><path fill="#999999" d="M159.9,165.6c-5,2.2-5.4,2.5-5.2,4.1c0.4,2.8,2.3,2.7,8.9-0.6c3.4-1.6,4.3-3,3-4.6C165.8,163.4,164.3,163.6,159.9,165.6z"/><path fill="#999999" d="M163.9,176.2c-8.3,3.8-8.5,3.9-8.7,5.5c-0.2,1.3,0.1,1.7,1,2.1c1,0.5,2.5-0.1,9.7-3.3c4.7-2.1,8.8-4.1,9.1-4.4c0.8-0.7,0.9-2.5,0.1-3.3C174.1,171.8,172.7,172.3,163.9,176.2z"/><path fill="#999999" d="M168.5,186.6c-6.9,2.9-12.8,5.5-13.2,5.8c-1.5,1.2-0.5,4,1.3,4c0.4,0,6.6-2.5,13.8-5.5c13.9-5.8,14.9-6.5,13.1-8.6c-0.5-0.6-1.3-1-1.7-1C181.4,181.3,175.4,183.7,168.5,186.6z"/></g></g></g>
</svg>