<?xml version="1.0" encoding="UTF-8"?>
<!DOCTYPE svg PUBLIC "-//W3C//DTD SVG 1.1//EN" "http://www.w3.org/Graphics/SVG/1.1/DTD/svg11.dtd">
<!-- Creator: CorelDRAW -->
<svg xmlns="http://www.w3.org/2000/svg" xml:space="preserve" width="23.4527mm" height="23.4527mm" version="1.1" style="shape-rendering:geometricPrecision; text-rendering:geometricPrecision; image-rendering:optimizeQuality; fill-rule:evenodd; clip-rule:evenodd"
viewBox="0 0 414.31 414.31"
 xmlns:xlink="http://www.w3.org/1999/xlink"
 xmlns:xodm="http://www.corel.com/coreldraw/odm/2003">
 <defs>
  <style type="text/css">
   <![CDATA[
    .fil0 {fill:#31D59B}
    .fil1 {fill:white;fill-rule:nonzero}
   ]]>
  </style>
 </defs>
 <g id="Слой_x0020_1">
  <metadata id="CorelCorpID_0Corel-Layer"/>
  <path class="fil0" d="M207.59 0l206.72 0 0 207.16c0,113.94 -93.22,207.15 -207.16,207.15l-0.43 0c-113.7,0 -206.72,-93.02 -206.72,-206.72l0 -0c0,-114.17 93.41,-207.59 207.59,-207.59z"/>
  <path class="fil1" d="M129.67 250.06c21.06,0 31.41,-9.97 31.41,-26.67 0,-15.83 -8.1,-21.56 -22.06,-25.3l-7.48 -1.99c-8.1,-2.12 -10.84,-4.74 -10.84,-10.72 0,-6.48 4.74,-9.97 13.46,-9.97 9.6,0 16.58,2.37 22.31,4.36l0 -13.34c-4.99,-2.49 -11.47,-4.61 -23.43,-4.61 -19.69,0 -29.29,10.1 -29.29,24.8 0,15.83 7.85,21.81 20.19,25.05l7.73 1.99c9.1,2.37 11.97,4.86 11.97,11.59 0,6.73 -4.74,11.22 -15.58,11.22 -9.47,0 -17.57,-2.24 -24.55,-5.23l0 13.59c5.98,3.12 14.71,5.23 26.17,5.23zm71.53 -1.37l17.57 0 0 -72.17 24.06 0 0 -13.34 -65.44 0 0 13.34 23.81 0 0 72.17zm82.38 0l17.57 0 0 -72.17 24.06 0 0 -13.34 -65.44 0 0 13.34 23.81 0 0 72.17z"/>
 </g>
</svg>
