<svg viewBox="0 0 104 104" fill="none" xmlns="http://www.w3.org/2000/svg">
<g clip-path="url(#clip0_544_20)">
<path opacity="0.948" fill-rule="evenodd" clip-rule="evenodd" d="M32.3984 -0.101562C52.0339 -0.101562 71.6692 -0.101562 91.3047 -0.101562C98.1433 1.45573 102.341 5.65364 103.898 12.4922C103.898 19.4661 103.898 26.4402 103.898 33.4141C103.26 34.1738 102.448 34.4108 101.461 34.125C98.3688 32.748 95.2542 31.4277 92.1172 30.1641C89.3986 31.2169 86.7242 32.3678 84.0938 33.6172C84.0261 52.8464 83.9583 72.0755 83.8906 91.3047C82.3964 98.1817 78.2324 102.379 71.3984 103.898C51.763 103.898 32.1277 103.898 12.4922 103.898C5.65364 102.341 1.45573 98.1433 -0.101562 91.3047C-0.101562 85.4141 -0.101562 79.5234 -0.101562 73.6328C0.489539 72.9318 1.23433 72.6948 2.13281 72.9219C5.3235 74.2901 8.5058 75.6781 11.6797 77.0859C15.0225 75.5495 18.408 74.1276 21.8359 72.8203C25.2639 74.1276 28.6494 75.5495 31.9922 77.0859C35.335 75.5495 38.7205 74.1276 42.1484 72.8203C45.5764 74.1276 48.9619 75.5495 52.3047 77.0859C55.4785 75.6781 58.6609 74.2901 61.8516 72.9219C63.4786 72.6867 64.2234 73.3976 64.0859 75.0547C65.9829 75.021 67.8789 75.0547 69.7734 75.1562C70.8118 75.8491 71.0487 76.7632 70.4844 77.8984C70.301 78.1424 70.0641 78.3118 69.7734 78.4062C67.8789 78.5078 65.9829 78.5415 64.0859 78.5078C64.0859 80.2683 64.0859 82.0286 64.0859 83.7891C66.063 83.7096 68.0266 83.8112 69.9766 84.0938C70.812 84.8065 70.9812 85.6529 70.4844 86.6328C70.2165 87.0364 69.8441 87.2735 69.3672 87.3438C67.6081 87.4453 65.8476 87.479 64.0859 87.4453C64.0614 92.197 66.3634 94.1945 70.9922 93.4375C73.0048 92.2242 74.0543 90.43 74.1406 88.0547C75.1656 86.9733 76.1812 86.9733 77.1875 88.0547C77.5639 92.6118 75.5666 95.6247 71.1953 97.0938C66.09 97.9444 62.6706 95.9471 60.9375 91.1016C60.6799 86.5048 60.5445 81.9006 60.5312 77.2891C57.8457 78.5791 55.1035 79.7302 52.3047 80.7422C48.8579 79.48 45.4724 78.0581 42.1484 76.4766C38.8056 78.013 35.4201 79.4349 31.9922 80.7422C28.5643 79.4349 25.1788 78.013 21.8359 76.4766C18.4931 78.013 15.1077 79.4349 11.6797 80.7422C8.88091 79.7302 6.13872 78.5791 3.45312 77.2891C3.3177 81.6902 3.3177 86.0911 3.45312 90.4922C4.39711 95.4314 7.27472 98.6475 12.0859 100.141C31.5798 100.476 51.0798 100.544 70.5859 100.344C76.0352 99.2278 79.3191 95.9439 80.4375 90.4922C80.4399 64.5547 80.5754 38.6224 80.8438 12.6953C82.5768 7.84983 85.9962 5.85244 91.1016 6.70312C94.1824 7.61719 96.1797 9.61458 97.0938 12.6953C97.486 15.9516 97.486 19.2016 97.0938 22.4453C95.9806 23.57 94.965 23.5024 94.0469 22.2422C93.7865 19.3446 93.651 16.4331 93.6406 13.5078C92.2705 10.2741 89.9346 9.29232 86.6328 10.5625C85.1147 11.5393 84.2684 12.9274 84.0938 14.7266C83.9583 19.737 83.9583 24.7473 84.0938 29.7578C86.7072 28.4682 89.3817 27.3171 92.1172 26.3047C94.8716 27.3433 97.5798 28.4942 100.242 29.7578C100.479 24.2747 100.513 18.7903 100.344 13.3047C99.6751 9.09068 97.4068 6.07766 93.5391 4.26562C92.5555 3.87002 91.5399 3.59917 90.4922 3.45312C71.3984 3.3177 52.3047 3.3177 33.2109 3.45312C27.7617 4.56911 24.4778 7.85295 23.3594 13.3047C23.2917 31.7214 23.2239 50.138 23.1562 68.5547C22.6781 69.6912 21.8317 70.0635 20.6172 69.6719C20.3801 69.4348 20.1432 69.198 19.9062 68.9609C19.7708 50.138 19.7708 31.3152 19.9062 12.4922C21.4004 5.61527 25.5645 1.41736 32.3984 -0.101562Z" fill="url(#paint0_linear_544_20)"/>
<path opacity="0.943" fill-rule="evenodd" clip-rule="evenodd" d="M35.1399 13.1016C45.6902 13.0677 56.2397 13.1016 66.7883 13.2031C68.9442 13.8869 69.4366 14.8009 68.2652 15.9453C67.8842 16.1893 67.3922 16.3586 66.7883 16.4531C56.2389 16.5885 45.6894 16.5885 35.1399 16.4531C33.2119 15.9369 32.579 15.1583 33.241 14.1172C33.8175 13.739 34.4504 13.4005 35.1399 13.1016Z" fill="url(#paint1_linear_544_20)"/>
<path opacity="0.903" fill-rule="evenodd" clip-rule="evenodd" d="M36.406 21.836C46.1123 21.802 55.8178 21.836 65.5225 21.9375C68.4932 22.2187 69.5482 23.0651 68.6873 24.4766C68.1058 25.0063 67.1914 25.311 65.9445 25.3907C55.9575 25.5261 45.971 25.5261 35.984 25.3907C33.1736 24.8849 32.4001 23.9708 33.6631 22.6485C34.4193 22.2162 35.3333 21.9455 36.406 21.836Z" fill="url(#paint2_linear_544_20)"/>
<path opacity="0.945" fill-rule="evenodd" clip-rule="evenodd" d="M35.5619 30.7735C45.8312 30.7395 56.0992 30.7735 66.3663 30.875C68.7273 31.3532 69.5008 32.1996 68.6872 33.4141C68.1948 33.6511 67.7027 33.888 67.2103 34.125C56.5203 34.2605 45.8299 34.2605 35.1399 34.125C33.2119 33.6089 32.579 32.8301 33.241 31.7891C33.8343 31.3333 34.6078 30.9949 35.5619 30.7735Z" fill="url(#paint3_linear_544_20)"/>
<path opacity="0.946" fill-rule="evenodd" clip-rule="evenodd" d="M35.1399 39.711C45.8312 39.677 56.5211 39.711 67.2103 39.8125C68.8041 40.4128 69.2961 41.1913 68.6872 42.1485C68.2192 42.6187 67.4453 42.9234 66.3663 43.0625C56.0983 43.198 45.8299 43.198 35.5619 43.0625C33.087 42.4544 32.454 41.5403 33.663 40.3203C34.1462 40.0896 34.6386 39.8865 35.1399 39.711Z" fill="url(#paint4_linear_544_20)"/>
<path opacity="0.947" fill-rule="evenodd" clip-rule="evenodd" d="M35.9839 48.4453C46.1122 48.4114 56.2397 48.4453 66.3663 48.5469C68.726 49.0348 69.4995 49.8812 68.6872 51.086C68.1948 51.323 67.7027 51.5599 67.2103 51.7969C56.5203 51.9324 45.8299 51.9324 35.1399 51.7969C33.0153 51.1849 32.5228 50.3385 33.663 49.2578C34.296 48.8579 35.0695 48.5871 35.9839 48.4453Z" fill="url(#paint5_linear_544_20)"/>
<path opacity="0.944" fill-rule="evenodd" clip-rule="evenodd" d="M35.14 57.3828C45.6903 57.3489 56.2397 57.3828 66.7883 57.4844C68.9442 58.1681 69.4367 59.0822 68.2653 60.2266C67.8842 60.4705 67.3922 60.64 66.7883 60.7344C56.2389 60.8699 45.6894 60.8699 35.14 60.7344C32.3511 59.6079 32.3511 58.4907 35.14 57.3828Z" fill="url(#paint6_linear_544_20)"/>
</g>
<defs>
<linearGradient id="paint0_linear_544_20" x1="12.3789" y1="87.5916" x2="98.4667" y2="20.6944" gradientUnits="userSpaceOnUse">
<stop stop-color="#5951B4"/>
<stop offset="0.475" stop-color="#9B4DC3"/>
<stop offset="1" stop-color="#F18FF1"/>
</linearGradient>
<linearGradient id="paint1_linear_544_20" x1="5.49999" y1="99.5" x2="101" y2="5.49999" gradientUnits="userSpaceOnUse">
<stop stop-color="#7876BC"/>
<stop offset="1" stop-color="#EFA5F0"/>
</linearGradient>
<linearGradient id="paint2_linear_544_20" x1="4.5" y1="99" x2="101.5" y2="6.50003" gradientUnits="userSpaceOnUse">
<stop stop-color="#7876BC"/>
<stop offset="1" stop-color="#EFA5F0"/>
</linearGradient>
<linearGradient id="paint3_linear_544_20" x1="3.5" y1="100" x2="101.5" y2="6.50003" gradientUnits="userSpaceOnUse">
<stop stop-color="#7876BC"/>
<stop offset="1" stop-color="#EFA5F0"/>
</linearGradient>
<linearGradient id="paint4_linear_544_20" x1="4.00001" y1="98.5" x2="101.5" y2="6.00004" gradientUnits="userSpaceOnUse">
<stop stop-color="#7876BC"/>
<stop offset="0.489055" stop-color="#B28DD5"/>
<stop offset="1" stop-color="#EFA5F0"/>
</linearGradient>
<linearGradient id="paint5_linear_544_20" x1="4.00001" y1="99" x2="100.5" y2="6.00004" gradientUnits="userSpaceOnUse">
<stop stop-color="#7876BC"/>
<stop offset="1" stop-color="#EFA5F0"/>
</linearGradient>
<linearGradient id="paint6_linear_544_20" x1="2.99999" y1="99.5" x2="100.5" y2="5.50003" gradientUnits="userSpaceOnUse">
<stop stop-color="#7876BC"/>
<stop offset="1" stop-color="#EFA5F0"/>
</linearGradient>
<clipPath id="clip0_544_20">
<rect width="104" height="104" fill="white"/>
</clipPath>
</defs>
</svg>
