<?xml version="1.0" encoding="iso-8859-1"?>
<!-- Uploaded to: SVG Repo, www.svgrepo.com, Generator: SVG Repo Mixer Tools -->
<!DOCTYPE svg PUBLIC "-//W3C//DTD SVG 1.1//EN" "http://www.w3.org/Graphics/SVG/1.1/DTD/svg11.dtd">
<svg fill="#000000" version="1.1" id="Capa_1" xmlns="http://www.w3.org/2000/svg" xmlns:xlink="http://www.w3.org/1999/xlink"
	 viewBox="0 0 490.922 490.922" xml:space="preserve">
<g>
	<path d="M419.005,72.428C301.22-45.357,161.88,8.52,112.232,40.41L92.157,20.336c-5.725-5.725-14.305-7.434-21.77-4.324
		c-7.439,3.08-12.316,10.34-12.307,18.443l0.031,88.262c0,5.502,2.242,10.488,5.85,14.098c3.617,3.617,8.607,5.861,14.102,5.854
		l88.225-0.006c8.127,0.02,15.377-4.855,18.455-12.295c3.098-7.498,1.383-16.062-4.326-21.771l-9.877-9.877
		c72.988-37.19,154.617-7.344,192.068,30.105c48.74,48.742,60.662,120.547,35.836,180.604l14.455,0.006
		c15.963-0.004,30.994,6.221,42.299,17.525c5.957,5.957,10.395,12.984,13.371,20.605
		C509.632,257.096,493.304,146.727,419.005,72.428z"/>
	<path d="M412.88,349.307l-88.242-0.025c-8.109-0.02-15.375,4.869-18.457,12.303c-3.096,7.465-1.396,16.041,4.326,21.764
		l9.877,9.877c-13.186,6.74-111.818,50.156-192.074-30.1c-48.736-48.736-60.65-120.523-35.84-180.582l-14.404-0.008
		c-15.943,0.027-30.973-6.188-42.305-17.52c-5.969-5.969-10.422-13.024-13.395-20.678C-18.72,234.807-2.38,345.211,71.921,419.512
		c55.902,55.902,132.193,78.625,205.127,69.426c50.215-6.332,89.965-29.609,101.781-37.268l19.938,19.938
		c5.709,5.709,14.275,7.422,21.77,4.332c7.441-3.072,12.32-10.336,12.307-18.451V369.27c0.004-5.514-2.232-10.496-5.846-14.109
		C423.38,351.543,418.394,349.303,412.88,349.307z"/>
	<path d="M287.351,175.51c-2.504-6.064-8.416-10.037-15.004-10.037c0,0-0.029,0-0.049,0l-72.145,0.008
		c-8.98,0.016-16.311,7.334-16.295,16.313v72.119c-0.016,6.621,3.959,12.557,10.029,15.068c2.037,0.832,4.148,1.242,6.266,1.242
		c4.248,0,8.432-1.662,11.533-4.779l18.557-18.555l11.691,11.691l47.922,47.936c4.84,4.844,11.189,7.264,17.539,7.264
		c6.344,0,12.693-2.42,17.539-7.264c9.686-9.684,9.686-25.391,0-35.08l-47.922-47.934l-11.693-11.695l18.496-18.498
		C288.511,188.625,289.886,181.605,287.351,175.51z"/>
</g>
</svg>