<svg width="26" height="26" viewBox="0 0 26 26" fill="none" xmlns="http://www.w3.org/2000/svg">
<path opacity="0.987" d="M12.1353 16.971L4.08485 24.9689C3.46175 25.2584 2.94289 25.3154 2.50439 25.2058C2.05793 25.0942 1.62033 24.7912 1.20214 24.2237C0.86092 23.51 0.870704 22.8288 1.23165 22.1319L9.23756 14.0733L17.2954 5.96244L18.1422 5.11004L16.9407 5.11004L14.5287 5.11004L12.1682 5.11004C11.6919 5.00698 11.3214 4.81991 11.0368 4.5624C10.7486 4.30169 10.5248 3.94737 10.377 3.47764C10.2649 2.82366 10.3968 2.24829 10.7755 1.72072C11.0569 1.44026 11.3774 1.21832 11.7391 1.0533C12.1286 0.977237 12.5223 0.931135 12.9205 0.914895C16.3402 0.932464 19.7571 0.914944 23.171 0.862279C23.9575 0.957873 24.5556 1.33048 24.9983 2.0047C25.1441 2.2516 25.2421 2.51302 25.2938 2.79123L25.2938 13.0762C25.2774 13.5463 25.2304 14.0123 25.1528 14.4741C24.8946 15.0308 24.5685 15.3912 24.1927 15.6022C23.8131 15.8153 23.3328 15.9041 22.7203 15.8282C22.2558 15.6804 21.9049 15.4578 21.6462 15.1718C21.3887 14.8872 21.2016 14.5167 21.0986 14.0404V14.0355L21.0986 14.026V14.0166V14.0072V13.9978V13.9884V13.9789L21.0986 13.9695V13.9601V13.9507V13.9412L21.0986 13.9318V13.9224V13.913V13.9036V13.8941V13.8847V13.8753L21.0986 13.8659V13.8564V13.847V13.8376V13.8282L21.0986 13.8188V13.8093V13.7999V13.7905V13.7811V13.7716V13.7622L21.0986 13.7528V13.7434V13.734V13.7245V13.7151V13.7057L21.0986 13.6963V13.6868V13.6774V13.668V13.6586V13.6492V13.6397V13.6303L21.0986 13.6209V13.6115V13.602V13.5926V13.5832V13.5738L21.0986 13.5644V13.5549V13.5455V13.5361V13.5267V13.5172V13.5078V13.4984V13.489V13.4796L21.0986 13.4701V13.4607V13.4513V13.4419V13.4324V13.423V13.4136V13.4042L21.0986 13.3948V13.3853V13.3759V13.3665V13.3571V13.3476V13.3382V13.3288V13.3194L21.0986 13.31V13.3005V13.2911V13.2817V13.2723V13.2628V13.2534V13.244V13.2346L21.0986 13.2252V13.2157V13.2063V13.1969L21.0986 13.1875V13.178V13.1686V13.1592V13.1498V13.1404V13.1309V13.1215V13.1121V13.1027L21.0986 13.0933V13.0838V13.0744V13.065V13.0556V13.0461V13.0367V13.0273V13.0179V13.0085V12.999V12.9896V12.9802V12.9708V12.9613V12.9519V12.9425V12.9331L21.0986 12.9237V12.9142V12.9048V12.8954V12.886V12.8765V12.8671L21.0986 12.8577V12.8483V12.8389V12.8294V12.82V12.8106V12.8012V12.7917V12.7823V12.7729V12.7635V12.7541V12.7446V12.7352V12.7258V12.7164V12.7069V12.6975V12.6881V12.6787V12.6693L21.0986 12.6598V12.6504V12.641V12.6316V12.6221V12.6127V12.6033V12.5939V12.5845V12.575V12.5656V12.5562V12.5468V12.5373V12.5279V12.5185V12.5091V12.4997V12.4902V12.4808V12.4714V12.462V12.4526V12.4431V12.4337V12.4243V12.4149V12.4054V12.396V12.3866V12.3772V12.3678V12.3583V12.3489V12.3395V12.3301V12.3206V12.3112V12.3018V12.2924V12.283V12.2735V12.2641V12.2547V12.2453V12.2358V12.2264V12.217V12.2076V12.1982V12.1887V12.1793V12.1699V12.1605V12.151V12.1416V12.1322V12.1228V12.1134V12.1039V12.0945V12.0851V12.0757V12.0662V12.0568V12.0474V12.038V12.0286V12.0191V12.0097V12.0003V11.9909V11.9815V11.972V11.9626V11.9532V11.9438V11.9343V11.9249V11.9155V11.9061V11.8967V11.8872V11.8778V11.8684V11.859V11.8495V11.8401V11.8307V11.8213V11.8119V11.8024V11.793V11.7836V11.7742V11.7647V11.7553L21.0986 11.7459V11.7365V11.7271V11.7176V11.7082V11.6988V11.6894V11.6799V11.6705V11.6611V11.6517V11.6423V11.6328V11.6234V11.614V11.6046V11.5951V11.5857V11.5763V11.5669V11.5575V11.548V11.5386V11.5292V11.5198V11.5104V11.5009V11.4915V11.4821V11.4727V11.4632V11.4538V11.4444V11.435V11.4256V11.4161V11.4067V11.3973V11.3879V11.3784V11.369V11.3596V11.3502V11.3408V11.3313V11.3219V11.3125V11.3031V11.2936V11.2842V11.2748V11.2654V11.256V11.2465V11.2371V11.2277V11.2183V11.2088V11.1994V11.19V11.1806V11.1712V11.1617V11.1523V11.1429V11.1335V11.124V11.1146V11.1052V11.0958V11.0864V11.0769V11.0675V11.0581V11.0487V11.0392V11.0298V11.0204V11.011V11.0016V10.9921V10.9827V10.9733V10.9639V10.9545V10.945V10.9356V10.9262V10.9168V10.9073V10.8979V10.8885V10.8791V10.8697V10.8602V10.8508V10.8414V10.832V10.8225V10.8131V10.8037V10.7943V10.7849V10.7754V10.766V10.7566V10.7472V10.7377V10.7283V10.7189V10.7095V10.7001V10.6906V10.6812V10.6718V10.6624V10.6529V10.6435V10.6341L21.0986 10.6247V10.6153V10.6058V10.5964V10.587V10.5776V10.5681V10.5587V10.5493V10.5399V10.5305V10.521V10.5116V10.5022V10.4928V10.4834V10.4739V10.4645V10.4551V10.4457V10.4362V10.4268V10.4174V10.408V10.3986L21.0986 10.3891V10.3797V10.3703V10.3609V10.3514V10.342L21.0986 10.3326V10.3232V10.3138V10.3043V10.2949V10.2855V10.2761V10.2666V10.2572V10.2478V10.2384L21.0986 10.229V10.2195V10.2101V10.2007V10.1913V10.1818V10.1724V10.163V10.1536V10.1442V10.1347V10.1253V10.1159L21.0986 10.1065V10.097V10.0876V10.0782L21.0986 10.0688V10.0594V10.0499V10.0405V10.0311V10.0217V10.0122L21.0986 10.0028V9.9934V9.98398V9.97456V9.96513V9.95571V9.94629V9.93687V9.92745V9.91802L21.0986 9.9086V9.89918V9.88976L21.0986 9.88033V9.87091V9.86149V9.85207V9.84265V9.83322L21.0986 9.8238V9.81438V9.80496V9.79554V9.78611V9.77669V9.76727V9.75785L21.0986 9.74842V9.739L21.0986 9.72958V9.72016V9.71074V9.70131V9.69189L21.0986 9.68247V9.67305V9.66362V9.6542V9.64478V9.63536V9.62594L21.0986 9.61651V9.60709L21.0986 9.59767V9.58825V9.57882V9.5694L21.0986 9.55998V9.55056V9.54114V9.53171V9.52229V9.51287L21.0986 9.50345V9.49402L21.0986 9.4846V9.47518V9.46576V9.45634L21.0986 9.44691V9.43749V9.42807V9.41865V9.40922L21.0986 9.3998V9.39038L21.0986 9.38096V9.37153V9.36211L21.0986 9.35269V9.34327V9.33385V9.32442V9.315L21.0986 9.30558V9.29616L21.0986 9.28673V9.27731V9.26789L21.0986 8.06635L20.2462 8.91318L12.1353 16.971Z" fill="white" stroke="white"/>
</svg>
