<svg width="40" height="23" viewBox="0 0 40 23" fill="none" xmlns="http://www.w3.org/2000/svg">
<path d="M24.2481 1.56344C23.9417 2.16002 23.6999 2.66792 23.6999 2.69211C23.6999 2.71629 26.6344 2.74048 30.2139 2.74854L36.7279 2.77273L37.0665 2.99846C37.2519 3.11939 37.4776 3.36124 37.5663 3.5386C37.7276 3.85302 37.7276 3.94976 37.7114 11.8665L37.6873 19.88L37.4615 20.1703C37.3325 20.3396 37.0907 20.5411 36.9214 20.6298C36.607 20.791 36.4296 20.791 25.7557 20.791H14.9044L14.3803 21.8713C14.0982 22.4599 13.8644 22.9597 13.8644 22.9758C13.8644 22.9919 19.0804 23 25.4493 23C35.6557 22.9919 37.0826 22.9758 37.3728 22.8629C38.6789 22.3792 39.5254 21.4602 39.864 20.1864C40.0494 19.477 40.0413 4.08681 39.864 3.30481C39.5818 2.11165 38.7595 1.20066 37.526 0.708883L37.0423 0.515398L30.9153 0.491213L24.7882 0.467026L24.2481 1.56344Z" fill="#292929"/>
<path d="M7.30211 3.69994C6.43949 3.96598 6.26213 5.1672 7.02801 5.63479C7.28599 5.78797 7.41498 5.79603 13.1389 5.79603C18.7903 5.79603 18.9918 5.78797 19.2418 5.63479C19.8948 5.23976 19.927 4.24008 19.2901 3.8128C19.0725 3.66769 18.8145 3.65963 13.3002 3.6435C10.1318 3.63544 7.4311 3.65963 7.30211 3.69994Z" fill="#292929"/>
<path d="M21.9747 6.17487C20.6526 8.83529 15.7993 18.7514 15.7993 18.8078C15.7993 18.832 19.274 18.8562 23.5307 18.8562H31.254L31.4394 18.3483C31.8183 17.2922 32.4794 16.3812 33.3097 15.7524C33.8418 15.3574 34.648 14.914 35.172 14.7527L35.4703 14.6479V11.7698V8.88367L34.8657 8.65793C33.3097 8.0936 32.044 6.82788 31.4797 5.28L31.254 4.6673H26.9973H22.7325L21.9747 6.17487ZM26.3765 7.06168L26.4007 7.60989L26.7393 7.66632C27.1505 7.73081 27.7228 8.02104 27.7873 8.19034C27.8115 8.25484 27.7793 8.50476 27.6987 8.73049C27.6261 8.96428 27.5697 9.30288 27.5697 9.48831C27.5697 9.67373 27.5535 9.82691 27.5294 9.82691C27.5052 9.82691 27.2956 9.73016 27.0698 9.6173C26.7715 9.46412 26.4813 9.39156 26.0299 9.36738C25.4413 9.32707 25.393 9.33513 25.1995 9.52862C24.9737 9.75435 24.9092 10.2219 25.0947 10.3751C25.143 10.4235 25.6106 10.6653 26.1185 10.9233C27.3439 11.536 27.8277 11.8988 28.0614 12.3825C28.4323 13.1242 28.263 14.2932 27.7067 14.8978C27.4407 15.1881 26.836 15.5508 26.6264 15.5508C26.4491 15.5508 26.441 15.575 26.441 16.1958V16.8488L25.6993 16.8246L24.9496 16.8004L24.9254 16.228L24.9012 15.6476L24.5223 15.5912C24.0386 15.5267 23.313 15.1961 23.2404 15.0188C23.1921 14.8817 23.3211 14.0916 23.4581 13.7369L23.5307 13.5434L24.0305 13.8014C24.4255 14.003 24.6513 14.0675 25.1108 14.0836C25.9815 14.132 26.3604 13.8901 26.3604 13.2855C26.3604 12.963 25.8767 12.4712 25.4171 12.3261C24.49 12.0197 23.6677 11.4312 23.3533 10.8427C23.1114 10.3751 23.1114 9.51249 23.3614 9.0449C23.5952 8.59344 24.0144 8.20647 24.5062 7.97267L24.9092 7.78725V7.20679C24.9092 6.89238 24.9334 6.60215 24.9657 6.57797C24.9899 6.54572 25.3204 6.52153 25.6832 6.52153H26.3523L26.3765 7.06168Z" fill="#292929"/>
<path d="M0.473636 10.8991C0.296274 11.02 0.159222 11.2055 0.0786034 11.4231C-0.0262011 11.7214 -0.0262011 11.802 0.0786034 12.1003C0.159222 12.318 0.296274 12.5034 0.473636 12.6243L0.74774 12.8098H6.30238C12.2924 12.8098 12.1472 12.8178 12.4294 12.3906C12.6551 12.0439 12.6793 11.7214 12.51 11.3264C12.2198 10.6814 12.5665 10.7137 6.30238 10.7137H0.74774L0.473636 10.8991Z" fill="#292929"/>
<path d="M3.69837 17.9936C3.52101 18.1145 3.38395 18.3 3.30333 18.5176C3.19853 18.8159 3.19853 18.8965 3.30333 19.1948C3.38395 19.4125 3.52101 19.5979 3.69837 19.7188L3.97247 19.9043H7.93892H11.9054L12.1795 19.7188C12.3568 19.606 12.4939 19.4125 12.5664 19.2029C12.6712 18.9046 12.6712 18.8401 12.5423 18.4934C12.2682 17.784 12.4616 17.8082 7.93086 17.8082H3.97247L3.69837 17.9936Z" fill="#292929"/>
</svg>
