<svg width="28" height="24" viewBox="0 0 28 24" fill="none" xmlns="http://www.w3.org/2000/svg">
<path opacity="0.984" d="M14.2775 0.889663L14.2957 0.887766L14.3137 0.884543C14.9916 0.763247 15.5411 0.928372 16.0148 1.38736C16.2705 1.80129 16.3497 2.15252 16.3154 2.45549C16.2807 2.76166 16.122 3.08877 15.7728 3.43683C15.7055 3.48377 15.6345 3.52531 15.5595 3.56145C13.6537 3.81992 11.9195 4.50822 10.3641 5.62444L10.3568 5.62968L10.3497 5.63518C9.32366 6.42888 8.6037 7.44707 8.19746 8.67907L7.94638 9.4405L8.74062 9.33096C9.46086 9.23163 10.0302 9.44138 10.5044 9.98035C10.7015 10.3141 10.7817 10.6193 10.7751 10.9028C10.7684 11.1934 10.6695 11.5014 10.446 11.833C9.32455 13.3439 8.2167 14.8647 7.12254 16.3954C6.80137 16.7375 6.48186 16.9167 6.16585 16.9799C5.85015 17.043 5.48579 17.0008 5.05648 16.8093C4.91494 16.7188 4.78332 16.6153 4.66131 16.4984C3.51814 14.9029 2.36147 13.3172 1.19131 11.7412C0.899258 11.1812 0.882417 10.6364 1.13993 10.0621C1.46521 9.65641 1.78975 9.45331 2.10578 9.38378C2.43267 9.31187 2.82703 9.36603 3.31308 9.61913L3.90123 9.92539L4.03389 9.27568C4.79384 5.55399 6.93034 3.05916 10.4851 1.74112C11.7242 1.30778 12.9881 1.02412 14.2775 0.889663Z" fill="white" stroke="white"/>
<path opacity="0.984" d="M23.624 14.3518C22.9029 17.8982 20.8904 20.3404 17.5496 21.7237C15.8732 22.4028 14.1391 22.7122 12.343 22.6531C11.9002 22.4777 11.6412 22.2491 11.501 21.9954C11.3566 21.7343 11.2994 21.377 11.3931 20.8798C11.5335 20.5238 11.7572 20.2549 12.0728 20.0595C13.55 19.828 14.9508 19.3618 16.273 18.6617L16.2832 18.6562L16.2932 18.6503C17.3233 18.0422 18.1797 17.2464 18.8584 16.2661L18.8719 16.2466L18.8834 16.226C19.1173 15.8089 19.3096 15.3738 19.4601 14.9208L19.5371 14.6892L19.4018 14.486L19.3451 14.401L19.1668 14.1332L18.8492 14.1845C18.2574 14.2802 17.8496 14.196 17.5657 14.011C17.2877 13.8298 17.051 13.5015 16.9006 12.9442C16.8623 12.547 16.9474 12.1857 17.1603 11.844C18.2832 10.3312 19.3924 8.80837 20.4878 7.27566C20.7484 6.95972 21.0602 6.74036 21.4291 6.60899C22.1119 6.51096 22.6481 6.71055 23.0964 7.22337C24.2143 8.80799 25.3537 10.3771 26.5144 11.9308C26.692 12.3315 26.7386 12.6805 26.6887 12.99C26.6387 13.3001 26.4848 13.614 26.1907 13.9325C25.7773 14.224 25.3305 14.3185 24.8177 14.2183C24.6617 14.179 24.5179 14.1167 24.3843 14.0308L23.7696 13.6358L23.624 14.3518Z" fill="white" stroke="white"/>
</svg>
