<svg viewBox="0 0 39 39" fill="none" xmlns="http://www.w3.org/2000/svg">
<path d="M27 2H28.2102C33.0508 2.3125 36.6813 4.5 36.9839 10.75C37.0201 11.4991 36.9839 11.8958 36.9839 12" stroke="#A2A1A1" stroke-width="4"/>
<path d="M12 37L10.7898 37C5.94916 36.6875 2.31866 34.5 2.01612 28.25C1.97986 27.5009 2.01612 27.1042 2.01612 27" stroke="#A2A1A1" stroke-width="4"/>
<path d="M2 12L2 10.7898C2.3125 5.94916 4.5 2.31866 10.75 2.01612C11.4991 1.97986 11.8958 2.01612 12 2.01612" stroke="#A2A1A1" stroke-width="4"/>
<path d="M37 27L37 28.2102C36.6875 33.0508 34.5 36.6813 28.25 36.9839C27.5009 37.0201 27.1042 36.9839 27 36.9839" stroke="#A2A1A1" stroke-width="4"/>
</svg>
