<svg width="29" height="25" viewBox="0 0 29 25" fill="none" xmlns="http://www.w3.org/2000/svg">
<mask id="path-1-outside-1_781_126" maskUnits="userSpaceOnUse" x="0" y="-0.18512" width="29" height="25" fill="black">
<rect fill="white" y="-0.18512" width="29" height="25"/>
<path d="M13.1874 1.07816C12.1855 1.39668 11.5775 2.41016 11.7628 3.46418C11.8381 3.92169 12.0523 4.35604 12.3303 4.64561L12.5388 4.86568H10.8941C8.99452 4.86568 8.89028 4.88885 8.59492 5.33478C8.43856 5.57801 8.43276 5.60118 8.4096 6.53358C8.38064 8.04511 8.46751 8.36364 8.96557 8.60108L9.2088 8.71691L9.21459 10.4311V12.1454L8.97136 12.2207C8.56597 12.3365 8.2069 12.545 7.04864 13.3152C6.44055 13.7206 5.86142 14.1028 5.75718 14.1607L5.57185 14.2708L5.3402 14.0565C4.93481 13.6917 4.40201 13.5469 3.9387 13.6685C3.79971 13.709 3.22058 13.987 2.64724 14.2939C1.86541 14.7167 1.55847 14.9136 1.39052 15.1105C1.11254 15.4233 0.961962 15.8866 1.00829 16.2804C1.05462 16.6568 3.94449 22.9636 4.22248 23.2879C4.50046 23.6122 4.81898 23.757 5.31124 23.7917L5.71664 23.8149L6.76486 23.2821C8.09108 22.5987 8.28798 22.4597 8.49647 22.0254C8.63546 21.7474 8.66442 21.6258 8.65283 21.313C8.64704 21.1045 8.63546 20.8845 8.62388 20.8208C8.60071 20.6702 8.78604 20.6354 9.55628 20.6239C10.0659 20.6181 10.5813 20.6876 12.8573 21.0756C14.3399 21.3304 15.7125 21.5563 15.9036 21.5736C16.39 21.6258 17.2008 21.5099 17.8147 21.3072C18.4228 21.1045 18.1506 21.2609 23.4323 18.0004C27.9553 15.2032 28.0248 15.1511 28.158 14.5661C28.4418 13.3036 26.8897 11.9948 25.4303 12.267C25.2392 12.3017 24.6716 12.5044 24.1736 12.7187C23.6697 12.933 23.1717 13.1415 23.0732 13.182L22.8821 13.2631V10.9813V8.69953L23.0153 8.66479C23.2354 8.61266 23.467 8.39839 23.5829 8.14357C23.6755 7.94087 23.6929 7.74976 23.6929 6.81735C23.6929 5.44481 23.6176 5.21895 23.0848 4.97572C22.8763 4.87726 22.6794 4.86568 21.22 4.86568H19.5926L19.7664 4.68036C20.7799 3.59159 20.4903 1.81365 19.1872 1.17661C18.8919 1.03183 18.7992 1.01445 18.2491 1.01445C17.7105 1.01445 17.6004 1.03183 17.3109 1.17082C16.836 1.39089 16.448 1.77891 16.2453 2.23063C16.1526 2.43332 16.0657 2.60707 16.0484 2.60707C16.031 2.60707 15.9557 2.4507 15.8862 2.25959C15.7067 1.80786 15.3418 1.43722 14.8438 1.19977C14.5252 1.0492 14.3747 1.01445 13.9635 1.00287C13.6392 0.991287 13.3786 1.01445 13.1874 1.07816ZM14.5252 2.01056C14.8843 2.17851 15.0175 2.32908 15.1739 2.75764C15.2955 3.07616 15.4866 3.95065 15.5561 4.51241L15.5966 4.82514L15.1912 4.7846C14.5889 4.72669 13.6102 4.48924 13.2859 4.32709C12.6257 3.99119 12.3709 3.02983 12.782 2.39279C13.1527 1.82524 13.8245 1.67466 14.5252 2.01056ZM18.5386 1.85999C19.3147 2.03372 19.7143 2.80976 19.4363 3.59738C19.2452 4.14177 18.9498 4.35025 18.0985 4.57032C17.6062 4.69773 16.5869 4.84831 16.5406 4.80198C16.4885 4.74985 16.6912 3.59159 16.836 3.08195C16.917 2.80397 17.0329 2.49703 17.1024 2.39279C17.2819 2.09743 17.6583 1.90631 18.2491 1.80207C18.2664 1.80207 18.3938 1.82524 18.5386 1.85999ZM13.6739 6.80577V7.87717L11.4906 7.86558L9.30146 7.84821L9.28409 6.86369C9.2783 6.32509 9.28409 5.8502 9.29567 5.80967C9.31884 5.75175 9.78214 5.73438 11.5022 5.73438H13.6739V6.80577ZM17.5541 6.80577V7.87717H16.0484H14.5426V6.80577V5.73438H16.0484H17.5541V6.80577ZM22.7952 6.80577V7.84821L20.6119 7.86558L18.4228 7.87717V6.80577V5.73438L20.6119 5.74596L22.7952 5.76333V6.80577ZM14.4847 10.686C14.4847 12.4928 14.4789 12.626 14.3862 12.626C14.3283 12.626 13.448 12.4813 12.4288 12.3075C11.4095 12.1338 10.4655 11.989 10.3323 11.989H10.0833V10.3674V8.74586H12.284H14.4847V10.686ZM16.8012 10.8887C16.8012 12.8519 16.7954 13.0314 16.7028 13.0314C16.6159 13.0314 15.7935 12.8925 15.4866 12.823L15.3534 12.7998V10.7728V8.74586H16.0773H16.8012V10.8887ZM22.0134 11.1956V13.6395L20.6119 14.2418C19.8417 14.5719 19.1815 14.8499 19.1409 14.8673C19.1004 14.8847 19.0367 14.7804 18.9788 14.6067C18.7934 14.0507 18.3475 13.5527 17.8263 13.3152L17.6699 13.2457V10.9929V8.74586H19.8417H22.0134V11.1956ZM13.9635 13.431C16.3205 13.8364 17.3804 14.0449 17.5425 14.126C18.2954 14.5082 18.4807 15.5391 17.9132 16.1703C17.6468 16.4657 17.3224 16.6163 16.9576 16.6221C16.8012 16.6221 15.9267 16.4889 15.0117 16.3325C14.0967 16.1703 13.2627 16.0429 13.1643 16.0429C13.0542 16.0429 12.9326 16.0893 12.8631 16.1588C12.6778 16.3441 12.7299 16.7321 12.9558 16.819C13.0079 16.8363 13.8882 16.9985 14.9133 17.178C17.0445 17.5487 17.2761 17.5545 17.8842 17.2591C18.388 17.0101 18.7645 16.5757 18.9903 15.9792C19.0425 15.8576 19.4884 15.6491 22.2566 14.4619C25.1523 13.2226 25.494 13.0894 25.7836 13.0894C26.2179 13.0894 26.5886 13.2283 26.9071 13.5063C27.3241 13.8712 27.4399 14.2071 27.2603 14.5314C27.1677 14.6936 18.2548 20.2301 17.7684 20.427C17.5946 20.4965 17.2356 20.6007 16.9692 20.6528C16.2163 20.8034 16.1294 20.7918 11.618 19.9984C10.176 19.7436 9.42887 19.703 8.72812 19.8305C8.45014 19.8884 8.2069 19.9173 8.19532 19.9057C8.14899 19.8652 5.97145 15.1221 5.97145 15.0758C5.97725 15.0179 8.55438 13.3326 8.91344 13.1531C9.28409 12.9619 9.71844 12.8635 10.1875 12.8635C10.4713 12.8577 11.6875 13.043 13.9635 13.431ZM4.75528 14.6878C4.96956 14.9078 7.77255 20.9713 7.8073 21.2841C7.84784 21.6837 7.72043 21.8053 6.63166 22.3902C6.09307 22.6798 5.59502 22.9288 5.51973 22.952C5.33441 22.9983 5.02747 22.8999 4.88269 22.7435C4.81898 22.674 4.10665 21.1972 3.31324 19.4598C2.24184 17.1317 1.85962 16.2456 1.85962 16.0893C1.85962 15.7534 2.0681 15.5738 3.13371 14.9947C4.00241 14.5198 4.11244 14.4793 4.34409 14.4966C4.52362 14.5198 4.63945 14.5719 4.75528 14.6878Z"/>
</mask>
<path d="M13.1874 1.07816C12.1855 1.39668 11.5775 2.41016 11.7628 3.46418C11.8381 3.92169 12.0523 4.35604 12.3303 4.64561L12.5388 4.86568H10.8941C8.99452 4.86568 8.89028 4.88885 8.59492 5.33478C8.43856 5.57801 8.43276 5.60118 8.4096 6.53358C8.38064 8.04511 8.46751 8.36364 8.96557 8.60108L9.2088 8.71691L9.21459 10.4311V12.1454L8.97136 12.2207C8.56597 12.3365 8.2069 12.545 7.04864 13.3152C6.44055 13.7206 5.86142 14.1028 5.75718 14.1607L5.57185 14.2708L5.3402 14.0565C4.93481 13.6917 4.40201 13.5469 3.9387 13.6685C3.79971 13.709 3.22058 13.987 2.64724 14.2939C1.86541 14.7167 1.55847 14.9136 1.39052 15.1105C1.11254 15.4233 0.961962 15.8866 1.00829 16.2804C1.05462 16.6568 3.94449 22.9636 4.22248 23.2879C4.50046 23.6122 4.81898 23.757 5.31124 23.7917L5.71664 23.8149L6.76486 23.2821C8.09108 22.5987 8.28798 22.4597 8.49647 22.0254C8.63546 21.7474 8.66442 21.6258 8.65283 21.313C8.64704 21.1045 8.63546 20.8845 8.62388 20.8208C8.60071 20.6702 8.78604 20.6354 9.55628 20.6239C10.0659 20.6181 10.5813 20.6876 12.8573 21.0756C14.3399 21.3304 15.7125 21.5563 15.9036 21.5736C16.39 21.6258 17.2008 21.5099 17.8147 21.3072C18.4228 21.1045 18.1506 21.2609 23.4323 18.0004C27.9553 15.2032 28.0248 15.1511 28.158 14.5661C28.4418 13.3036 26.8897 11.9948 25.4303 12.267C25.2392 12.3017 24.6716 12.5044 24.1736 12.7187C23.6697 12.933 23.1717 13.1415 23.0732 13.182L22.8821 13.2631V10.9813V8.69953L23.0153 8.66479C23.2354 8.61266 23.467 8.39839 23.5829 8.14357C23.6755 7.94087 23.6929 7.74976 23.6929 6.81735C23.6929 5.44481 23.6176 5.21895 23.0848 4.97572C22.8763 4.87726 22.6794 4.86568 21.22 4.86568H19.5926L19.7664 4.68036C20.7799 3.59159 20.4903 1.81365 19.1872 1.17661C18.8919 1.03183 18.7992 1.01445 18.2491 1.01445C17.7105 1.01445 17.6004 1.03183 17.3109 1.17082C16.836 1.39089 16.448 1.77891 16.2453 2.23063C16.1526 2.43332 16.0657 2.60707 16.0484 2.60707C16.031 2.60707 15.9557 2.4507 15.8862 2.25959C15.7067 1.80786 15.3418 1.43722 14.8438 1.19977C14.5252 1.0492 14.3747 1.01445 13.9635 1.00287C13.6392 0.991287 13.3786 1.01445 13.1874 1.07816ZM14.5252 2.01056C14.8843 2.17851 15.0175 2.32908 15.1739 2.75764C15.2955 3.07616 15.4866 3.95065 15.5561 4.51241L15.5966 4.82514L15.1912 4.7846C14.5889 4.72669 13.6102 4.48924 13.2859 4.32709C12.6257 3.99119 12.3709 3.02983 12.782 2.39279C13.1527 1.82524 13.8245 1.67466 14.5252 2.01056ZM18.5386 1.85999C19.3147 2.03372 19.7143 2.80976 19.4363 3.59738C19.2452 4.14177 18.9498 4.35025 18.0985 4.57032C17.6062 4.69773 16.5869 4.84831 16.5406 4.80198C16.4885 4.74985 16.6912 3.59159 16.836 3.08195C16.917 2.80397 17.0329 2.49703 17.1024 2.39279C17.2819 2.09743 17.6583 1.90631 18.2491 1.80207C18.2664 1.80207 18.3938 1.82524 18.5386 1.85999ZM13.6739 6.80577V7.87717L11.4906 7.86558L9.30146 7.84821L9.28409 6.86369C9.2783 6.32509 9.28409 5.8502 9.29567 5.80967C9.31884 5.75175 9.78214 5.73438 11.5022 5.73438H13.6739V6.80577ZM17.5541 6.80577V7.87717H16.0484H14.5426V6.80577V5.73438H16.0484H17.5541V6.80577ZM22.7952 6.80577V7.84821L20.6119 7.86558L18.4228 7.87717V6.80577V5.73438L20.6119 5.74596L22.7952 5.76333V6.80577ZM14.4847 10.686C14.4847 12.4928 14.4789 12.626 14.3862 12.626C14.3283 12.626 13.448 12.4813 12.4288 12.3075C11.4095 12.1338 10.4655 11.989 10.3323 11.989H10.0833V10.3674V8.74586H12.284H14.4847V10.686ZM16.8012 10.8887C16.8012 12.8519 16.7954 13.0314 16.7028 13.0314C16.6159 13.0314 15.7935 12.8925 15.4866 12.823L15.3534 12.7998V10.7728V8.74586H16.0773H16.8012V10.8887ZM22.0134 11.1956V13.6395L20.6119 14.2418C19.8417 14.5719 19.1815 14.8499 19.1409 14.8673C19.1004 14.8847 19.0367 14.7804 18.9788 14.6067C18.7934 14.0507 18.3475 13.5527 17.8263 13.3152L17.6699 13.2457V10.9929V8.74586H19.8417H22.0134V11.1956ZM13.9635 13.431C16.3205 13.8364 17.3804 14.0449 17.5425 14.126C18.2954 14.5082 18.4807 15.5391 17.9132 16.1703C17.6468 16.4657 17.3224 16.6163 16.9576 16.6221C16.8012 16.6221 15.9267 16.4889 15.0117 16.3325C14.0967 16.1703 13.2627 16.0429 13.1643 16.0429C13.0542 16.0429 12.9326 16.0893 12.8631 16.1588C12.6778 16.3441 12.7299 16.7321 12.9558 16.819C13.0079 16.8363 13.8882 16.9985 14.9133 17.178C17.0445 17.5487 17.2761 17.5545 17.8842 17.2591C18.388 17.0101 18.7645 16.5757 18.9903 15.9792C19.0425 15.8576 19.4884 15.6491 22.2566 14.4619C25.1523 13.2226 25.494 13.0894 25.7836 13.0894C26.2179 13.0894 26.5886 13.2283 26.9071 13.5063C27.3241 13.8712 27.4399 14.2071 27.2603 14.5314C27.1677 14.6936 18.2548 20.2301 17.7684 20.427C17.5946 20.4965 17.2356 20.6007 16.9692 20.6528C16.2163 20.8034 16.1294 20.7918 11.618 19.9984C10.176 19.7436 9.42887 19.703 8.72812 19.8305C8.45014 19.8884 8.2069 19.9173 8.19532 19.9057C8.14899 19.8652 5.97145 15.1221 5.97145 15.0758C5.97725 15.0179 8.55438 13.3326 8.91344 13.1531C9.28409 12.9619 9.71844 12.8635 10.1875 12.8635C10.4713 12.8577 11.6875 13.043 13.9635 13.431ZM4.75528 14.6878C4.96956 14.9078 7.77255 20.9713 7.8073 21.2841C7.84784 21.6837 7.72043 21.8053 6.63166 22.3902C6.09307 22.6798 5.59502 22.9288 5.51973 22.952C5.33441 22.9983 5.02747 22.8999 4.88269 22.7435C4.81898 22.674 4.10665 21.1972 3.31324 19.4598C2.24184 17.1317 1.85962 16.2456 1.85962 16.0893C1.85962 15.7534 2.0681 15.5738 3.13371 14.9947C4.00241 14.5198 4.11244 14.4793 4.34409 14.4966C4.52362 14.5198 4.63945 14.5719 4.75528 14.6878Z" fill="white"/>
<path d="M13.1874 1.07816C12.1855 1.39668 11.5775 2.41016 11.7628 3.46418C11.8381 3.92169 12.0523 4.35604 12.3303 4.64561L12.5388 4.86568H10.8941C8.99452 4.86568 8.89028 4.88885 8.59492 5.33478C8.43856 5.57801 8.43276 5.60118 8.4096 6.53358C8.38064 8.04511 8.46751 8.36364 8.96557 8.60108L9.2088 8.71691L9.21459 10.4311V12.1454L8.97136 12.2207C8.56597 12.3365 8.2069 12.545 7.04864 13.3152C6.44055 13.7206 5.86142 14.1028 5.75718 14.1607L5.57185 14.2708L5.3402 14.0565C4.93481 13.6917 4.40201 13.5469 3.9387 13.6685C3.79971 13.709 3.22058 13.987 2.64724 14.2939C1.86541 14.7167 1.55847 14.9136 1.39052 15.1105C1.11254 15.4233 0.961962 15.8866 1.00829 16.2804C1.05462 16.6568 3.94449 22.9636 4.22248 23.2879C4.50046 23.6122 4.81898 23.757 5.31124 23.7917L5.71664 23.8149L6.76486 23.2821C8.09108 22.5987 8.28798 22.4597 8.49647 22.0254C8.63546 21.7474 8.66442 21.6258 8.65283 21.313C8.64704 21.1045 8.63546 20.8845 8.62388 20.8208C8.60071 20.6702 8.78604 20.6354 9.55628 20.6239C10.0659 20.6181 10.5813 20.6876 12.8573 21.0756C14.3399 21.3304 15.7125 21.5563 15.9036 21.5736C16.39 21.6258 17.2008 21.5099 17.8147 21.3072C18.4228 21.1045 18.1506 21.2609 23.4323 18.0004C27.9553 15.2032 28.0248 15.1511 28.158 14.5661C28.4418 13.3036 26.8897 11.9948 25.4303 12.267C25.2392 12.3017 24.6716 12.5044 24.1736 12.7187C23.6697 12.933 23.1717 13.1415 23.0732 13.182L22.8821 13.2631V10.9813V8.69953L23.0153 8.66479C23.2354 8.61266 23.467 8.39839 23.5829 8.14357C23.6755 7.94087 23.6929 7.74976 23.6929 6.81735C23.6929 5.44481 23.6176 5.21895 23.0848 4.97572C22.8763 4.87726 22.6794 4.86568 21.22 4.86568H19.5926L19.7664 4.68036C20.7799 3.59159 20.4903 1.81365 19.1872 1.17661C18.8919 1.03183 18.7992 1.01445 18.2491 1.01445C17.7105 1.01445 17.6004 1.03183 17.3109 1.17082C16.836 1.39089 16.448 1.77891 16.2453 2.23063C16.1526 2.43332 16.0657 2.60707 16.0484 2.60707C16.031 2.60707 15.9557 2.4507 15.8862 2.25959C15.7067 1.80786 15.3418 1.43722 14.8438 1.19977C14.5252 1.0492 14.3747 1.01445 13.9635 1.00287C13.6392 0.991287 13.3786 1.01445 13.1874 1.07816ZM14.5252 2.01056C14.8843 2.17851 15.0175 2.32908 15.1739 2.75764C15.2955 3.07616 15.4866 3.95065 15.5561 4.51241L15.5966 4.82514L15.1912 4.7846C14.5889 4.72669 13.6102 4.48924 13.2859 4.32709C12.6257 3.99119 12.3709 3.02983 12.782 2.39279C13.1527 1.82524 13.8245 1.67466 14.5252 2.01056ZM18.5386 1.85999C19.3147 2.03372 19.7143 2.80976 19.4363 3.59738C19.2452 4.14177 18.9498 4.35025 18.0985 4.57032C17.6062 4.69773 16.5869 4.84831 16.5406 4.80198C16.4885 4.74985 16.6912 3.59159 16.836 3.08195C16.917 2.80397 17.0329 2.49703 17.1024 2.39279C17.2819 2.09743 17.6583 1.90631 18.2491 1.80207C18.2664 1.80207 18.3938 1.82524 18.5386 1.85999ZM13.6739 6.80577V7.87717L11.4906 7.86558L9.30146 7.84821L9.28409 6.86369C9.2783 6.32509 9.28409 5.8502 9.29567 5.80967C9.31884 5.75175 9.78214 5.73438 11.5022 5.73438H13.6739V6.80577ZM17.5541 6.80577V7.87717H16.0484H14.5426V6.80577V5.73438H16.0484H17.5541V6.80577ZM22.7952 6.80577V7.84821L20.6119 7.86558L18.4228 7.87717V6.80577V5.73438L20.6119 5.74596L22.7952 5.76333V6.80577ZM14.4847 10.686C14.4847 12.4928 14.4789 12.626 14.3862 12.626C14.3283 12.626 13.448 12.4813 12.4288 12.3075C11.4095 12.1338 10.4655 11.989 10.3323 11.989H10.0833V10.3674V8.74586H12.284H14.4847V10.686ZM16.8012 10.8887C16.8012 12.8519 16.7954 13.0314 16.7028 13.0314C16.6159 13.0314 15.7935 12.8925 15.4866 12.823L15.3534 12.7998V10.7728V8.74586H16.0773H16.8012V10.8887ZM22.0134 11.1956V13.6395L20.6119 14.2418C19.8417 14.5719 19.1815 14.8499 19.1409 14.8673C19.1004 14.8847 19.0367 14.7804 18.9788 14.6067C18.7934 14.0507 18.3475 13.5527 17.8263 13.3152L17.6699 13.2457V10.9929V8.74586H19.8417H22.0134V11.1956ZM13.9635 13.431C16.3205 13.8364 17.3804 14.0449 17.5425 14.126C18.2954 14.5082 18.4807 15.5391 17.9132 16.1703C17.6468 16.4657 17.3224 16.6163 16.9576 16.6221C16.8012 16.6221 15.9267 16.4889 15.0117 16.3325C14.0967 16.1703 13.2627 16.0429 13.1643 16.0429C13.0542 16.0429 12.9326 16.0893 12.8631 16.1588C12.6778 16.3441 12.7299 16.7321 12.9558 16.819C13.0079 16.8363 13.8882 16.9985 14.9133 17.178C17.0445 17.5487 17.2761 17.5545 17.8842 17.2591C18.388 17.0101 18.7645 16.5757 18.9903 15.9792C19.0425 15.8576 19.4884 15.6491 22.2566 14.4619C25.1523 13.2226 25.494 13.0894 25.7836 13.0894C26.2179 13.0894 26.5886 13.2283 26.9071 13.5063C27.3241 13.8712 27.4399 14.2071 27.2603 14.5314C27.1677 14.6936 18.2548 20.2301 17.7684 20.427C17.5946 20.4965 17.2356 20.6007 16.9692 20.6528C16.2163 20.8034 16.1294 20.7918 11.618 19.9984C10.176 19.7436 9.42887 19.703 8.72812 19.8305C8.45014 19.8884 8.2069 19.9173 8.19532 19.9057C8.14899 19.8652 5.97145 15.1221 5.97145 15.0758C5.97725 15.0179 8.55438 13.3326 8.91344 13.1531C9.28409 12.9619 9.71844 12.8635 10.1875 12.8635C10.4713 12.8577 11.6875 13.043 13.9635 13.431ZM4.75528 14.6878C4.96956 14.9078 7.77255 20.9713 7.8073 21.2841C7.84784 21.6837 7.72043 21.8053 6.63166 22.3902C6.09307 22.6798 5.59502 22.9288 5.51973 22.952C5.33441 22.9983 5.02747 22.8999 4.88269 22.7435C4.81898 22.674 4.10665 21.1972 3.31324 19.4598C2.24184 17.1317 1.85962 16.2456 1.85962 16.0893C1.85962 15.7534 2.0681 15.5738 3.13371 14.9947C4.00241 14.5198 4.11244 14.4793 4.34409 14.4966C4.52362 14.5198 4.63945 14.5719 4.75528 14.6878Z" stroke="white" stroke-width="1.2" mask="url(#path-1-outside-1_781_126)"/>
<path d="M5.78301 20.626L5.78298 20.626L5.78805 20.6234C5.99482 20.5172 6.18653 20.4281 6.3676 20.4151C6.59281 20.3989 6.75225 20.4981 6.88266 20.6136L6.88275 20.6135L6.88936 20.6197C6.96086 20.687 7.00198 20.7705 7.02612 20.8356C7.05188 20.905 7.06777 20.9794 7.07543 21.0509C7.08892 21.1768 7.08392 21.3654 6.98897 21.5146L6.98897 21.5146L6.98855 21.5153C6.94819 21.5783 6.89002 21.6272 6.85423 21.6556C6.81066 21.6903 6.75945 21.7257 6.70611 21.7601C6.59887 21.8291 6.46734 21.9038 6.33571 21.9723C6.20402 22.0408 6.0667 22.1059 5.94719 22.1549C5.88768 22.1792 5.82875 22.2012 5.77492 22.2175C5.72866 22.2315 5.65918 22.2501 5.58919 22.2501C5.17791 22.2501 4.90117 21.9216 4.90117 21.5331C4.90117 21.4531 4.91151 21.3614 4.95409 21.2662C4.99624 21.172 5.06007 21.0963 5.13362 21.0309C5.26902 20.9105 5.48325 20.7872 5.78301 20.626Z" fill="white" stroke="white" stroke-width="0.6"/>
</svg>
