<svg  viewBox="0 0 26 25"  xmlns="http://www.w3.org/2000/svg">
<path d="M12.3865 0.177478C12.0672 0.299369 11.7828 0.490912 11.5739 0.72889C11.4636 0.85078 10.7264 2.27284 9.83836 4.07799L8.2886 7.21813L4.82342 7.7173C1.03899 8.26871 0.957734 8.28613 0.522409 8.72145C0.168345 9.08132 1.94328e-05 9.50504 1.94328e-05 10.0564C1.94328e-05 10.8691 -0.0348065 10.8284 2.84414 13.6319C4.42292 15.1701 5.36902 16.1336 5.36902 16.2032C5.36902 16.2613 5.10783 17.8401 4.78279 19.7149C4.3997 21.9727 4.21396 23.1858 4.23718 23.3193C4.31264 23.7605 4.45774 24.0797 4.70733 24.3583C5.16587 24.8691 5.88561 25.1071 6.51248 24.9504C6.66339 24.9097 8.18412 24.1494 9.8906 23.2555L12.9843 21.6303L16.0838 23.2555C17.7845 24.1494 19.2994 24.9155 19.4445 24.9504C20.4603 25.2057 21.5515 24.4454 21.7082 23.3658C21.743 23.151 21.6211 22.321 21.1568 19.5988L20.559 16.1104L20.9595 15.7215C21.18 15.5067 22.3177 14.3923 23.4901 13.2488C25.957 10.8516 25.9454 10.8632 25.9454 10.0274C25.9396 9.44699 25.8061 9.09873 25.423 8.72145C24.9819 8.28032 24.9528 8.26871 21.1452 7.7173L17.6626 7.21233L16.0954 4.04896C14.4296 0.676648 14.3715 0.577977 13.8143 0.287761C13.4603 0.107825 12.7289 0.0497826 12.3865 0.177478ZM16.3102 8.45445C16.5307 8.69823 16.9138 8.93041 17.2099 9.00006C17.2911 9.02328 18.8583 9.26125 20.6925 9.53406C22.5266 9.80686 24.0532 10.039 24.0822 10.0448C24.1054 10.0564 22.991 11.1709 21.5979 12.5233C18.806 15.2339 18.7712 15.2803 18.7306 15.9769C18.719 16.2264 18.8699 17.2654 19.2646 19.6452C19.5722 21.4736 19.8218 23.0059 19.8218 23.0465C19.8218 23.0988 18.6725 22.5241 16.7919 21.5316C15.1203 20.6552 13.6402 19.9006 13.5009 19.86C13.17 19.7555 12.8334 19.7555 12.4735 19.8658C12.3168 19.9122 10.8309 20.6552 9.17086 21.52C7.51663 22.3848 6.141 23.0814 6.12359 23.0756C6.10037 23.064 6.34415 21.5722 6.65758 19.7497C7.30767 16.0001 7.32508 15.8143 7.02326 15.2571C6.89556 15.0308 6.22226 14.3284 4.36488 12.5059C2.72805 10.8981 1.90384 10.0506 1.95608 10.0274C1.99671 10.0042 2.24049 9.95777 2.49588 9.92295C3.8657 9.7314 8.57882 9.04069 8.71812 9.00586C8.80519 8.98265 8.99673 8.90719 9.14184 8.83173C9.68745 8.56473 9.80353 8.379 11.452 5.04731L12.9901 1.93038L14.5399 5.07053C15.6311 7.27617 16.1535 8.28032 16.3102 8.45445Z" />
</svg>
