<svg  viewBox="0 0 175 169" fill="none" xmlns="http://www.w3.org/2000/svg">
<g clip-path="url(#clip0_274_3220)">
<path d="M110.993 169C103.446 169 96.7341 166.063 91.4368 160.404C86.9643 155.626 85.0915 150.582 85.0099 150.371C84.9009 150.073 84.8451 149.759 84.845 149.442V11.8239C84.845 10.2698 85.7115 6.55436 89.0546 3.67745C92.811 0.444551 98.2298 -0.65959 105.17 0.381299C118.872 2.44681 124.269 5.93994 132.545 12.8756C133.096 13.3384 133.441 14.0007 133.503 14.7167C133.565 15.4327 133.339 16.144 132.875 16.694C132.411 17.2438 131.746 17.5873 131.028 17.649C130.309 17.7107 129.596 17.4855 129.044 17.0229C121.394 10.6131 116.752 7.6097 104.356 5.74116C99.1907 4.96411 95.1551 5.64719 92.6859 7.71632C90.7515 9.34271 90.2928 11.3956 90.2838 11.8184V148.914C91.575 151.832 93.3526 154.512 95.5412 156.838C100.411 161.965 106.484 164.186 113.596 163.441C120.911 162.673 126.753 160.34 130.953 156.506C133.961 153.761 135.009 151.18 135.081 150.994C135.249 150.5 135.56 150.067 135.975 149.749C136.389 149.43 136.889 149.241 137.411 149.205C137.527 149.194 149.681 148.014 154.304 139.606C158.575 131.835 155.87 127.54 155.605 127.153C155.313 126.798 155.119 126.374 155.043 125.921C154.967 125.469 155.011 125.005 155.17 124.574C155.335 124.134 155.612 123.744 155.973 123.442C156.335 123.14 156.769 122.938 157.233 122.854C159.791 122.215 162.188 121.057 164.277 119.453C168.473 116.157 170.178 111.455 169.353 105.479C168.497 99.1773 165.785 97.3178 165.669 97.2419L165.734 97.2816L168.47 92.5958C168.985 92.894 173.522 95.7673 174.741 104.743C176.148 114.838 171.559 120.709 167.464 123.855C165.643 125.236 163.636 126.355 161.503 127.178C162.435 130.283 162.801 135.444 159.081 142.212C154.15 151.18 143.54 153.732 139.485 154.393C137.507 158.101 131.04 167.063 114.173 168.832C113.116 168.943 112.055 168.999 110.993 169Z" fill="#91FCA5"/>
<path d="M148.036 104.973C147.315 104.974 146.623 104.689 146.112 104.182C145.601 103.674 145.314 102.985 145.312 102.267C145.311 101.548 145.597 100.858 146.106 100.348C146.615 99.8393 147.306 99.5525 148.027 99.5513C148.152 99.5513 158.988 99.4104 165.188 93.0024C168.243 89.8454 169.721 85.5806 169.55 80.3292C169.55 80.3003 169.55 80.2714 169.55 80.2407C169.55 77.2806 168.26 72.7213 162.036 67.8024C161.632 67.4836 161.327 67.0571 161.157 66.5724C160.987 66.0877 160.958 65.5648 161.075 65.0646L161.144 64.7755C161.784 62.0414 162.857 57.4658 161.343 52.9625C159.514 47.5159 154.227 43.5656 145.632 41.2163C135.645 39.6496 129.497 43.5656 126.096 47.1346C121.685 51.7608 120.46 57.2056 120.741 58.4922C120.816 58.8402 120.822 59.1996 120.757 59.5498C120.693 59.9 120.56 60.2341 120.367 60.5331C120.173 60.8322 119.922 61.0902 119.628 61.2926C119.334 61.4949 119.003 61.6376 118.654 61.7125C118.305 61.7873 117.945 61.793 117.593 61.729C117.242 61.6649 116.907 61.5326 116.607 61.3394C116.307 61.1463 116.048 60.8961 115.845 60.6033C115.642 60.3104 115.499 59.9805 115.424 59.6325C115.019 57.7585 115.438 55.019 116.573 52.1168C117.854 48.8802 119.749 45.9203 122.155 43.3993C124.896 40.4957 128.293 38.2853 132.063 36.9516C136.47 35.3939 141.376 35.0342 146.642 35.8854C146.735 35.8999 146.827 35.9198 146.918 35.945C157.462 38.7912 164.05 43.9378 166.497 51.2385C168.236 56.414 167.453 61.4161 166.744 64.658C172.141 69.3565 174.982 74.6965 174.986 80.1991C175.183 86.9613 173.194 92.5416 169.075 96.7847C161.247 104.844 148.577 104.962 148.045 104.964L148.036 104.973Z" fill="#91FCA5"/>
<path d="M143.209 40.8585C142.746 40.8587 142.291 40.7404 141.887 40.5152C141.575 40.3417 141.3 40.1087 141.079 39.8295C140.857 39.5503 140.693 39.2303 140.596 38.8878C140.498 38.5453 140.469 38.187 140.511 37.8334C140.552 37.4798 140.663 37.1378 140.837 36.8269C142.857 33.2127 143.1 28.7365 141.47 25.1313C139.789 21.4141 136.332 18.8914 131.483 17.8325C120.436 15.4308 114.851 24.0127 114.622 24.3778C114.242 24.9878 113.635 25.4227 112.934 25.587C112.233 25.7514 111.495 25.6317 110.882 25.2542C110.578 25.0667 110.314 24.8212 110.105 24.5318C109.896 24.2424 109.746 23.9147 109.665 23.5675C109.583 23.2204 109.571 22.8606 109.629 22.5087C109.687 22.1569 109.814 21.8199 110.003 21.5171C110.081 21.3888 111.984 18.3583 115.694 15.7688C119.138 13.3635 124.882 10.848 132.646 12.5359C139.153 13.9508 144.05 17.6319 146.425 22.8996C148.781 28.1167 148.47 34.3096 145.582 39.4653C145.346 39.8871 145.002 40.2386 144.585 40.4835C144.168 40.7284 143.693 40.8579 143.209 40.8585Z" fill="#91FCA5"/>
<path d="M139.088 96.3799C138.386 96.3805 137.71 96.1103 137.204 95.626C136.697 95.1416 136.397 94.4806 136.368 93.7813C136.368 93.7126 136.187 90.4905 134.458 86.6613C132.179 81.6267 128.381 77.9149 123.168 75.638C118.181 73.4514 113.484 73.6592 109.209 76.2578C107.149 77.5233 105.359 79.1813 103.942 81.137C103.748 81.4371 103.496 81.696 103.201 81.8988C102.906 82.1015 102.574 82.2442 102.223 82.3185C101.873 82.3929 101.511 82.3975 101.159 82.332C100.807 82.2665 100.471 82.1323 100.171 81.937C99.8707 81.7418 99.6123 81.4893 99.4105 81.1942C99.2086 80.8991 99.0673 80.5671 98.9946 80.2173C98.9219 79.8676 98.9192 79.5069 98.9868 79.1562C99.0543 78.8054 99.1908 78.4714 99.3883 78.1733C101.198 75.6063 103.504 73.4253 106.17 71.7581C110.251 69.2155 116.894 66.9657 125.36 70.6739C131.832 73.511 136.729 78.3504 139.521 84.6699C141.626 89.437 141.798 93.4054 141.805 93.5734C141.819 93.9292 141.762 94.284 141.637 94.6178C141.513 94.9515 141.324 95.2576 141.081 95.5185C140.838 95.7795 140.546 95.9902 140.222 96.1386C139.897 96.287 139.546 96.3702 139.189 96.3835L139.088 96.3799Z" fill="#91FCA5"/>
<path d="M132.001 81.081C131.466 81.0809 130.942 80.9232 130.496 80.6277C130.05 80.3323 129.702 79.9121 129.494 79.42C129.287 78.9278 129.23 78.3856 129.33 77.8614C129.431 77.3371 129.685 76.8541 130.059 76.4729C133.54 72.9346 134.548 69.165 133.141 64.9436C132.392 62.8032 131.216 60.8361 129.684 59.1608C129.178 58.6505 128.895 57.9607 128.898 57.2429C128.901 56.525 129.19 55.8376 129.7 55.3316C129.954 55.0805 130.255 54.8817 130.586 54.7466C130.916 54.6115 131.271 54.5428 131.628 54.5443C131.986 54.5458 132.339 54.6175 132.669 54.7554C132.999 54.8933 133.298 55.0946 133.549 55.3479C135.618 57.5569 137.211 60.1644 138.23 63.01C139.739 67.3597 140.224 73.8833 133.941 80.2605C133.689 80.5191 133.387 80.7248 133.054 80.8657C132.721 81.0065 132.363 81.0797 132.001 81.081Z" fill="#91FCA5"/>
<path d="M97.2272 138.438C96.7569 138.438 96.2946 138.316 95.8856 138.085C95.4766 137.853 95.1349 137.52 94.8937 137.117C94.6526 136.715 94.5204 136.257 94.5099 135.788C94.4995 135.319 94.6112 134.856 94.8342 134.443C94.9448 134.237 97.608 129.383 102.992 125.924C108.029 122.684 116.428 120.055 127.829 125.924C128.155 126.083 128.445 126.304 128.683 126.576C128.922 126.848 129.103 127.165 129.217 127.507C129.331 127.85 129.375 128.212 129.347 128.572C129.318 128.932 129.218 129.282 129.052 129.603C128.886 129.924 128.657 130.208 128.379 130.44C128.101 130.671 127.78 130.845 127.433 130.951C127.087 131.057 126.723 131.093 126.363 131.057C126.002 131.02 125.653 130.913 125.335 130.74C118.034 126.983 111.508 126.893 105.937 130.476C103.37 132.161 101.212 134.393 99.6167 137.011C99.3845 137.441 99.0399 137.801 98.6193 138.053C98.1986 138.304 97.7177 138.437 97.2272 138.438Z" fill="#91FCA5"/>
<path d="M118.868 128.27C118.38 128.268 117.902 128.136 117.483 127.887C117.064 127.637 116.72 127.28 116.487 126.853C116.254 126.425 116.141 125.943 116.159 125.457C116.177 124.971 116.327 124.499 116.591 124.09C120.085 118.741 120.942 113.589 119.164 108.778C118.334 106.551 117.008 104.54 115.286 102.896C115.01 102.667 114.782 102.385 114.616 102.067C114.45 101.749 114.349 101.402 114.318 101.045C114.288 100.687 114.329 100.328 114.439 99.9867C114.549 99.6454 114.725 99.3293 114.958 99.0566C115.192 98.7839 115.477 98.5599 115.797 98.3978C116.118 98.2356 116.468 98.1384 116.826 98.1118C117.185 98.0852 117.545 98.1298 117.886 98.2429C118.227 98.3559 118.543 98.5353 118.814 98.7707C118.953 98.8881 122.258 101.718 124.158 106.621C125.915 111.138 126.818 118.367 121.151 127.041C120.903 127.419 120.564 127.73 120.166 127.944C119.767 128.159 119.321 128.271 118.868 128.27Z" fill="#91FCA5"/>
<path d="M64.009 169C62.9499 168.999 61.8915 168.943 60.8382 168.832C43.978 167.063 37.5058 158.101 35.5279 154.393C31.4706 153.732 20.8614 151.18 15.9302 142.21C12.2101 135.444 12.5763 130.283 13.5081 127.178C11.3751 126.355 9.36899 125.236 7.54903 123.855C3.45182 120.709 -1.1367 114.838 0.271945 104.732C1.48842 95.7673 6.02798 92.894 6.54104 92.5958L9.27675 97.2816L9.34202 97.2419C9.2278 97.3178 6.51385 99.1773 5.65996 105.47C4.82602 111.455 6.53198 116.157 10.7271 119.453C12.8182 121.059 15.2198 122.218 17.7812 122.856C18.244 122.94 18.6769 123.143 19.0376 123.444C19.3983 123.745 19.6743 124.135 19.8389 124.574C19.9993 125.006 20.043 125.473 19.9657 125.927C19.8884 126.381 19.6927 126.807 19.3983 127.162C19.1336 127.549 16.4288 131.846 20.6982 139.615C25.3212 148.023 37.475 149.203 37.5965 149.214C38.1172 149.252 38.6151 149.442 39.0283 149.76C39.4415 150.079 39.7518 150.511 39.9207 151.003C39.9914 151.184 41.0374 153.766 44.0487 156.515C48.251 160.349 54.0905 162.682 61.4056 163.45C68.5178 164.195 74.5911 161.974 79.4606 156.847C81.6492 154.521 83.4268 151.841 84.7181 148.923V11.8239C84.7072 11.3956 84.2503 9.33909 82.3069 7.7127C79.8395 5.64357 75.8039 4.96049 70.6371 5.73754C58.2457 7.60608 53.5956 10.6167 45.9559 17.0193C45.6826 17.2486 45.3667 17.422 45.0262 17.5296C44.6856 17.6372 44.3272 17.6768 43.9713 17.6463C43.6154 17.6157 43.269 17.5156 42.9519 17.3516C42.6348 17.1876 42.3533 16.9629 42.1234 16.6904C41.6593 16.1403 41.4334 15.4291 41.4952 14.7131C41.5571 13.997 41.9017 13.3348 42.4533 12.872C50.7257 5.93632 56.121 2.44139 69.8285 0.377683C76.7666 -0.666821 82.1872 0.44093 85.9418 3.67383C89.2848 6.55074 90.1587 10.2661 90.1514 11.8293V149.442C90.1519 149.758 90.0967 150.073 89.9883 150.371C89.9212 150.582 88.0357 155.626 83.565 160.413C78.2659 166.063 71.5544 169 64.009 169Z" fill="#91FCA5"/>
<path d="M26.9637 104.973C26.4288 104.973 13.7583 104.853 5.93371 96.7937C1.81293 92.5506 -0.181294 86.9703 0.0126891 80.2081C0.0126891 74.6983 2.85717 69.3511 8.25425 64.6671C7.5454 61.4251 6.76222 56.4231 8.50081 51.2475C10.9537 43.9469 17.5437 38.8002 28.0804 35.9541C28.171 35.9288 28.263 35.9089 28.356 35.8944C33.6225 35.0433 38.5283 35.4029 42.9374 36.9606C46.7066 38.2943 50.1024 40.5047 52.8432 43.4083C55.2501 45.9267 57.1472 48.8841 58.4306 52.1186C59.5655 55.0208 59.9843 57.7603 59.58 59.6343C59.5049 59.9823 59.3618 60.3122 59.1588 60.6051C58.9558 60.8979 58.6969 61.1481 58.3969 61.3412C58.0969 61.5344 57.7617 61.6667 57.4104 61.7308C57.0591 61.7948 56.6985 61.7892 56.3494 61.7143C56.0001 61.6394 55.6689 61.4967 55.375 61.2942C55.081 61.0917 54.83 60.8335 54.6362 60.5343C54.4424 60.235 54.3097 59.9007 54.2456 59.5503C54.1815 59.1999 54.1873 58.8404 54.2627 58.4922C54.5401 57.2037 53.3146 51.759 48.9055 47.1328C45.5045 43.5638 39.3568 39.6478 29.3694 41.2163C20.7725 43.5656 15.486 47.5159 13.6568 52.9625C12.143 57.4658 13.2162 62.0414 13.8562 64.7755L13.9251 65.0646C14.0417 65.5647 14.0135 66.0874 13.8437 66.5721C13.674 67.0568 13.3696 67.4834 12.966 67.8024C6.74408 72.7213 5.43878 77.286 5.45147 80.2407V80.3292C5.29012 85.5806 6.75677 89.8454 9.81156 93.0024C16.0172 99.4158 26.8658 99.5513 26.9745 99.5513C27.6951 99.5552 28.3847 99.8439 28.8919 100.354C29.3991 100.864 29.6823 101.555 29.6794 102.273C29.6765 102.989 29.3893 103.675 28.8804 104.181C28.3715 104.687 27.6824 104.972 26.9637 104.973Z" fill="#91FCA5"/>
<path d="M31.7915 40.8585C31.3071 40.8589 30.8313 40.7303 30.4135 40.486C29.9956 40.2417 29.6508 39.8905 29.4147 39.4689C26.5286 34.3132 26.2131 28.1203 28.5717 22.9032C30.9557 17.6355 35.8506 13.9544 42.359 12.5395C50.122 10.8534 55.8617 13.3671 59.3099 15.7724C63.0192 18.3619 64.93 21.3925 65.0025 21.5208C65.1903 21.8237 65.3164 22.1605 65.3736 22.512C65.4308 22.8635 65.4179 23.2228 65.3358 23.5693C65.2536 23.9158 65.1038 24.2428 64.8948 24.5316C64.6858 24.8204 64.4218 25.0654 64.1178 25.2524C63.506 25.6292 62.7694 25.7491 62.0692 25.5858C61.3689 25.4226 60.7621 24.9895 60.3813 24.3814C60.1366 23.9965 54.5546 15.4381 43.5211 17.8361C38.6679 18.8914 35.2161 21.4141 33.5337 25.1313C31.9021 28.7455 32.1468 33.2181 34.1682 36.8269C34.3423 37.1378 34.4532 37.4798 34.4947 37.8334C34.5361 38.187 34.5073 38.5453 34.4098 38.8878C34.3124 39.2303 34.1482 39.5503 33.9266 39.8295C33.705 40.1087 33.4305 40.3417 33.1186 40.5152C32.7129 40.7407 32.256 40.8589 31.7915 40.8585Z" fill="#91FCA5"/>
<path d="M35.9141 96.3853H35.8089C35.4516 96.3718 35.1004 96.2882 34.7755 96.1392C34.4506 95.9903 34.1584 95.7789 33.9155 95.5172C33.6727 95.2555 33.4841 94.9486 33.3604 94.6142C33.2367 94.2797 33.1804 93.9242 33.1947 93.568C33.1947 93.4 33.376 89.4316 35.479 84.6645C38.2691 78.3396 43.1658 73.5056 49.6397 70.6685C58.1061 66.9567 64.7469 69.2065 68.8296 71.7527C71.4953 73.4202 73.8004 75.6012 75.6099 78.1679C75.8172 78.4662 75.9623 78.8028 76.0366 79.158C76.111 79.5132 76.113 79.8796 76.0427 80.2355C75.9723 80.5915 75.831 80.9298 75.627 81.2303C75.4231 81.5308 75.1607 81.7874 74.8555 81.985C74.5502 82.1826 74.2082 82.3171 73.8499 82.3805C73.4915 82.4439 73.124 82.435 72.7692 82.3542C72.4143 82.2734 72.0794 82.1225 71.7841 81.9103C71.4889 81.6981 71.2394 81.429 71.0504 81.1189C69.6353 79.168 67.8489 77.5138 65.7929 76.2506C61.5144 73.652 56.8189 73.4442 51.8334 75.6308C46.6194 77.9149 42.8213 81.6267 40.5443 86.6541C38.8003 90.5068 38.6335 93.7433 38.6317 93.7759C38.6054 94.4768 38.3076 95.1402 37.8008 95.6269C37.294 96.1135 36.6177 96.3853 35.9141 96.3853Z" fill="#91FCA5"/>
<path d="M43.0008 81.081C42.6393 81.0812 42.2814 81.0095 41.948 80.8702C41.6146 80.7309 41.3124 80.5267 41.0592 80.2696C34.781 73.8887 35.2614 67.3651 36.7698 63.01C37.7902 60.1648 39.3831 57.5574 41.4507 55.3479C41.959 54.838 42.6496 54.5503 43.3707 54.5479C44.0918 54.5455 44.7843 54.8287 45.296 55.3352C45.8072 55.8396 46.0971 56.5254 46.1022 57.2424C46.1073 57.9594 45.8272 58.6492 45.3232 59.1609C43.7917 60.8366 42.6158 62.8035 41.8659 64.9436C40.4591 69.165 41.4671 72.9346 44.9479 76.4729C45.4529 76.986 45.7328 77.678 45.726 78.3968C45.7192 79.1156 45.4263 79.8022 44.9116 80.3057C44.4016 80.8043 43.7152 81.0828 43.0008 81.081Z" fill="#91FCA5"/>
<path d="M77.7746 138.438C77.2846 138.439 76.8036 138.308 76.3824 138.058C75.9612 137.809 75.6154 137.451 75.3815 137.022C73.7533 134.342 71.5336 132.069 68.8912 130.373C63.3545 126.9 56.8842 127.025 49.6597 130.744C49.019 131.074 48.2731 131.136 47.586 130.918C46.8989 130.7 46.3269 130.219 45.9958 129.58C45.6648 128.941 45.6019 128.198 45.8208 127.513C46.0398 126.828 46.5227 126.258 47.1633 125.928C58.5684 120.055 66.9677 122.684 72.0004 125.928C77.3848 129.39 80.048 134.24 80.1586 134.446C80.3803 134.858 80.4913 135.321 80.4809 135.788C80.4704 136.256 80.3388 136.712 80.0988 137.114C79.8589 137.516 79.5188 137.849 79.1115 138.081C78.7042 138.313 78.2437 138.436 77.7746 138.438Z" fill="#91FCA5"/>
<path d="M56.1318 128.27C55.6776 128.271 55.2302 128.159 54.8305 127.944C54.4308 127.729 54.0917 127.417 53.8439 127.037C48.1767 118.363 49.0814 111.135 50.8363 106.617C52.738 101.714 56.0412 98.8845 56.1808 98.767C56.4532 98.5366 56.7685 98.3619 57.1087 98.253C57.4489 98.1441 57.8072 98.1031 58.1633 98.1323C58.5194 98.1615 58.8662 98.2603 59.184 98.4232C59.5017 98.5861 59.7842 98.8098 60.0151 99.0815C60.4797 99.6282 60.7083 100.336 60.6509 101.05C60.5935 101.764 60.2547 102.427 59.7087 102.893C57.9908 104.536 56.6676 106.545 55.8381 108.769C54.0524 113.58 54.9172 118.732 58.4089 124.081C58.6038 124.379 58.7379 124.713 58.8034 125.063C58.8689 125.413 58.8646 125.773 58.7907 126.121C58.7168 126.469 58.5748 126.8 58.3727 127.094C58.1706 127.387 57.9125 127.638 57.613 127.832C57.1721 128.118 56.6576 128.27 56.1318 128.27Z" fill="#91FCA5"/>
</g>
<defs>
<clipPath id="clip0_274_3220">
<rect width="175" height="169" fill="white"/>
</clipPath>
</defs>
</svg>
