<svg  viewBox="0 0 31 21"  xmlns="http://www.w3.org/2000/svg">
<path d="M0.483712 0.0764732C0.36883 0.118799 0.21767 0.239727 0.139067 0.354609L0 0.560186V6.94518C0 13.2455 0 13.3302 0.120928 13.5297C0.350691 13.8985 0.423248 13.9106 2.90227 13.8925L5.13339 13.8743L5.31478 13.699C5.52641 13.4995 5.62315 13.2213 5.62315 12.8283V12.5744H6.24593H6.8687L6.97754 12.7618C7.14684 13.046 7.87241 13.7353 8.24728 13.959C9.76493 14.872 11.597 14.8478 13.03 13.8925C13.2295 13.7595 13.4109 13.6506 13.4411 13.6446C13.4714 13.6385 13.556 13.8804 13.6346 14.1888C14.463 17.3208 16.948 19.7635 20.0922 20.5254C22.0996 21.0151 24.1312 20.7854 26.0297 19.8603C28.4483 18.6873 30.2017 16.4138 30.7882 13.705C30.9636 12.8888 30.9757 11.1897 30.8185 10.3795C30.1594 7.0782 27.7771 4.44802 24.6088 3.52896C23.7623 3.28106 23.1335 3.19641 22.16 3.19641C21.1321 3.19641 20.467 3.29316 19.5661 3.57129C19.2396 3.67408 18.9675 3.74664 18.9615 3.73454C18.768 3.45036 16.9541 1.45505 16.8392 1.40063C16.7183 1.34622 15.3397 1.32808 11.1616 1.32808H5.64129L5.60501 0.929016C5.56873 0.46949 5.45385 0.263912 5.13339 0.106707C4.952 0.00996399 4.71014 -0.0021286 2.81157 0.00391769C1.33625 0.00391769 0.628825 0.0281029 0.483712 0.0764732ZM4.08132 6.95123V12.3627L2.79948 12.3809L1.5116 12.393V6.95123V1.50947L2.79948 1.52156L4.08132 1.5397V6.95123ZM16.8876 3.6378C17.4741 4.30895 17.5708 4.45406 17.4922 4.50244C17.1173 4.73825 16.3797 5.32475 16.0048 5.67544L15.5574 6.10473L15.0676 5.5666C14.4993 4.94987 14.3058 4.84708 13.9309 4.96801C13.5439 5.09498 13.3202 5.57869 13.4653 5.95962C13.4835 6.01403 14.5355 7.2475 15.7932 8.69259C17.0508 10.1377 18.0787 11.347 18.0787 11.3711C18.0787 11.4679 17.3652 11.6795 16.9239 11.7097C16.4039 11.746 15.9685 11.6674 15.509 11.4437C15.2611 11.3228 15.0132 11.0809 14.0881 10.0047C13.0179 8.7591 12.7579 8.52329 12.4677 8.52329C12.4012 8.52329 12.1049 8.63817 11.8086 8.77724L11.2765 9.03723H10.5207C9.77097 9.03723 9.75888 9.03723 9.28122 8.80747C8.8882 8.62003 8.71285 8.48096 8.30775 8.05772C7.86031 7.59214 7.78776 7.53773 7.5459 7.51354C7.21335 7.47726 6.90498 7.67075 6.77801 7.99725C6.6329 8.38422 6.75382 8.63817 7.40079 9.28513C7.87241 9.75675 8.04171 9.87768 8.52542 10.1135C9.32959 10.5065 9.77097 10.5972 10.7021 10.5609C11.2826 10.5428 11.5547 10.5065 11.8751 10.3977L12.2923 10.2526L12.7035 10.706C13.2658 11.3228 13.29 11.3711 13.1449 11.6493C13.0844 11.7702 12.8667 12.0423 12.6612 12.2418C11.73 13.1851 10.3756 13.3785 9.17843 12.7437C8.79146 12.5381 8.25938 12.006 8.03566 11.5949C7.95706 11.4558 7.79985 11.2744 7.68497 11.2018C7.49148 11.0749 7.41893 11.0628 6.55429 11.0628H5.62315V6.95123V2.83968H10.9077H16.1922L16.8876 3.6378ZM23.2786 4.78057C27.1665 5.34288 29.9599 9.13397 29.3613 13.046C28.9501 15.7306 27.0516 18.004 24.4879 18.8747C22.6861 19.4794 20.7573 19.3705 19.0643 18.5603C18.2843 18.1915 17.6736 17.7682 17.0992 17.212C16.1862 16.3292 15.4788 15.1562 15.1523 13.9953C15.0011 13.4451 14.8983 12.8767 14.9527 12.8767C14.9648 12.8767 15.0797 12.919 15.2006 12.9674C15.3216 13.0218 15.5997 13.1004 15.8234 13.1427C16.0471 13.1911 16.2406 13.2516 16.2467 13.2818C16.2588 13.306 16.3555 13.5962 16.4704 13.9167C16.9904 15.4343 18.0606 16.6496 19.4996 17.351C24.0163 19.558 29.059 15.6278 28.025 10.706C27.5353 8.38422 25.6609 6.55216 23.2726 6.06845C22.5289 5.91729 21.2531 5.97171 20.5396 6.18938C19.4452 6.51588 18.6592 6.98146 17.8731 7.76144L17.3955 8.23911L17.2383 8.05772C17.1536 7.95493 16.9662 7.73726 16.8271 7.574L16.5671 7.27168L16.948 6.88471C18.5927 5.19777 20.8842 4.44197 23.2786 4.78057ZM23.5507 7.70098C24.2521 7.93679 24.8144 8.29353 25.3344 8.81956C26.2655 9.76885 26.719 10.9539 26.6404 12.2116C26.5981 12.8948 26.4772 13.3362 26.1507 14.0013C25.413 15.5129 23.8651 16.4622 22.154 16.4562C20.8601 16.4562 19.7596 15.9724 18.8648 15.0111C18.4173 14.5334 18.1513 14.1102 17.9336 13.5357L17.7824 13.1306L18.1573 12.9976C18.8285 12.7558 19.6326 12.2237 19.8443 11.879C19.9531 11.6976 19.9833 11.3651 19.9047 11.1716C19.8805 11.1111 19.5419 10.7 19.1489 10.2465L18.4355 9.43025L18.5564 9.2549C18.8406 8.85584 19.5903 8.23911 20.0861 7.98516C20.8722 7.59214 21.3438 7.48935 22.281 7.51354C22.9461 7.53168 23.1396 7.56191 23.5507 7.70098Z"/>
</svg>
