<svg width="39" height="43" viewBox="0 0 39 43" fill="none" xmlns="http://www.w3.org/2000/svg">
<path d="M18.3231 0.127132C18.0205 0.186 17.4572 0.396243 17.0621 0.589667C16.4821 0.875598 16.213 1.07743 15.633 1.66611C14.4393 2.87712 14.0358 3.96197 14.0358 5.9719V7.12403L13.3044 7.51929C9.05909 9.7731 6.41944 13.7845 6.04956 18.5276C6.00752 19.0911 5.96549 21.244 5.96549 23.3212V27.0972L3.11568 30.8984C1.54366 32.9924 0.207019 34.8173 0.13136 34.9603C-0.162868 35.5321 0.0557016 36.3647 0.602126 36.7599L0.879541 36.9534L6.52873 36.9786L12.1779 36.9954L12.2704 37.357C12.8504 39.6613 14.5401 41.604 16.7258 42.4954C17.701 42.8906 18.2979 43 19.5 43C20.7274 43 21.3158 42.8906 22.3666 42.4617C24.4851 41.5871 26.158 39.6277 26.7296 37.357L26.8221 36.9954L32.4713 36.9786L38.1205 36.9534L38.3979 36.7599C38.9443 36.3647 39.1629 35.5321 38.8686 34.9603C38.793 34.8173 37.4563 32.9924 35.8927 30.9068L33.0513 27.114L33.0093 22.6148C32.9673 18.5529 32.9504 18.0231 32.7907 17.1821C32.0173 12.9772 29.4954 9.53763 25.6956 7.51929L24.9642 7.12403V5.9719C24.9642 3.97879 24.5355 2.84348 23.325 1.62407C22.7954 1.08584 22.5011 0.867189 21.9379 0.589667C20.7694 0.0178053 19.5504 -0.14198 18.3231 0.127132ZM20.6349 3.21351C21.5344 3.67604 22.022 4.49179 22.022 5.56823V6.22419L21.5008 6.15691C21.2065 6.12327 20.307 6.08964 19.5 6.08964C18.693 6.08964 17.7935 6.12327 17.5077 6.15691L16.978 6.22419V5.60187C16.978 4.71885 17.163 4.25631 17.7262 3.69286C18.3147 3.10418 18.7939 2.92757 19.6261 2.96121C20.0548 2.98644 20.3322 3.05372 20.6349 3.21351ZM21.6353 9.1676C25.1744 9.87402 28.2176 12.5147 29.4533 15.9543C29.571 16.2822 29.7476 16.9298 29.8484 17.3839C30.025 18.1576 30.0334 18.4435 30.067 23.0689C30.1006 27.299 30.1258 27.9802 30.2351 28.1988C30.3108 28.3418 31.2944 29.6789 32.4208 31.1675C33.5473 32.6644 34.4888 33.9343 34.5141 34.01C34.5645 34.1193 32.942 34.1361 19.5 34.1361C6.58757 34.1361 4.44391 34.1193 4.47753 34.0184C4.50275 33.9511 5.49472 32.6055 6.67164 31.0329C7.85696 29.4519 8.84052 28.0811 8.86574 27.9802C8.88256 27.8709 8.91618 25.6086 8.93299 22.9512C8.96662 17.6614 8.95821 17.7371 9.50464 16.0972C10.4546 13.2379 12.7916 10.7991 15.633 9.68059C17.5329 8.93213 19.5757 8.75552 21.6353 9.1676ZM23.7453 37.1804C23.6024 37.6514 23.1989 38.2569 22.6861 38.7699C20.9123 40.5527 18.1045 40.5527 16.3139 38.7783C15.8179 38.2821 15.2127 37.357 15.2127 37.0879C15.2127 37.0206 16.4148 36.9954 19.5084 36.9954H23.7957L23.7453 37.1804Z" fill="url(#paint0_linear_668_1247)"/>
<defs>
<linearGradient id="paint0_linear_668_1247" x1="0" y1="21.5" x2="39" y2="21.5" gradientUnits="userSpaceOnUse">
<stop stop-color="#C03593"/>
<stop offset="1" stop-color="#F08283"/>
</linearGradient>
</defs>
</svg>
