<svg width="21" height="21" viewBox="0 0 21 21" fill="none" xmlns="http://www.w3.org/2000/svg">
<path opacity="0.987" d="M15.8268 7.13587L3.53118 19.3512C3.08278 19.5559 2.72174 19.5896 2.42519 19.5154C2.12134 19.4395 1.81182 19.232 1.50698 18.8214C1.27067 18.3207 1.27641 17.8489 1.52436 17.3604L13.7476 5.05667L14.5945 4.20427L13.3929 4.20427L9.77046 4.20427C9.4308 4.12897 9.17227 3.99582 8.97563 3.81791C8.77571 3.63702 8.61643 3.38879 8.5092 3.05189C8.43212 2.59138 8.52406 2.19033 8.78773 1.81909C8.9871 1.62202 9.21295 1.4653 9.46745 1.34748C9.75271 1.29248 10.0411 1.25899 10.3327 1.24697C12.9348 1.26032 15.5347 1.247 18.1323 1.20699C18.6914 1.27692 19.1131 1.5402 19.4295 2.02097C19.5309 2.19327 19.5995 2.37497 19.6366 2.56822L19.6366 10.3894C19.6245 10.7362 19.5901 11.0799 19.5335 11.4207C19.346 11.8191 19.1153 12.0677 18.8587 12.2118C18.5987 12.3577 18.263 12.424 17.821 12.3709C17.4895 12.2637 17.2446 12.1057 17.0656 11.9079C16.8877 11.7112 16.7545 11.4527 16.6792 11.113L16.6792 7.49058L16.6792 6.28904L15.8268 7.13587Z" fill="white" stroke="white"/>
</svg>
