<svg viewBox="0 0 28 16" fill="none" xmlns="http://www.w3.org/2000/svg">
<path opacity="0.984" fill-rule="evenodd" clip-rule="evenodd" d="M-5.84129e-07 2.63669C-5.9669e-07 2.34932 -6.09254e-07 2.0619 -6.21815e-07 1.77454C0.379645 0.640973 1.16995 0.147069 2.37091 0.292719C2.5988 0.352799 2.81434 0.442571 3.01752 0.56214C6.61807 4.11775 10.2103 7.68312 13.7944 11.2582C17.3785 7.68312 20.9707 4.11775 24.5713 0.562139C25.5807 0.0427483 26.4698 0.195402 27.2385 1.02016C27.4015 1.25601 27.5183 1.50749 27.5888 1.77454C27.5888 2.0619 27.5888 2.34932 27.5888 2.63669C27.4966 2.92028 27.3619 3.1897 27.1846 3.44495C23.1343 7.49527 19.0841 11.5455 15.0337 15.5959C14.2075 16.1347 13.3813 16.1347 12.555 15.5959C8.50473 11.5455 4.45444 7.49527 0.404132 3.44495C0.238248 3.18501 0.103537 2.91559 -5.84129e-07 2.63669Z" fill="#CFCFCF"/>
</svg>
