<svg width="26" height="22" viewBox="0 0 26 22" fill="none" xmlns="http://www.w3.org/2000/svg">
<path opacity="0.969" d="M8.12464 0.950311L8.11013 0.949999L8.09562 0.950529C7.10946 0.986559 6.14936 1.18391 5.21745 1.54139L5.20712 1.54535L5.19697 1.54977C3.16586 2.43386 1.87209 3.97267 1.34608 6.12804C0.883048 7.80002 1.07798 9.40566 1.92811 10.9151L1.92799 10.9152L1.93404 10.9254C2.6637 12.1521 3.50846 13.295 4.46802 14.3537L4.46799 14.3537L4.47192 14.358C6.58097 16.6317 8.89634 18.6526 11.4176 20.4201L11.4283 20.4276L11.4394 20.4345C11.7929 20.6558 12.1673 20.834 12.5619 20.969L12.5764 20.974L12.5912 20.978C12.9909 21.0879 13.3925 21.0646 13.7795 20.9129L13.8061 20.9025L13.8313 20.8892C14.7508 20.4018 15.6168 19.8357 16.4288 19.1911C18.6713 17.456 20.7099 15.4991 22.5441 13.321L22.5441 13.321L22.549 13.315C23.2823 12.4162 23.916 11.4489 24.4499 10.4137L24.4539 10.4059L24.4577 10.398C24.9664 9.32047 25.127 8.18661 24.9376 7.00996C24.6664 4.70307 23.5162 2.95661 21.5111 1.81622L21.4925 1.80562L21.473 1.79666C19.8659 1.05685 18.3117 0.796485 16.8249 1.05601C15.4682 1.29284 14.2079 1.95556 13.0443 3.01172C12.8373 2.83349 12.6332 2.65151 12.4321 2.46579L12.4142 2.44934L12.3949 2.43469C11.1365 1.48064 9.70816 0.984407 8.12464 0.950311ZM12.178 6.48831L12.2415 6.55104L12.3227 6.58796C12.81 6.80944 13.3167 6.80944 13.804 6.58796L13.8852 6.55104L13.9487 6.48831C14.2132 6.22673 14.448 5.94156 14.6526 5.63315C15.3935 4.76928 16.31 4.21383 17.4155 3.95808C18.6294 3.83409 19.7171 4.12021 20.7016 4.82044C21.7321 5.81039 22.1638 6.99755 22.0102 8.42708C21.7214 9.28995 21.3016 10.0792 20.7499 10.7969C18.6748 13.3658 16.3076 15.6214 13.6477 17.5646C13.4608 17.6929 13.271 17.817 13.0783 17.9368C11.8366 17.0874 10.6485 16.1661 9.51378 15.1729C8.01796 13.8204 6.63923 12.362 5.37734 10.7977C4.92169 10.2013 4.54473 9.55563 4.2462 8.85972C3.94585 7.65109 4.13066 6.53541 4.80761 5.47983C5.53997 4.57681 6.47215 4.0673 7.6298 3.93724C8.83313 3.83205 9.87357 4.16587 10.7818 4.94657L11.4854 5.65009C11.6873 5.95201 11.9183 6.23153 12.178 6.48831Z" fill="white" stroke="white"/>
</svg>
