<svg  viewBox="0 0 29 28" fill="none" xmlns="http://www.w3.org/2000/svg">
<path d="M14.216 0.515003C13.8754 0.645058 13.572 0.84943 13.349 1.10335C13.2313 1.2334 12.4448 2.7507 11.4973 4.67675L9.84373 8.0272L6.14646 8.5598C2.10858 9.14814 2.02188 9.16672 1.5574 9.6312C1.17962 10.0152 1.00002 10.4673 1.00002 11.0556C1.00002 11.9226 0.962862 11.8793 4.03463 14.8705C5.71914 16.5117 6.72861 17.5398 6.72861 17.6141C6.72861 17.676 6.44992 19.3605 6.10311 21.3609C5.69437 23.77 5.49619 25.0643 5.52096 25.2068C5.60147 25.6775 5.7563 26.0181 6.0226 26.3153C6.51186 26.8603 7.2798 27.1142 7.94865 26.947C8.10967 26.9037 9.73225 26.0924 11.553 25.1387L14.8539 23.4046L18.161 25.1387C19.9756 26.0924 21.592 26.9099 21.7468 26.947C22.8306 27.2195 23.9949 26.4082 24.1621 25.2563C24.1993 25.0272 24.0692 24.1416 23.5738 21.237L22.9359 17.515L23.3632 17.1C23.5985 16.8709 24.8124 15.6818 26.0634 14.4618C28.6954 11.9041 28.6831 11.9164 28.6831 11.0246C28.6769 10.4053 28.5344 10.0338 28.1257 9.6312C27.655 9.16053 27.624 9.14814 23.5614 8.5598L19.8455 8.02101L18.1734 4.64578C16.396 1.04761 16.3341 0.942326 15.7395 0.632671C15.3618 0.440687 14.5814 0.378756 14.216 0.515003ZM18.4026 9.34632C18.6379 9.60643 19.0466 9.85415 19.3625 9.92847C19.4492 9.95324 21.1213 10.2072 23.0783 10.4982C25.0353 10.7893 26.6641 11.037 26.6951 11.0432C26.7198 11.0556 25.5308 12.2447 24.0444 13.6877C21.0656 16.5798 21.0284 16.6294 20.9851 17.3725C20.9727 17.6388 21.1337 18.7474 21.5548 21.2866C21.8831 23.2374 22.1494 24.8724 22.1494 24.9157C22.1494 24.9714 20.9231 24.3583 18.9166 23.2993C17.133 22.3642 15.5537 21.5591 15.4051 21.5157C15.0521 21.4042 14.6929 21.4042 14.3089 21.5219C14.1417 21.5714 12.5563 22.3642 10.7851 23.2869C9.02005 24.2097 7.55229 24.9529 7.53371 24.9467C7.50894 24.9343 7.76905 23.3427 8.10347 21.398C8.7971 17.3973 8.81568 17.1991 8.49364 16.6046C8.35739 16.3631 7.63899 15.6137 5.65721 13.6691C3.91076 11.9536 3.03135 11.0494 3.08709 11.0246C3.13044 10.9999 3.39055 10.9503 3.66304 10.9132C5.12461 10.7088 10.1534 9.97182 10.302 9.93467C10.3949 9.90989 10.5993 9.82938 10.7541 9.74887C11.3363 9.46399 11.4601 9.26581 13.219 5.71099L14.8601 2.38531L16.5137 5.73576C17.678 8.08913 18.2353 9.16053 18.4026 9.34632Z" fill="#292929" stroke="black" stroke-width="0.5"/>
</svg>
