<svg width="57" height="59" viewBox="0 0 57 59" fill="none" xmlns="http://www.w3.org/2000/svg">
<path opacity="0.97" fill-rule="evenodd" clip-rule="evenodd" d="M17.7131 0.681152C18.6972 0.681152 19.6812 0.681152 20.6653 0.681152C23.9433 1.24134 26.5548 2.86883 28.5 5.56362C30.4451 2.86883 33.0567 1.24134 36.3346 0.681152C37.3187 0.681152 38.3027 0.681152 39.2868 0.681152C43.2022 1.68461 45.3218 4.22046 45.6454 8.28872C45.6136 9.60832 45.273 10.8384 44.6235 11.979C47.3532 11.9846 50.0783 12.0603 52.7988 12.206C55.1596 12.9769 56.541 14.5855 56.9432 17.0317C57.0189 20.3624 57.0189 23.6931 56.9432 27.0238C56.8277 27.6156 56.5059 28.0508 55.9781 28.3295C55.0793 28.4886 54.171 28.5454 53.253 28.4999C53.3066 37.094 53.2498 45.6856 53.0826 54.2747C52.4754 56.6798 50.9803 58.1937 48.5976 58.8166C35.1992 58.8166 21.8008 58.8166 8.40239 58.8166C6.01962 58.1937 4.52461 56.6798 3.91733 54.2747C3.75014 45.6856 3.69337 37.094 3.74701 28.4999C2.82897 28.5454 1.9206 28.4886 1.02191 28.3295C0.494012 28.0508 0.172299 27.6156 0.0567732 27.0238C-0.0189244 23.6931 -0.0189244 20.3624 0.0567732 17.0317C0.457855 14.5864 1.83933 12.9779 4.20119 12.206C6.92159 12.0603 9.64669 11.9846 12.3765 11.979C10.9053 9.10029 11.0756 6.31842 12.8874 3.63334C14.1559 2.08182 15.7645 1.09776 17.7131 0.681152ZM18.2809 4.54171C21.709 4.41001 24.2259 5.84826 25.8317 8.85645C26.2924 9.86662 26.5384 10.9264 26.5697 12.0357C23.92 12.0546 21.2706 12.0357 18.6215 11.979C16.2224 11.4392 15.1437 9.94418 15.3855 7.4939C15.8405 5.99806 16.8057 5.014 18.2809 4.54171ZM37.0159 4.54171C39.7601 4.3354 41.3119 5.5844 41.6713 8.28872C41.5179 10.3538 40.4202 11.5839 38.3785 11.979C35.7293 12.0357 33.08 12.0546 30.4303 12.0357C30.8204 7.93719 33.0156 5.43919 37.0159 4.54171ZM5.33665 15.8963C11.1275 15.8963 16.9183 15.8963 22.7092 15.8963C22.7092 18.8107 22.7092 21.7249 22.7092 24.6393C16.4263 24.6393 10.1434 24.6393 3.86056 24.6393C3.84164 22.3302 3.86056 20.0215 3.91733 17.713C4.03719 16.8187 4.51029 16.2132 5.33665 15.8963ZM26.6833 15.8963C27.8944 15.8963 29.1055 15.8963 30.3167 15.8963C30.3167 18.8107 30.3167 21.7249 30.3167 24.6393C29.1055 24.6393 27.8944 24.6393 26.6833 24.6393C26.6833 21.7249 26.6833 18.8107 26.6833 15.8963ZM34.2908 15.8963C40.2019 15.841 46.1063 15.8978 52.004 16.0666C52.6622 16.4176 53.0218 16.9663 53.0826 17.713C53.1394 20.0215 53.1584 22.3302 53.1394 24.6393C46.8566 24.6393 40.5736 24.6393 34.2908 24.6393C34.2908 21.7249 34.2908 18.8107 34.2908 15.8963ZM7.72111 28.4999C12.7171 28.4999 17.7131 28.4999 22.7092 28.4999C22.7092 37.3186 22.7092 46.1373 22.7092 54.956C18.1672 54.975 13.6254 54.956 9.08366 54.8993C8.55171 54.746 8.1543 54.4243 7.89143 53.9341C7.72216 45.4626 7.66538 36.9845 7.72111 28.4999ZM26.6833 28.4999C27.8944 28.4999 29.1055 28.4999 30.3167 28.4999C30.3167 37.3186 30.3167 46.1373 30.3167 54.956C29.1055 54.956 27.8944 54.956 26.6833 54.956C26.6833 46.1373 26.6833 37.3186 26.6833 28.4999ZM34.2908 28.4999C39.2868 28.4999 44.2828 28.4999 49.2789 28.4999C49.3346 36.9845 49.2778 45.4626 49.1085 53.9341C48.8457 54.4243 48.4483 54.746 47.9163 54.8993C43.3746 54.956 38.8328 54.975 34.2908 54.956C34.2908 46.1373 34.2908 37.3186 34.2908 28.4999Z" fill="white"/>
</svg>
