<svg width="38" height="33" viewBox="0 0 38 33" fill="none" xmlns="http://www.w3.org/2000/svg">
<path d="M12.641 19.9646L12.6411 19.9648C13.3559 21.0481 14.3958 22.0586 15.5127 22.7589L15.5129 22.7591C15.9725 23.0495 16.8736 23.4816 17.3665 23.6545C20.7621 24.8269 24.4775 24.0193 27.0205 21.5536C27.8729 20.7271 28.44 19.9573 28.9375 18.9511L28.9376 18.9509C29.9551 16.9086 30.1984 14.6419 29.6417 12.4299L29.6417 12.4299C29.3211 11.1514 28.6574 9.83487 27.817 8.79911C27.4529 8.35036 26.6439 7.56731 26.1954 7.22905C24.8607 6.22982 23.3309 5.6032 21.6793 5.38938L21.6793 5.38937C21.4699 5.36206 21.0611 5.34259 20.651 5.33517C20.2408 5.32774 19.8361 5.33249 19.6343 5.35247C17.8495 5.53316 16.224 6.1635 14.8047 7.22886C14.3378 7.58184 13.5398 8.35758 13.1533 8.83611C10.573 12.0357 10.3666 16.5402 12.641 19.9646ZM20.7471 8.79023L20.7475 8.79037L21.1719 9.21L21.2282 9.17433C21.2283 9.17446 21.2284 9.17459 21.2285 9.17473C21.309 9.30216 21.3276 9.41519 21.3461 9.72575L21.3461 9.72651L21.3627 10.0709L21.6102 10.177L21.6105 10.1771C22.5979 10.6063 23.2567 11.5339 23.3062 12.5813L23.3062 12.5814C23.3136 12.7438 23.3158 12.8466 23.3068 12.9261C23.2972 13.0097 23.2754 13.0666 23.2398 13.1377L23.2396 13.1381C23.1269 13.3595 22.9031 13.5356 22.6649 13.5922C22.1211 13.723 21.6212 13.2646 21.6212 12.6698C21.6212 12.4975 21.5524 12.3092 21.4334 12.1402C21.3147 11.9716 21.149 11.8266 20.9619 11.7391C20.6827 11.61 20.3208 11.61 20.0416 11.7392C19.654 11.9189 19.4158 12.2682 19.4158 12.6587C19.4158 12.8216 19.4373 12.9516 19.4855 13.068C19.5336 13.1843 19.6102 13.2912 19.7263 13.4056C19.8216 13.499 19.8793 13.55 20.0228 13.624C20.1709 13.7003 20.4071 13.7993 20.8594 13.9854C21.8907 14.4083 22.2271 14.5949 22.5501 14.9525C23.0026 15.4468 23.2387 16.0186 23.2691 16.7058L23.2691 16.7059C23.2918 17.2364 23.2191 17.5856 22.9911 18.0416C22.7052 18.6133 22.2179 19.0619 21.6107 19.3276L21.6102 19.3278L21.3627 19.4339L21.3461 19.7783L21.3461 19.7786C21.3349 19.9917 21.3123 20.1461 21.2603 20.2704C21.2071 20.3976 21.1256 20.4879 21.0083 20.5779L21.008 20.5781C20.6079 20.8812 20.04 20.7665 19.7715 20.3301C19.6909 20.2026 19.6723 20.0896 19.6538 19.779L19.6538 19.7783L19.6372 19.4339L19.3897 19.3278L19.3895 19.3277C18.3982 18.8985 17.7432 17.9746 17.6937 16.9235L17.6937 16.9234C17.6863 16.761 17.6841 16.6582 17.6931 16.5787C17.7027 16.4951 17.7245 16.4382 17.7601 16.3671L17.7603 16.3667C17.873 16.1453 18.0968 15.9692 18.335 15.9126C18.8787 15.7818 19.3787 16.24 19.3787 16.8313C19.3787 17.1353 19.5755 17.4722 19.8756 17.6701C20.3224 17.9584 20.8184 17.8999 21.1611 17.6476C21.5036 17.3956 21.6925 16.951 21.5246 16.4593L21.5244 16.4588C21.4882 16.3502 21.4108 16.2364 21.2732 16.0988C21.1782 16.0038 21.1206 15.9529 20.9772 15.8795C20.8291 15.8036 20.593 15.7056 20.1406 15.5194C19.0974 15.0925 18.7689 14.906 18.4385 14.541L18.4384 14.5409C17.9861 14.0392 17.7612 13.4898 17.7308 12.799L17.7308 12.7988C17.7081 12.2606 17.7809 11.9189 18.02 11.4446C18.3024 10.876 18.8387 10.3938 19.4614 10.1431C19.4615 10.1431 19.4615 10.1431 19.4616 10.143L19.6373 10.0703L19.6538 9.73019L19.6538 9.72951C19.6723 9.41527 19.6908 9.30218 19.7715 9.17466C19.983 8.83182 20.385 8.67225 20.7471 8.79023Z" fill="white" stroke="white" stroke-width="0.133333"/>
<path d="M26.5 8.76514L30.5 4.76514" stroke="white" stroke-width="2"/>
<path d="M27.0001 20.3004L31.899 23.1288" stroke="white" stroke-width="2"/>
<path d="M13.4111 10.0873L8.51209 7.25886" stroke="white" stroke-width="2"/>
<path d="M16.5856 22.5899L13.7571 27.4889" stroke="white" stroke-width="2"/>
<path d="M12.0211 16.2145L6.3642 16.2145" stroke="white" stroke-width="2"/>
<circle cx="31.5" cy="3.76514" r="3" fill="white" stroke="white"/>
<circle cx="7.28713" cy="6.55177" r="3" transform="rotate(-105 7.28713 6.55177)" fill="white" stroke="white"/>
<circle cx="13.0501" cy="28.7136" r="3" transform="rotate(165 13.0501 28.7136)" fill="white" stroke="white"/>
<circle cx="33.124" cy="23.8359" r="3" transform="rotate(75 33.124 23.8359)" fill="white" stroke="white"/>
<circle cx="4.94971" cy="16.2148" r="3" transform="rotate(-135 4.94971 16.2148)" fill="white" stroke="white"/>
</svg>
