<svg width="399" height="384" viewBox="0 0 399 384" fill="none" xmlns="http://www.w3.org/2000/svg">
<mask id="mask0_690_444" style="mask-type:alpha" maskUnits="userSpaceOnUse" x="20" y="16" width="359" height="344">
<rect x="20" y="16" width="359" height="344" rx="20" fill="url(#paint0_linear_690_444)"/>
</mask>
<g mask="url(#mask0_690_444)">
<g filter="url(#filter0_d_690_444)">
<rect x="20" y="16" width="359" height="344" rx="20" fill="url(#paint1_linear_690_444)"/>
</g>
<path d="M268.905 87.9517L280.563 71.7011L268.905 87.9517C270.42 89.0389 271.909 90.1614 273.37 91.318C277.21 94.3585 280.857 97.6343 284.288 101.124C286.048 102.914 287.752 104.761 289.396 106.66C292.656 110.429 295.681 114.406 298.446 118.567L315.104 107.498L298.446 118.567C299.632 120.352 300.77 122.17 301.859 124.021L317.963 114.547L301.859 124.021C312.113 141.451 318 161.758 318 183.5C318 248.393 265.393 301 200.5 301C135.607 301 83 248.393 83 183.5C83 118.607 135.607 66 200.5 66C226.05 66 249.641 74.1318 268.905 87.9517Z" stroke="white" stroke-opacity="0.1" stroke-width="40" stroke-linecap="round"/>
<path d="M423.83 192.301C423.707 195.484 424.335 198.522 425.556 201.244C423.93 203.745 422.84 206.648 422.47 209.811C421.784 215.661 420.873 221.441 419.745 227.141C419.128 230.262 419.273 233.357 420.052 236.234C418.056 238.446 416.525 241.141 415.663 244.203C414.072 249.856 412.264 255.417 410.249 260.878C409.147 263.863 408.802 266.943 409.118 269.906C406.798 271.776 404.862 274.196 403.528 277.085C401.069 282.409 398.407 287.621 395.55 292.711C393.993 295.486 393.169 298.474 393.015 301.45C390.429 302.934 388.137 305.021 386.367 307.666C383.106 312.536 379.659 317.271 376.036 321.862C374.063 324.361 372.781 327.185 372.165 330.103C369.378 331.166 366.788 332.871 364.626 335.208C360.65 339.507 356.508 343.65 352.209 347.626C349.871 349.788 348.166 352.378 347.103 355.165C344.185 355.781 341.361 357.063 338.862 359.036C334.271 362.659 329.536 366.106 324.666 369.367C322.021 371.137 319.934 373.429 318.45 376.015C315.474 376.169 312.486 376.993 309.711 378.55C304.621 381.407 299.409 384.069 294.085 386.528C291.196 387.862 288.776 389.798 286.906 392.118C283.943 391.802 280.863 392.147 277.878 393.249C272.417 395.264 266.856 397.072 261.203 398.663C258.141 399.525 255.446 401.056 253.234 403.052C250.357 402.273 247.262 402.128 244.141 402.745C238.441 403.873 232.661 404.784 226.811 405.47C223.648 405.84 220.745 406.93 218.244 408.556C215.522 407.335 212.484 406.707 209.301 406.83C206.382 406.943 203.448 407 200.5 407C197.552 407 194.618 406.943 191.699 406.83C188.516 406.707 185.478 407.335 182.756 408.556C180.255 406.93 177.352 405.84 174.189 405.47C168.339 404.784 162.559 403.873 156.859 402.745C153.738 402.128 150.643 402.273 147.766 403.052C145.554 401.056 142.859 399.525 139.797 398.663C134.144 397.072 128.583 395.264 123.122 393.249C120.137 392.147 117.057 391.802 114.094 392.118C112.224 389.798 109.804 387.862 106.915 386.528C101.591 384.069 96.3786 381.407 91.289 378.55C88.5138 376.993 85.5261 376.169 82.5496 376.015C81.0657 373.429 78.9788 371.137 76.334 369.367C71.464 366.106 66.7286 362.659 62.1381 359.036C59.6388 357.063 56.8149 355.781 53.8972 355.165C52.8343 352.378 51.1293 349.788 48.7915 347.626C44.4925 343.65 40.35 339.508 36.3741 335.209C34.2121 332.871 31.6216 331.166 28.8352 330.103C28.2186 327.185 26.9374 324.361 24.9644 321.862C21.3407 317.271 17.8936 312.536 14.6332 307.666C12.8626 305.021 10.5707 302.934 7.98549 301.45C7.83149 298.474 7.00712 295.486 5.44959 292.711C2.5932 287.621 -0.0692558 282.409 -2.52796 277.085C-3.86198 274.196 -5.79788 271.776 -8.11792 269.906C-7.80238 266.943 -8.14686 263.863 -9.24846 260.878C-11.2639 255.417 -13.072 249.856 -14.6632 244.203C-15.5253 241.141 -17.0556 238.446 -19.0517 236.234C-18.273 233.357 -18.1279 230.262 -18.7455 227.141C-19.8731 221.441 -20.7842 215.661 -21.4696 209.811C-21.8401 206.648 -22.9296 203.745 -24.5555 201.244C-23.3349 198.522 -22.7071 195.484 -22.8302 192.301C-22.943 189.382 -23 186.448 -23 183.5C-23 180.552 -22.943 177.618 -22.8302 174.699C-22.7071 171.516 -23.3349 168.478 -24.5555 165.756C-22.9296 163.255 -21.8401 160.352 -21.4696 157.189C-20.7842 151.339 -19.8731 145.559 -18.7455 139.859C-18.1279 136.738 -18.273 133.643 -19.0517 130.766C-17.0556 128.554 -15.5253 125.859 -14.6631 122.797C-13.072 117.144 -11.2639 111.583 -9.24846 106.122C-8.14686 103.137 -7.80238 100.057 -8.11792 97.094C-5.79788 95.2236 -3.86198 92.8038 -2.52795 89.915C-0.0692482 84.5906 2.5932 79.3786 5.44959 74.289C7.00712 71.5138 7.83149 68.5261 7.98549 65.5496C10.5707 64.0657 12.8626 61.9788 14.6332 59.334C17.8936 54.464 21.3407 49.7286 24.9644 45.1381C26.9374 42.6388 28.2186 39.8149 28.8352 36.8972C31.6216 35.8343 34.212 34.1293 36.3741 31.7915C40.3499 27.4925 44.4925 23.35 48.7915 19.3741C51.1293 17.2121 52.8342 14.6216 53.8972 11.8352C56.8149 11.2186 59.6388 9.93741 62.1381 7.96445C66.7286 4.34074 71.4639 0.893604 76.334 -2.3668C78.9788 -4.13744 81.0657 -6.42927 82.5496 -9.01451C85.5261 -9.16851 88.5138 -9.99287 91.289 -11.5504C96.3786 -14.4068 101.591 -17.0693 106.915 -19.528C109.804 -20.862 112.224 -22.7979 114.094 -25.1179C117.057 -24.8024 120.137 -25.1469 123.122 -26.2485C128.583 -28.2639 134.144 -30.072 139.797 -31.6632C142.859 -32.5253 145.554 -34.0556 147.766 -36.0517C150.643 -35.273 153.738 -35.1279 156.859 -35.7455C162.559 -36.8731 168.339 -37.7842 174.189 -38.4696C177.352 -38.8401 180.256 -39.9296 182.756 -41.5555C185.478 -40.3349 188.516 -39.7071 191.699 -39.8302C194.618 -39.943 197.552 -40 200.5 -40C203.413 -40 206.311 -39.9444 209.195 -39.8343C212.339 -39.7142 215.342 -40.3267 218.038 -41.5195C220.52 -39.9295 223.392 -38.8657 226.517 -38.5038C232.306 -37.8333 238.027 -36.9418 243.669 -35.8382C246.753 -35.235 249.81 -35.3755 252.654 -36.135C254.857 -34.182 257.527 -32.6871 260.554 -31.845C266.152 -30.2875 271.661 -28.5175 277.073 -26.5441C280.024 -25.4677 283.066 -25.1299 285.993 -25.4366C287.865 -23.1639 290.269 -21.2709 293.128 -19.9671C298.407 -17.5598 303.576 -14.9528 308.626 -12.1554C311.376 -10.6321 314.329 -9.82539 317.271 -9.67354C318.767 -7.1363 320.85 -4.89184 323.474 -3.15945C325.891 -1.56341 328.276 0.0784416 330.627 1.76487C331.347 2.28147 332.064 2.80226 332.777 3.3272C333.504 3.86169 334.255 4.3398 335.025 4.76234C335.643 5.38612 336.309 5.97643 337.023 6.52799C337.724 7.06992 338.422 7.61592 339.117 8.16598C340.941 9.6104 342.743 11.0828 344.52 12.5825C346.409 14.1755 348.506 15.3586 350.704 16.1411C351.717 18.2427 353.118 20.2014 354.904 21.9085C356.586 23.5162 358.243 25.1498 359.874 26.8088C360.711 27.6599 361.541 28.5178 362.365 29.3822C363.209 30.2688 364.115 31.0608 365.07 31.7581C365.689 32.7662 366.405 33.7333 367.221 34.6463C368.016 35.5364 368.805 36.4328 369.586 37.3356C371.137 39.1287 372.661 40.9467 374.156 42.789C375.745 44.7479 377.628 46.3279 379.691 47.5169C380.284 49.8221 381.303 52.0594 382.765 54.115C384.139 56.0463 385.482 58.0003 386.795 59.9762C387.36 60.8255 387.918 61.6789 388.471 62.5364C389.036 63.4117 389.657 64.2282 390.328 64.9843C390.714 65.9176 391.177 66.8334 391.717 67.7238C392.246 68.5954 392.77 69.4708 393.287 70.3501C394.956 73.1874 396.564 76.0645 398.11 78.9797C399.818 82.2021 402.282 84.7658 405.168 86.5683C404.739 89.9432 405.166 93.4729 406.581 96.834C409.128 102.881 411.415 109.063 413.43 115.366C414.541 118.839 416.511 121.798 419.031 124.082C418.01 127.327 417.805 130.876 418.602 134.435C420.031 140.82 421.188 147.31 422.059 153.893C422.537 157.511 423.955 160.775 426.034 163.471C424.455 166.489 423.626 169.951 423.785 173.598C423.928 176.88 424 180.181 424 183.5C424 186.448 423.943 189.382 423.83 192.301Z" stroke="white" stroke-opacity="0.1" stroke-width="40" stroke-linecap="round" stroke-dasharray="20 20"/>
<path opacity="0.969" d="M171.38 133.5L171.366 133.5L171.352 133.5C165.814 133.702 160.424 134.804 155.181 136.806L155.171 136.81L155.161 136.814C143.886 141.699 136.775 150.123 133.862 162.048C131.293 171.25 132.359 180.017 137.056 188.32L137.056 188.32L137.062 188.33C141.277 195.385 146.158 201.957 151.702 208.047L151.706 208.051C164.016 221.262 177.527 233.001 192.24 243.268L192.251 243.276L192.262 243.283C194.185 244.481 196.221 245.446 198.369 246.177L198.383 246.182L198.398 246.186C200.234 246.689 202.06 246.587 203.858 245.885L203.884 245.875L203.91 245.862C209.2 243.07 214.181 239.829 218.851 236.137C231.93 226.065 243.82 214.704 254.519 202.057L254.519 202.057L254.524 202.051C258.736 196.911 262.377 191.38 265.445 185.457L265.449 185.45L265.453 185.442C268.247 179.55 269.12 173.38 268.07 166.944C266.573 154.146 260.239 144.57 249.094 138.261L249.076 138.25L249.056 138.241C239.939 134.063 231.287 132.664 223.115 134.084C215.066 135.483 207.529 139.608 200.504 146.42C198.682 144.907 196.899 143.349 195.152 141.743L195.134 141.726L195.115 141.712C188.113 136.428 180.196 133.689 171.38 133.5Z" fill="white" stroke="white"/>
<path opacity="0.969" d="M254.568 105L254.597 105L254.626 105.001C255.225 105.023 255.808 105.143 256.371 105.359L256.391 105.366L256.412 105.375C257.684 105.929 258.516 106.917 258.848 108.264C259.139 109.323 259.012 110.361 258.472 111.319L258.466 111.329L258.46 111.339C258.053 112.024 257.581 112.662 257.046 113.253L257.046 113.253L257.038 113.261C255.898 114.49 254.646 115.583 253.283 116.538L253.261 116.553L253.239 116.567C253.006 116.713 252.759 116.831 252.499 116.92L252.47 116.93L252.44 116.938C252.074 117.038 251.701 117.016 251.353 116.879L251.3 116.858L251.249 116.832C250.729 116.556 250.239 116.236 249.779 115.871C248.565 114.931 247.461 113.871 246.467 112.692L246.462 112.686L246.457 112.68C246.041 112.169 245.681 111.62 245.378 111.032L245.37 111.017L245.362 111.001C245.034 110.307 244.928 109.567 245.047 108.81C245.22 107.379 245.956 106.262 247.208 105.55L247.245 105.529L247.284 105.511C248.232 105.075 249.198 104.9 250.154 105.066C250.82 105.183 251.433 105.456 251.994 105.859C252.756 105.309 253.622 105.021 254.568 105Z" stroke="white" stroke-width="2"/>
<path opacity="0.969" d="M156.85 255L156.882 255L156.913 255.001C157.482 255.023 158.034 255.148 158.564 255.37L158.586 255.379L158.607 255.389C159.811 255.96 160.565 256.964 160.863 258.283C161.124 259.322 161.012 260.339 160.523 261.287L160.517 261.297L160.512 261.307C160.139 261.99 159.707 262.628 159.215 263.22L159.215 263.22L159.208 263.229C158.162 264.459 157.012 265.555 155.757 266.514L155.736 266.53L155.714 266.545C155.494 266.695 155.259 266.818 155.01 266.91L154.979 266.922L154.948 266.931C154.577 267.043 154.196 267.017 153.848 266.868L153.793 266.844L153.741 266.814C153.258 266.535 152.805 266.212 152.38 265.844C151.263 264.901 150.249 263.839 149.338 262.659L149.333 262.653L149.329 262.647C148.946 262.135 148.617 261.587 148.34 261.001L148.333 260.986L148.327 260.971C148.03 260.286 147.936 259.562 148.043 258.821C148.197 257.422 148.858 256.299 150.033 255.57L150.072 255.546L150.112 255.526C150.998 255.081 151.919 254.894 152.837 255.069C153.441 255.184 153.993 255.446 154.494 255.821C155.187 255.301 155.98 255.021 156.85 255Z" stroke="white" stroke-width="2"/>
<path d="M136.744 249C113.939 226.172 89.0108 173.541 134.21 120.91C165.25 84.7657 218.462 87.9362 240 101.253" stroke="white" stroke-width="5"/>
<path opacity="0.969" d="M283.871 115L283.903 115L283.935 115.001C285.074 115.047 286.18 115.299 287.249 115.751L287.271 115.76L287.292 115.771C289.652 116.905 291.13 118.874 291.724 121.556C292.247 123.645 292.027 125.662 291.059 127.559L291.054 127.569L291.049 127.579C290.241 129.077 289.305 130.475 288.241 131.772L288.241 131.772L288.234 131.78C285.914 134.541 283.366 136.997 280.589 139.146L280.567 139.162L280.545 139.177C280.129 139.465 279.686 139.698 279.218 139.875L279.187 139.887L279.155 139.896C278.602 140.064 278.041 140.026 277.515 139.799L277.459 139.775L277.407 139.744C276.378 139.142 275.411 138.444 274.504 137.65C272.034 135.54 269.79 133.161 267.772 130.516L267.768 130.51L267.763 130.504C266.947 129.399 266.242 128.212 265.649 126.943L265.642 126.928L265.636 126.913C265.055 125.555 264.873 124.129 265.086 122.654C265.393 119.792 266.698 117.572 269.015 116.117L269.053 116.093L269.094 116.073C270.919 115.145 272.728 114.798 274.485 115.137C275.948 115.418 277.29 116.159 278.514 117.291C278.623 117.184 278.732 117.075 278.839 116.965L278.874 116.93L278.911 116.899C280.359 115.687 282.023 115.044 283.871 115Z" stroke="white" stroke-width="2"/>
<circle cx="136" cy="248" r="3" fill="white"/>
<circle cx="170.172" cy="269.193" r="3.23138" transform="rotate(20.291 170.172 269.193)" fill="white"/>
<circle cx="286.239" cy="151.601" r="3.23138" transform="rotate(20.291 286.239 151.601)" fill="white"/>
<circle cx="240" cy="102" r="3" fill="white"/>
<path d="M286.47 151C293.66 169.454 299.539 214.762 265.533 248.362C231.526 281.961 188.342 276.785 171 269.998" stroke="white" stroke-width="5"/>
</g>
<defs>
<filter id="filter0_d_690_444" x="0" y="0" width="399" height="384" filterUnits="userSpaceOnUse" color-interpolation-filters="sRGB">
<feFlood flood-opacity="0" result="BackgroundImageFix"/>
<feColorMatrix in="SourceAlpha" type="matrix" values="0 0 0 0 0 0 0 0 0 0 0 0 0 0 0 0 0 0 127 0" result="hardAlpha"/>
<feOffset dy="4"/>
<feGaussianBlur stdDeviation="10"/>
<feComposite in2="hardAlpha" operator="out"/>
<feColorMatrix type="matrix" values="0 0 0 0 0.537595 0 0 0 0 0.537595 0 0 0 0 0.537595 0 0 0 0.25 0"/>
<feBlend mode="normal" in2="BackgroundImageFix" result="effect1_dropShadow_690_444"/>
<feBlend mode="normal" in="SourceGraphic" in2="effect1_dropShadow_690_444" result="shape"/>
</filter>
<linearGradient id="paint0_linear_690_444" x1="370.586" y1="21.6912" x2="-2.65187" y2="306.808" gradientUnits="userSpaceOnUse">
<stop stop-color="#BC4DFA"/>
<stop offset="0.24" stop-color="#E403B2"/>
<stop offset="0.53" stop-color="#FF2082"/>
<stop offset="0.797202" stop-color="#FE585B"/>
<stop offset="1" stop-color="#FFB95A"/>
</linearGradient>
<linearGradient id="paint1_linear_690_444" x1="370.586" y1="21.6912" x2="-2.65187" y2="306.808" gradientUnits="userSpaceOnUse">
<stop stop-color="#BC4DFA"/>
<stop offset="0.24" stop-color="#E403B2"/>
<stop offset="0.53" stop-color="#FF2082"/>
<stop offset="0.797202" stop-color="#FE585B"/>
<stop offset="1" stop-color="#FFB95A"/>
</linearGradient>
</defs>
</svg>
