<svg viewBox="0 0 26 27" fill="none" xmlns="http://www.w3.org/2000/svg">
<path d="M12.0259 0.0150623C11.9293 0.0252323 11.6293 0.0608292 11.3648 0.091341C7.34234 0.549021 3.62497 3.07134 1.58067 6.72768C0.838214 8.06004 0.299171 9.71276 0.0703313 11.3757C-0.0313751 12.1029 -0.0212044 14.0556 0.0906726 14.7828C0.548351 17.7628 1.77391 20.1987 3.84364 22.243C4.16401 22.5583 4.63186 22.9804 4.88104 23.1838C8.14073 25.7875 12.4785 26.6621 16.5264 25.5281C21.2507 24.2059 24.8969 20.2241 25.7766 15.4236C26.5699 11.1265 25.2528 6.87007 22.1915 3.80363C20.1624 1.77967 17.7215 0.554106 14.8228 0.111683C14.3143 0.0354042 12.4226 -0.0307064 12.0259 0.0150623ZM14.0346 1.561C18.0266 1.92714 21.5609 4.37318 23.3153 7.98884C23.8544 9.09236 24.1595 10.0687 24.3629 11.3502C24.49 12.1334 24.49 13.8726 24.3629 14.6811C24.0578 16.6339 23.3102 18.3883 22.1152 19.9699C21.749 20.4479 20.8998 21.3937 20.8286 21.3937C20.8083 21.3937 20.7371 21.2259 20.676 21.0225C20.0658 19.1206 18.5351 17.3458 16.6993 16.4152L16.1094 16.1152L16.5163 15.7897C17.4672 15.0422 18.1639 13.959 18.4894 12.7233C18.5961 12.3215 18.6114 12.1537 18.6114 11.3502C18.6114 10.5112 18.5961 10.3942 18.469 9.93143C17.9554 8.08038 16.6434 6.66666 14.8381 6.02082C13.7397 5.62417 12.2446 5.62417 11.1462 6.02082C9.34087 6.66666 8.02885 8.08038 7.51524 9.93143C7.3881 10.3942 7.37285 10.5112 7.37285 11.3502C7.37285 12.1537 7.3881 12.3215 7.4949 12.7233C7.82036 13.959 8.51705 15.0422 9.468 15.7897L9.87483 16.1152L9.28493 16.4152C7.45421 17.3458 5.90319 19.1409 5.30821 21.0276C5.2421 21.2259 5.17599 21.3937 5.15565 21.3937C5.09971 21.3937 4.36743 20.6004 4.02671 20.1733C2.64859 18.4493 1.76374 16.283 1.55524 14.1014C1.19419 10.3993 2.72487 6.63615 5.56756 4.24096C7.92715 2.25769 11.0038 1.28131 14.0346 1.561ZM13.9838 7.36335C15.3721 7.69898 16.4603 8.72113 16.9383 10.1298C17.1316 10.7095 17.1672 11.6655 17.0197 12.2961C16.8214 13.125 16.4451 13.7708 15.8196 14.3607C15.3568 14.8032 14.894 15.0829 14.2635 15.3015C13.8007 15.4592 13.7498 15.4693 12.9921 15.4693C12.2344 15.4693 12.1836 15.4592 11.7208 15.3015C11.0902 15.0829 10.6275 14.8032 10.1647 14.3607C9.53919 13.7708 9.16288 13.125 8.96455 12.2961C8.82725 11.7113 8.85268 10.7197 9.02558 10.1806C9.69175 8.06004 11.8378 6.83956 13.9838 7.36335ZM14.3194 17.1729C16.2569 17.5696 17.9198 18.8206 18.8301 20.575C19.1098 21.109 19.3742 21.8565 19.4301 22.2481L19.4607 22.4973L19.0894 22.7363C18.5707 23.0719 17.3909 23.6415 16.7756 23.8499C16.1298 24.0737 15.3619 24.2619 14.6449 24.3788C13.8566 24.5009 12.1073 24.5009 11.3394 24.3737C9.72735 24.1144 8.27295 23.5855 6.99654 22.7922L6.5236 22.4973L6.54903 22.2633C6.58462 21.948 6.85923 21.1446 7.0779 20.7072C7.71356 19.4359 8.80182 18.3527 10.0833 17.7069C10.719 17.3916 11.6242 17.1373 12.4073 17.0509C12.8091 17.0102 13.821 17.0712 14.3194 17.1729Z" fill="#409798"/>
</svg>
