<svg  viewBox="0 0 33 22" fill="none" xmlns="http://www.w3.org/2000/svg">
<mask id="path-1-outside-1_770_150" maskUnits="userSpaceOnUse" x="0" y="0.776367" width="33" height="22" fill="black">
<rect fill="white" y="0.776367" width="33" height="22"/>
<path d="M1.48371 1.07647C1.36883 1.1188 1.21767 1.23973 1.13907 1.35461L1 1.56019V7.94518C1 14.2455 1 14.3302 1.12093 14.5297C1.35069 14.8985 1.42325 14.9106 3.90227 14.8925L6.13339 14.8743L6.31478 14.699C6.52641 14.4995 6.62315 14.2213 6.62315 13.8283V13.5744H7.24593H7.86871L7.97754 13.7618C8.14684 14.046 8.87241 14.7353 9.24728 14.959C10.7649 15.872 12.597 15.8478 14.03 14.8925C14.2295 14.7595 14.4109 14.6506 14.4411 14.6446C14.4714 14.6385 14.556 14.8804 14.6346 15.1888C15.463 18.3208 17.948 20.7635 21.0922 21.5254C23.0996 22.0151 25.1312 21.7854 27.0297 20.8603C29.4483 19.6873 31.2017 17.4138 31.7882 14.705C31.9636 13.8888 31.9757 12.1897 31.8185 11.3795C31.1594 8.0782 28.7771 5.44802 25.6088 4.52896C24.7623 4.28106 24.1335 4.19641 23.16 4.19641C22.1322 4.19641 21.467 4.29316 20.5661 4.57129C20.2396 4.67408 19.9675 4.74664 19.9615 4.73454C19.768 4.45036 17.9541 2.45505 17.8392 2.40063C17.7183 2.34622 16.3397 2.32808 12.1616 2.32808H6.64129L6.60501 1.92902C6.56873 1.46949 6.45385 1.26391 6.13339 1.10671C5.952 1.00996 5.71014 0.997871 3.81157 1.00392C2.33625 1.00392 1.62883 1.0281 1.48371 1.07647ZM5.08132 7.95123V13.3627L3.79948 13.3809L2.5116 13.393V7.95123V2.50947L3.79948 2.52156L5.08132 2.5397V7.95123ZM17.8876 4.6378C18.4741 5.30895 18.5708 5.45406 18.4922 5.50244C18.1173 5.73825 17.3797 6.32475 17.0048 6.67544L16.5574 7.10473L16.0676 6.5666C15.4993 5.94987 15.3058 5.84708 14.9309 5.96801C14.5439 6.09498 14.3202 6.57869 14.4653 6.95962C14.4835 7.01403 15.5355 8.2475 16.7932 9.69259C18.0508 11.1377 19.0787 12.347 19.0787 12.3711C19.0787 12.4679 18.3652 12.6795 17.9239 12.7097C17.4039 12.746 16.9685 12.6674 16.509 12.4437C16.2611 12.3228 16.0132 12.0809 15.0881 11.0047C14.0179 9.7591 13.7579 9.52329 13.4677 9.52329C13.4012 9.52329 13.1049 9.63817 12.8086 9.77724L12.2765 10.0372H11.5207C10.771 10.0372 10.7589 10.0372 10.2812 9.80747C9.8882 9.62003 9.71286 9.48096 9.30775 9.05772C8.86031 8.59214 8.78776 8.53773 8.5459 8.51354C8.21335 8.47726 7.90498 8.67075 7.77801 8.99725C7.6329 9.38422 7.75382 9.63817 8.40079 10.2851C8.87241 10.7568 9.04171 10.8777 9.52542 11.1135C10.3296 11.5065 10.771 11.5972 11.7021 11.5609C12.2826 11.5428 12.5547 11.5065 12.8751 11.3977L13.2923 11.2526L13.7035 11.706C14.2658 12.3228 14.29 12.3711 14.1449 12.6493C14.0844 12.7702 13.8667 13.0423 13.6612 13.2418C12.73 14.1851 11.3756 14.3785 10.1784 13.7437C9.79146 13.5381 9.25938 13.006 9.03566 12.5949C8.95706 12.4558 8.79985 12.2744 8.68497 12.2018C8.49148 12.0749 8.41893 12.0628 7.55429 12.0628H6.62315V7.95123V3.83968H11.9077H17.1922L17.8876 4.6378ZM24.2786 5.78057C28.1665 6.34288 30.9599 10.134 30.3613 14.046C29.9501 16.7306 28.0516 19.004 25.4879 19.8747C23.6861 20.4794 21.7573 20.3705 20.0643 19.5603C19.2843 19.1915 18.6736 18.7682 18.0992 18.212C17.1862 17.3292 16.4788 16.1562 16.1523 14.9953C16.0011 14.4451 15.8983 13.8767 15.9527 13.8767C15.9648 13.8767 16.0797 13.919 16.2006 13.9674C16.3216 14.0218 16.5997 14.1004 16.8234 14.1427C17.0471 14.1911 17.2406 14.2516 17.2467 14.2818C17.2588 14.306 17.3555 14.5962 17.4704 14.9167C17.9904 16.4343 19.0606 17.6496 20.4996 18.351C25.0163 20.558 30.059 16.6278 29.025 11.706C28.5353 9.38422 26.6609 7.55216 24.2726 7.06845C23.5289 6.91729 22.2531 6.97171 21.5396 7.18938C20.4452 7.51588 19.6592 7.98146 18.8731 8.76144L18.3955 9.23911L18.2383 9.05772C18.1536 8.95493 17.9662 8.73726 17.8271 8.574L17.5671 8.27168L17.948 7.88471C19.5927 6.19777 21.8842 5.44197 24.2786 5.78057ZM24.5507 8.70098C25.2521 8.93679 25.8144 9.29353 26.3344 9.81956C27.2655 10.7688 27.719 11.9539 27.6404 13.2116C27.5981 13.8948 27.4772 14.3362 27.1507 15.0013C26.413 16.5129 24.8651 17.4622 23.154 17.4562C21.8601 17.4562 20.7596 16.9724 19.8648 16.0111C19.4173 15.5334 19.1513 15.1102 18.9336 14.5357L18.7824 14.1306L19.1573 13.9976C19.8285 13.7558 20.6326 13.2237 20.8443 12.879C20.9531 12.6976 20.9833 12.3651 20.9047 12.1716C20.8805 12.1111 20.542 11.7 20.1489 11.2465L19.4355 10.4302L19.5564 10.2549C19.8406 9.85584 20.5903 9.23911 21.0861 8.98516C21.8722 8.59214 22.3438 8.48935 23.281 8.51354C23.9461 8.53168 24.1396 8.56191 24.5507 8.70098Z"/>
</mask>
<path d="M1.48371 1.07647C1.36883 1.1188 1.21767 1.23973 1.13907 1.35461L1 1.56019V7.94518C1 14.2455 1 14.3302 1.12093 14.5297C1.35069 14.8985 1.42325 14.9106 3.90227 14.8925L6.13339 14.8743L6.31478 14.699C6.52641 14.4995 6.62315 14.2213 6.62315 13.8283V13.5744H7.24593H7.86871L7.97754 13.7618C8.14684 14.046 8.87241 14.7353 9.24728 14.959C10.7649 15.872 12.597 15.8478 14.03 14.8925C14.2295 14.7595 14.4109 14.6506 14.4411 14.6446C14.4714 14.6385 14.556 14.8804 14.6346 15.1888C15.463 18.3208 17.948 20.7635 21.0922 21.5254C23.0996 22.0151 25.1312 21.7854 27.0297 20.8603C29.4483 19.6873 31.2017 17.4138 31.7882 14.705C31.9636 13.8888 31.9757 12.1897 31.8185 11.3795C31.1594 8.0782 28.7771 5.44802 25.6088 4.52896C24.7623 4.28106 24.1335 4.19641 23.16 4.19641C22.1322 4.19641 21.467 4.29316 20.5661 4.57129C20.2396 4.67408 19.9675 4.74664 19.9615 4.73454C19.768 4.45036 17.9541 2.45505 17.8392 2.40063C17.7183 2.34622 16.3397 2.32808 12.1616 2.32808H6.64129L6.60501 1.92902C6.56873 1.46949 6.45385 1.26391 6.13339 1.10671C5.952 1.00996 5.71014 0.997871 3.81157 1.00392C2.33625 1.00392 1.62883 1.0281 1.48371 1.07647ZM5.08132 7.95123V13.3627L3.79948 13.3809L2.5116 13.393V7.95123V2.50947L3.79948 2.52156L5.08132 2.5397V7.95123ZM17.8876 4.6378C18.4741 5.30895 18.5708 5.45406 18.4922 5.50244C18.1173 5.73825 17.3797 6.32475 17.0048 6.67544L16.5574 7.10473L16.0676 6.5666C15.4993 5.94987 15.3058 5.84708 14.9309 5.96801C14.5439 6.09498 14.3202 6.57869 14.4653 6.95962C14.4835 7.01403 15.5355 8.2475 16.7932 9.69259C18.0508 11.1377 19.0787 12.347 19.0787 12.3711C19.0787 12.4679 18.3652 12.6795 17.9239 12.7097C17.4039 12.746 16.9685 12.6674 16.509 12.4437C16.2611 12.3228 16.0132 12.0809 15.0881 11.0047C14.0179 9.7591 13.7579 9.52329 13.4677 9.52329C13.4012 9.52329 13.1049 9.63817 12.8086 9.77724L12.2765 10.0372H11.5207C10.771 10.0372 10.7589 10.0372 10.2812 9.80747C9.8882 9.62003 9.71286 9.48096 9.30775 9.05772C8.86031 8.59214 8.78776 8.53773 8.5459 8.51354C8.21335 8.47726 7.90498 8.67075 7.77801 8.99725C7.6329 9.38422 7.75382 9.63817 8.40079 10.2851C8.87241 10.7568 9.04171 10.8777 9.52542 11.1135C10.3296 11.5065 10.771 11.5972 11.7021 11.5609C12.2826 11.5428 12.5547 11.5065 12.8751 11.3977L13.2923 11.2526L13.7035 11.706C14.2658 12.3228 14.29 12.3711 14.1449 12.6493C14.0844 12.7702 13.8667 13.0423 13.6612 13.2418C12.73 14.1851 11.3756 14.3785 10.1784 13.7437C9.79146 13.5381 9.25938 13.006 9.03566 12.5949C8.95706 12.4558 8.79985 12.2744 8.68497 12.2018C8.49148 12.0749 8.41893 12.0628 7.55429 12.0628H6.62315V7.95123V3.83968H11.9077H17.1922L17.8876 4.6378ZM24.2786 5.78057C28.1665 6.34288 30.9599 10.134 30.3613 14.046C29.9501 16.7306 28.0516 19.004 25.4879 19.8747C23.6861 20.4794 21.7573 20.3705 20.0643 19.5603C19.2843 19.1915 18.6736 18.7682 18.0992 18.212C17.1862 17.3292 16.4788 16.1562 16.1523 14.9953C16.0011 14.4451 15.8983 13.8767 15.9527 13.8767C15.9648 13.8767 16.0797 13.919 16.2006 13.9674C16.3216 14.0218 16.5997 14.1004 16.8234 14.1427C17.0471 14.1911 17.2406 14.2516 17.2467 14.2818C17.2588 14.306 17.3555 14.5962 17.4704 14.9167C17.9904 16.4343 19.0606 17.6496 20.4996 18.351C25.0163 20.558 30.059 16.6278 29.025 11.706C28.5353 9.38422 26.6609 7.55216 24.2726 7.06845C23.5289 6.91729 22.2531 6.97171 21.5396 7.18938C20.4452 7.51588 19.6592 7.98146 18.8731 8.76144L18.3955 9.23911L18.2383 9.05772C18.1536 8.95493 17.9662 8.73726 17.8271 8.574L17.5671 8.27168L17.948 7.88471C19.5927 6.19777 21.8842 5.44197 24.2786 5.78057ZM24.5507 8.70098C25.2521 8.93679 25.8144 9.29353 26.3344 9.81956C27.2655 10.7688 27.719 11.9539 27.6404 13.2116C27.5981 13.8948 27.4772 14.3362 27.1507 15.0013C26.413 16.5129 24.8651 17.4622 23.154 17.4562C21.8601 17.4562 20.7596 16.9724 19.8648 16.0111C19.4173 15.5334 19.1513 15.1102 18.9336 14.5357L18.7824 14.1306L19.1573 13.9976C19.8285 13.7558 20.6326 13.2237 20.8443 12.879C20.9531 12.6976 20.9833 12.3651 20.9047 12.1716C20.8805 12.1111 20.542 11.7 20.1489 11.2465L19.4355 10.4302L19.5564 10.2549C19.8406 9.85584 20.5903 9.23911 21.0861 8.98516C21.8722 8.59214 22.3438 8.48935 23.281 8.51354C23.9461 8.53168 24.1396 8.56191 24.5507 8.70098Z" fill="white" fill-opacity="0.5"/>
<path d="M1.48371 1.07647C1.36883 1.1188 1.21767 1.23973 1.13907 1.35461L1 1.56019V7.94518C1 14.2455 1 14.3302 1.12093 14.5297C1.35069 14.8985 1.42325 14.9106 3.90227 14.8925L6.13339 14.8743L6.31478 14.699C6.52641 14.4995 6.62315 14.2213 6.62315 13.8283V13.5744H7.24593H7.86871L7.97754 13.7618C8.14684 14.046 8.87241 14.7353 9.24728 14.959C10.7649 15.872 12.597 15.8478 14.03 14.8925C14.2295 14.7595 14.4109 14.6506 14.4411 14.6446C14.4714 14.6385 14.556 14.8804 14.6346 15.1888C15.463 18.3208 17.948 20.7635 21.0922 21.5254C23.0996 22.0151 25.1312 21.7854 27.0297 20.8603C29.4483 19.6873 31.2017 17.4138 31.7882 14.705C31.9636 13.8888 31.9757 12.1897 31.8185 11.3795C31.1594 8.0782 28.7771 5.44802 25.6088 4.52896C24.7623 4.28106 24.1335 4.19641 23.16 4.19641C22.1322 4.19641 21.467 4.29316 20.5661 4.57129C20.2396 4.67408 19.9675 4.74664 19.9615 4.73454C19.768 4.45036 17.9541 2.45505 17.8392 2.40063C17.7183 2.34622 16.3397 2.32808 12.1616 2.32808H6.64129L6.60501 1.92902C6.56873 1.46949 6.45385 1.26391 6.13339 1.10671C5.952 1.00996 5.71014 0.997871 3.81157 1.00392C2.33625 1.00392 1.62883 1.0281 1.48371 1.07647ZM5.08132 7.95123V13.3627L3.79948 13.3809L2.5116 13.393V7.95123V2.50947L3.79948 2.52156L5.08132 2.5397V7.95123ZM17.8876 4.6378C18.4741 5.30895 18.5708 5.45406 18.4922 5.50244C18.1173 5.73825 17.3797 6.32475 17.0048 6.67544L16.5574 7.10473L16.0676 6.5666C15.4993 5.94987 15.3058 5.84708 14.9309 5.96801C14.5439 6.09498 14.3202 6.57869 14.4653 6.95962C14.4835 7.01403 15.5355 8.2475 16.7932 9.69259C18.0508 11.1377 19.0787 12.347 19.0787 12.3711C19.0787 12.4679 18.3652 12.6795 17.9239 12.7097C17.4039 12.746 16.9685 12.6674 16.509 12.4437C16.2611 12.3228 16.0132 12.0809 15.0881 11.0047C14.0179 9.7591 13.7579 9.52329 13.4677 9.52329C13.4012 9.52329 13.1049 9.63817 12.8086 9.77724L12.2765 10.0372H11.5207C10.771 10.0372 10.7589 10.0372 10.2812 9.80747C9.8882 9.62003 9.71286 9.48096 9.30775 9.05772C8.86031 8.59214 8.78776 8.53773 8.5459 8.51354C8.21335 8.47726 7.90498 8.67075 7.77801 8.99725C7.6329 9.38422 7.75382 9.63817 8.40079 10.2851C8.87241 10.7568 9.04171 10.8777 9.52542 11.1135C10.3296 11.5065 10.771 11.5972 11.7021 11.5609C12.2826 11.5428 12.5547 11.5065 12.8751 11.3977L13.2923 11.2526L13.7035 11.706C14.2658 12.3228 14.29 12.3711 14.1449 12.6493C14.0844 12.7702 13.8667 13.0423 13.6612 13.2418C12.73 14.1851 11.3756 14.3785 10.1784 13.7437C9.79146 13.5381 9.25938 13.006 9.03566 12.5949C8.95706 12.4558 8.79985 12.2744 8.68497 12.2018C8.49148 12.0749 8.41893 12.0628 7.55429 12.0628H6.62315V7.95123V3.83968H11.9077H17.1922L17.8876 4.6378ZM24.2786 5.78057C28.1665 6.34288 30.9599 10.134 30.3613 14.046C29.9501 16.7306 28.0516 19.004 25.4879 19.8747C23.6861 20.4794 21.7573 20.3705 20.0643 19.5603C19.2843 19.1915 18.6736 18.7682 18.0992 18.212C17.1862 17.3292 16.4788 16.1562 16.1523 14.9953C16.0011 14.4451 15.8983 13.8767 15.9527 13.8767C15.9648 13.8767 16.0797 13.919 16.2006 13.9674C16.3216 14.0218 16.5997 14.1004 16.8234 14.1427C17.0471 14.1911 17.2406 14.2516 17.2467 14.2818C17.2588 14.306 17.3555 14.5962 17.4704 14.9167C17.9904 16.4343 19.0606 17.6496 20.4996 18.351C25.0163 20.558 30.059 16.6278 29.025 11.706C28.5353 9.38422 26.6609 7.55216 24.2726 7.06845C23.5289 6.91729 22.2531 6.97171 21.5396 7.18938C20.4452 7.51588 19.6592 7.98146 18.8731 8.76144L18.3955 9.23911L18.2383 9.05772C18.1536 8.95493 17.9662 8.73726 17.8271 8.574L17.5671 8.27168L17.948 7.88471C19.5927 6.19777 21.8842 5.44197 24.2786 5.78057ZM24.5507 8.70098C25.2521 8.93679 25.8144 9.29353 26.3344 9.81956C27.2655 10.7688 27.719 11.9539 27.6404 13.2116C27.5981 13.8948 27.4772 14.3362 27.1507 15.0013C26.413 16.5129 24.8651 17.4622 23.154 17.4562C21.8601 17.4562 20.7596 16.9724 19.8648 16.0111C19.4173 15.5334 19.1513 15.1102 18.9336 14.5357L18.7824 14.1306L19.1573 13.9976C19.8285 13.7558 20.6326 13.2237 20.8443 12.879C20.9531 12.6976 20.9833 12.3651 20.9047 12.1716C20.8805 12.1111 20.542 11.7 20.1489 11.2465L19.4355 10.4302L19.5564 10.2549C19.8406 9.85584 20.5903 9.23911 21.0861 8.98516C21.8722 8.59214 22.3438 8.48935 23.281 8.51354C23.9461 8.53168 24.1396 8.56191 24.5507 8.70098Z" stroke="white" stroke-opacity="0.5" stroke-width="0.4" mask="url(#path-1-outside-1_770_150)"/>
</svg>
