<svg viewBox="0 0 22 27" fill="none" xmlns="http://www.w3.org/2000/svg">
<path opacity="0.976" fill-rule="evenodd" clip-rule="evenodd" d="M10.5408 0.00638577C11.0636 -0.0184767 11.5791 0.0292604 12.0875 0.149603C14.7503 1.02446 17.4046 1.92196 20.0504 2.84208C21.1083 3.42353 21.748 4.31147 21.9695 5.50591C22.0243 8.75332 22.0053 11.9996 21.9122 15.2447C21.3131 19.2038 19.394 22.345 16.1549 24.6683C14.8434 25.62 13.4113 26.3457 11.8584 26.8452C11.0785 26.995 10.3147 26.9377 9.56688 26.6734C6.46733 25.4827 3.97536 23.5254 2.09097 20.8015C0.901763 18.9525 0.214323 16.9284 0.0286448 14.7291C-0.00954826 11.6547 -0.00954826 8.58032 0.0286448 5.50591C0.294192 4.14364 1.06756 3.19841 2.34876 2.67022C5.08128 1.7625 7.81196 0.874555 10.5408 0.00638577ZM10.9418 2.46971C13.5464 3.29018 16.1434 4.13993 18.7328 5.01897C19.1594 5.19358 19.4172 5.50866 19.5061 5.96421C19.5443 8.69489 19.5443 11.4255 19.5061 14.1562C19.2647 17.4752 17.8421 20.1581 15.2383 22.205C14.1847 23.0187 13.039 23.687 11.8011 24.21C11.2664 24.4774 10.7317 24.4774 10.197 24.21C7.56706 23.1262 5.4761 21.3981 3.92414 19.0256C3.0653 17.5373 2.58793 15.9333 2.49197 14.2135C2.45376 11.4637 2.45376 8.71397 2.49197 5.96421C2.60305 5.52854 2.86084 5.21346 3.26534 5.01897C5.82915 4.16118 8.38798 3.31143 10.9418 2.46971Z" fill="#292929"/>
</svg>
