<svg width="41" height="35" viewBox="0 0 41 35" fill="none" xmlns="http://www.w3.org/2000/svg">
<path d="M34.884 32.0186C34.5803 32.8724 33.8761 33.6934 33.1102 34.0259C32.6475 34.233 32.081 34.2896 31.5276 34.2243C30.9722 34.1587 30.4095 33.968 29.9524 33.6576L29.9524 33.6576L29.9505 33.6563C29.7408 33.5112 28.161 32.2639 26.4654 30.8982L26.4653 30.8982C25.6116 30.2098 24.8292 29.5851 24.2567 29.1326C23.9703 28.9063 23.737 28.7235 23.5736 28.5976C23.5331 28.5663 23.4971 28.5387 23.4659 28.515C23.4532 28.5258 23.4396 28.5374 23.4252 28.5498C23.3091 28.6498 23.1444 28.7955 22.9422 28.9765C22.5383 29.3382 21.9889 29.8377 21.389 30.3876C19.0891 32.5041 18.7525 32.7883 18.0685 33.0935C17.8897 33.1765 17.7365 33.2314 17.5374 33.2629C17.3458 33.2933 17.1185 33.3006 16.7952 33.3006C16.4629 33.3006 16.237 33.2954 16.0453 33.2636C15.844 33.2302 15.6891 33.1693 15.4943 33.076L15.4943 33.076C14.8879 32.7853 14.3287 32.2747 13.9734 31.6963L13.9733 31.6963L13.9701 31.6907C13.9165 31.5983 13.8307 31.3973 13.7183 31.114C13.6028 30.8226 13.452 30.4249 13.267 29.9234C12.8969 28.9201 12.3885 27.4968 11.7495 25.6686L11.7495 25.6684L9.86054 20.25L6.39191 19.2547C6.39187 19.2547 6.39182 19.2547 6.39178 19.2547C5.40162 18.9734 4.45356 18.694 3.72368 18.4713C3.35883 18.3599 3.04769 18.2625 2.81272 18.186C2.58555 18.112 2.41222 18.0521 2.3375 18.0172L2.33718 18.017C2.00454 17.8612 1.68326 17.6283 1.42293 17.3711C1.16541 17.1167 0.949964 16.821 0.852038 16.5318L0.852026 16.5318L0.851247 16.5295C0.685625 16.0239 0.726497 15.4091 0.949867 14.9624L0.949839 14.9623L0.951669 14.9588C1.07135 14.7287 1.28255 14.4876 1.52275 14.2758C1.76529 14.0619 2.0534 13.8637 2.34236 13.7254C2.42287 13.6865 2.80327 13.5351 3.39781 13.3027C4.00243 13.0664 4.84453 12.7401 5.86237 12.3476C7.89814 11.5625 10.638 10.512 13.5893 9.38457C17.0596 8.05888 21.1002 6.51732 24.5162 5.21407C26.9095 4.30102 28.9962 3.50493 30.3653 2.98198C33.681 1.71556 36.5892 0.624634 36.8092 0.559467L36.8091 0.559433L36.8134 0.558247C37.5113 0.364868 38.405 0.447842 39.0597 0.766804L39.0606 0.767227C39.5743 1.01995 39.9606 1.35791 40.2158 1.81291C40.4691 2.26452 40.5814 2.81038 40.5854 3.46024V3.46178C40.5854 3.822 40.5157 4.34344 40.1384 6.30249C39.7591 8.27209 39.0643 11.7154 37.8024 17.9403L37.8024 17.9405C37.0366 21.7076 36.3267 25.1708 35.7994 27.7165C35.5359 28.9892 35.3179 30.0329 35.1614 30.7706C35.0832 31.1393 35.0203 31.4321 34.9747 31.6389C34.9519 31.7423 34.9333 31.8249 34.9192 31.8852C34.9072 31.9364 34.8944 31.9894 34.884 32.0186ZM34.884 32.0186L34.6485 31.9348M34.884 32.0186C34.8839 32.0189 34.8838 32.0192 34.8837 32.0195L34.6485 31.9348M34.6485 31.9348C34.7178 31.7424 36.026 25.4245 37.5574 17.8907M34.6485 31.9348C34.3638 32.7351 33.702 33.497 33.0094 33.7971C32.186 34.1665 30.9316 34.0203 30.0928 33.4508C29.8927 33.3123 28.3229 32.0733 26.6222 30.7035C24.9138 29.3261 23.4902 28.2025 23.4594 28.2025C23.4209 28.2025 22.4205 29.1029 21.22 30.2033C18.9037 32.335 18.6036 32.5812 17.9649 32.866L37.5574 17.8907M37.5574 17.8907C40.0815 5.4395 40.3354 4.12359 40.3354 3.46178C40.3277 2.21512 39.9045 1.46097 38.9502 0.991554C38.35 0.699127 37.5189 0.622173 36.8802 0.799168M37.5574 17.8907L36.8802 0.799168M11.9855 25.5861C13.263 29.2414 14.0171 31.273 14.1864 31.5654C14.5173 32.1041 15.0406 32.5812 15.6024 32.8506L11.9855 25.5861ZM11.9855 25.5861L10.054 20.0454M11.9855 25.5861L10.054 20.0454M36.8802 0.799168C36.6724 0.860733 33.7789 1.94579 30.4545 3.21553C29.085 3.73861 26.9985 4.53464 24.6055 5.44759C21.1897 6.75078 17.1494 8.29222 13.6785 9.61811C7.77614 11.8729 2.72025 13.8198 2.45091 13.9506C1.91993 14.2046 1.37355 14.6894 1.17347 15.0742C0.981088 15.4589 0.942611 16.0053 1.08882 16.4516C1.25043 16.9288 1.83528 17.5059 2.44322 17.7906L36.8802 0.799168ZM10.054 20.0454L6.46022 19.0142L10.054 20.0454ZM23.1823 8.4638C25.9604 7.40183 37.2111 3.11549 37.3804 3.05392C37.5882 2.97697 37.8883 3.00006 37.9806 3.0924C38.0345 3.14627 38.073 3.29248 38.073 3.4233C38.073 3.82347 32.5323 31.0344 32.3938 31.3115L8.85349 13.9352C9.99882 13.4972 11.337 12.9867 12.6461 12.4873C14.4418 11.8023 16.1826 11.1381 17.2954 10.7109C19.0156 10.0572 21.3203 9.17583 22.7242 8.63899C22.8904 8.57545 23.0439 8.51674 23.1823 8.4638ZM23.1823 8.4638L23.2716 8.69731M23.1823 8.4638L23.2716 8.69732C23.2716 8.69732 23.2716 8.69731 23.2716 8.69731M23.2716 8.69731C26.0516 7.63461 37.2991 3.34951 37.4658 3.28887L37.4672 3.28837C37.5315 3.26455 37.6219 3.2533 37.7067 3.25909C37.7463 3.2618 37.7779 3.26782 37.7995 3.2743M23.2716 8.69731C23.133 8.7503 22.9793 8.80909 22.813 8.87271C21.4092 9.4095 19.1049 10.2907 17.3846 10.9444C16.2718 11.3717 14.5307 12.0359 12.735 12.721C11.4259 13.2204 10.0877 13.7309 8.9428 14.1687L8.942 14.169C7.58033 14.6845 6.34391 15.1575 5.44815 15.5045C5.13008 15.6277 4.85524 15.7349 4.63315 15.8224C4.74217 15.8551 4.8632 15.8911 4.99488 15.93C5.62188 16.1154 6.48668 16.3652 7.43645 16.6344L7.43668 16.6344L10.805 17.5925L18.1973 13.8127L18.1974 13.8126C24.0416 10.8271 27.1862 9.22206 28.8946 8.36355C29.7479 7.93469 30.2462 7.69044 30.5444 7.55324C30.6929 7.48493 30.7973 7.44055 30.8738 7.41297C30.9468 7.38666 31.0158 7.3673 31.0855 7.3673C31.3031 7.3673 31.5638 7.47556 31.7708 7.5969C31.9786 7.71869 32.2011 7.89404 32.3107 8.08582C32.4307 8.2958 32.4822 8.5633 32.4822 8.80913C32.4822 9.05263 32.4316 9.318 32.3034 9.5156L32.3034 9.51561L32.3016 9.51823C32.2856 9.54234 32.2569 9.57514 32.2367 9.59833C32.2102 9.62862 32.1741 9.66906 32.1293 9.71864C32.0396 9.818 31.9125 9.95691 31.7525 10.1306C31.4324 10.478 30.979 10.9664 30.4257 11.5595C29.3192 12.7459 27.8126 14.3526 26.1733 16.0919C24.5344 17.8347 23.0437 19.4273 21.963 20.5898C21.4225 21.1711 20.9849 21.6445 20.6826 21.9752C20.5493 22.1211 20.4428 22.2386 20.3657 22.3251C20.4205 22.3737 20.4913 22.4351 20.5808 22.5112C20.8597 22.7483 21.3093 23.1199 21.9907 23.6753C23.353 24.7856 25.6359 26.6262 29.3182 29.5851C29.9921 30.1262 30.5055 30.5348 30.9033 30.8334C31.3046 31.1347 31.5737 31.3125 31.7623 31.4022C31.9511 31.4919 31.9963 31.4634 31.9988 31.4618L31.9989 31.4618C32.0078 31.4569 32.028 31.4424 32.0596 31.3977C32.09 31.3548 32.1224 31.2963 32.1623 31.2157C32.1626 31.2147 32.1628 31.2137 32.1631 31.2126C32.1669 31.1988 32.1723 31.1779 32.1794 31.149C32.1934 31.0916 32.2124 31.0091 32.2364 30.9023C32.2843 30.6889 32.3507 30.3832 32.4331 29.9978C32.5977 29.2272 32.8254 28.1405 33.0948 26.8425C33.6336 24.2467 34.3391 20.8072 35.0403 17.3637C35.7415 13.9202 36.4384 10.4729 36.9599 7.86173C37.2207 6.55605 37.4375 5.45976 37.5892 4.67757C37.665 4.28637 37.7244 3.97438 37.7648 3.75428C37.785 3.64408 37.8003 3.55795 37.8104 3.49682C37.8125 3.48411 37.8144 3.47272 37.816 3.46259C37.8183 3.44824 37.82 3.43643 37.8213 3.42703C37.8221 3.42157 37.8226 3.41769 37.8229 3.41517M37.7995 3.2743C37.7967 3.26642 37.7943 3.2605 37.7923 3.2565C37.7881 3.24763 37.7902 3.25553 37.8038 3.26918C37.821 3.28631 37.8279 3.28321 37.8021 3.2751C37.8013 3.27483 37.8004 3.27457 37.7995 3.2743ZM37.7995 3.2743C37.8015 3.28015 37.8037 3.28708 37.8059 3.2951C37.8157 3.33093 37.8221 3.37449 37.8229 3.41517M37.8229 3.41517C37.8238 3.40725 37.823 3.41258 37.823 3.4233C37.823 3.42061 37.8229 3.41789 37.8229 3.41517ZM20.5622 17.9498C21.9895 16.4233 23.5307 14.781 24.4974 13.757C24.0011 14.0131 23.3656 14.3394 22.6803 14.6889L22.6798 14.6892C21.291 15.3932 18.7556 16.684 16.5625 17.8027C15.4659 18.362 14.455 18.8783 13.716 19.2566C13.3464 19.4458 13.0449 19.6004 12.8347 19.7086C12.7792 19.7372 12.7301 19.7625 12.6878 19.7844C12.7027 19.8288 12.72 19.8803 12.7397 19.9386C12.8167 20.1666 12.929 20.4958 13.0685 20.9021C13.3473 21.7145 13.7338 22.8337 14.1608 24.0647C14.5914 25.2912 14.9873 26.396 15.2782 27.1881C15.3546 27.3963 15.4238 27.5826 15.4843 27.7436C15.5066 27.6556 15.5307 27.5606 15.5562 27.4594C15.7061 26.8647 15.906 26.0573 16.1214 25.1802L16.1217 25.1792C16.3412 24.3012 16.5512 23.4822 16.7142 22.8706C16.7957 22.5651 16.8657 22.31 16.9195 22.1248C16.9464 22.0325 16.9697 21.9556 16.9888 21.8978C16.9982 21.869 17.0074 21.8427 17.016 21.8205L17.0161 21.8202C17.0216 21.8059 17.0345 21.7726 17.054 21.7421C17.0641 21.7263 17.0745 21.7135 17.0776 21.7096L17.0782 21.709C17.0847 21.7009 17.0923 21.6918 17.1003 21.6825C17.1164 21.6637 17.1381 21.6391 17.1644 21.6097C17.2172 21.5506 17.2919 21.4683 17.3853 21.3662C17.5724 21.1618 17.8368 20.8755 18.1562 20.5311C18.7953 19.8421 19.656 18.9191 20.5622 17.9498ZM21.2415 26.7015C21.1919 26.6585 21.1329 26.6082 21.0657 26.5516C20.8358 26.358 20.516 26.0957 20.163 25.8117C19.81 25.5278 19.482 25.2688 19.2387 25.0791C19.1777 25.0316 19.1222 24.9886 19.073 24.9506C19.0555 25.0216 19.0332 25.1118 19.0068 25.2184C18.8752 25.7505 18.6421 26.6933 18.3925 27.7228L18.3922 27.7239C18.2038 28.4854 18.0347 29.1791 17.9147 29.684C17.9069 29.7168 17.8993 29.7489 17.8919 29.7801C17.9188 29.756 17.9465 29.7313 17.9749 29.7058C18.3601 29.3607 18.8714 28.8965 19.3823 28.4289C19.8932 27.9612 20.403 27.4908 20.7853 27.1332C20.9742 26.9565 21.1311 26.8082 21.2415 26.7015Z" fill="url(#paint0_linear_668_1240)" stroke="url(#paint1_linear_668_1240)" stroke-width="0.5"/>
<defs>
<linearGradient id="paint0_linear_668_1240" x1="1" y1="17.3525" x2="40.3354" y2="17.3525" gradientUnits="userSpaceOnUse">
<stop stop-color="#C03593"/>
<stop offset="1" stop-color="#F08283"/>
</linearGradient>
<linearGradient id="paint1_linear_668_1240" x1="1" y1="17.3525" x2="40.3354" y2="17.3525" gradientUnits="userSpaceOnUse">
<stop stop-color="#C03593"/>
<stop offset="1" stop-color="#F08283"/>
</linearGradient>
</defs>
</svg>
