<svg  viewBox="0 0 27 23"  xmlns="http://www.w3.org/2000/svg">
<path d="M23.9373 0.850212C23.7987 0.891283 21.8683 1.61517 19.6504 2.46227C17.4326 3.30938 12.3961 5.22948 8.45841 6.73372C4.52066 8.23797 1.14766 9.53686 0.967968 9.62414C0.613726 9.79356 0.249215 10.117 0.115732 10.3737C-0.0126168 10.6304 -0.0382865 10.9949 0.0592586 11.2927C0.167072 11.611 0.557252 11.996 0.962834 12.186C1.11685 12.2579 2.32333 12.6275 3.64276 13.0023L6.04031 13.6902L7.32894 17.3867C8.18117 19.8253 8.6843 21.1807 8.79725 21.3758C9.01801 21.7351 9.36712 22.0534 9.7419 22.2331C9.98833 22.3512 10.091 22.3666 10.5377 22.3666C10.9689 22.3666 11.0973 22.3461 11.318 22.2434C11.7441 22.0534 11.9444 21.8892 13.4897 20.4671C14.2906 19.7329 14.958 19.1322 14.9837 19.1322C15.0042 19.1322 15.954 19.8818 17.0937 20.8008C18.2283 21.7146 19.2756 22.5412 19.4091 22.6336C19.9687 23.0135 20.8056 23.111 21.3549 22.8646C21.817 22.6644 22.2585 22.1561 22.4484 21.6222C22.4946 21.4938 23.3674 17.2789 24.3891 12.2527C26.073 3.94599 26.2424 3.06808 26.2424 2.62656C26.2373 1.79486 25.9549 1.29173 25.3183 0.978561C24.9179 0.78347 24.3634 0.73213 23.9373 0.850212ZM24.6714 2.38013C24.7074 2.41607 24.733 2.51361 24.733 2.60089C24.733 2.86786 21.0366 21.0215 20.9442 21.2063C20.708 21.6889 20.5848 21.6273 18.7879 20.1847C13.8747 16.2367 12.6939 15.2715 12.6939 15.2202C12.6939 15.1893 14.4857 13.2641 16.6727 10.9384C18.8598 8.61789 20.6926 6.65158 20.744 6.57457C20.8672 6.38461 20.8672 6.00984 20.744 5.79421C20.6413 5.61452 20.2716 5.3989 20.0714 5.3989C19.9379 5.3989 19.3475 5.69666 11.549 9.68061L6.55884 12.2322L4.24856 11.575C2.98048 11.2157 1.93829 10.9076 1.93829 10.8922C1.93829 10.8768 3.422 10.3018 5.23942 9.61387C7.0517 8.92079 9.58788 7.95561 10.8714 7.46275C12.1549 6.97502 13.9261 6.29734 14.7988 5.96363C16.6522 5.25515 24.158 2.39553 24.271 2.35446C24.4096 2.30312 24.6098 2.31852 24.6714 2.38013ZM16.2261 9.15695C15.1993 10.2351 10.9022 14.8248 10.8508 14.9121C10.8098 14.9737 10.5428 15.9851 10.2502 17.1557C9.96266 18.3262 9.71623 19.3119 9.69569 19.3479C9.68029 19.3787 9.1977 18.0644 8.62269 16.4266C8.05282 14.7838 7.59077 13.4387 7.5959 13.4335C7.62157 13.413 12.5348 10.9076 14.3881 9.96812C15.4046 9.44959 16.2569 9.00807 16.2877 8.98753C16.3134 8.96186 16.3596 8.94133 16.3852 8.94133C16.416 8.94133 16.3442 9.03887 16.2261 9.15695ZM12.889 17.4072C13.3613 17.7871 13.7464 18.1106 13.7412 18.126C13.7361 18.1722 11.0203 20.657 10.9997 20.6365C10.9894 20.6262 11.1897 19.7894 11.4412 18.7729C11.6877 17.7563 11.9084 16.8733 11.9238 16.8065C11.9392 16.7398 11.97 16.6936 11.9906 16.7039C12.0111 16.7141 12.4167 17.0273 12.889 17.4072Z" />
</svg>
