<svg viewBox="0 0 28 24" fill="none" xmlns="http://www.w3.org/2000/svg">
<path d="M24.9373 0.850212C24.7987 0.891283 22.8683 1.61517 20.6504 2.46227C18.4326 3.30938 13.3961 5.22948 9.45841 6.73372C5.52066 8.23797 2.14766 9.53686 1.96797 9.62414C1.61373 9.79356 1.24921 10.117 1.11573 10.3737C0.987383 10.6304 0.961713 10.9949 1.05926 11.2927C1.16707 11.611 1.55725 11.996 1.96283 12.186C2.11685 12.2579 3.32333 12.6275 4.64276 13.0023L7.04031 13.6902L8.32894 17.3867C9.18117 19.8253 9.6843 21.1807 9.79725 21.3758C10.018 21.7351 10.3671 22.0534 10.7419 22.2331C10.9883 22.3512 11.091 22.3666 11.5377 22.3666C11.9689 22.3666 12.0973 22.3461 12.318 22.2434C12.7441 22.0534 12.9444 21.8892 14.4897 20.4671C15.2906 19.7329 15.958 19.1322 15.9837 19.1322C16.0042 19.1322 16.954 19.8818 18.0937 20.8008C19.2283 21.7146 20.2756 22.5412 20.4091 22.6336C20.9687 23.0135 21.8056 23.111 22.3549 22.8646C22.817 22.6644 23.2585 22.1561 23.4484 21.6222C23.4946 21.4938 24.3674 17.2789 25.3891 12.2527C27.073 3.94599 27.2424 3.06808 27.2424 2.62656C27.2373 1.79486 26.9549 1.29173 26.3183 0.978561C25.9179 0.78347 25.3634 0.73213 24.9373 0.850212ZM25.6714 2.38013C25.7074 2.41607 25.733 2.51361 25.733 2.60089C25.733 2.86786 22.0366 21.0215 21.9442 21.2063C21.708 21.6889 21.5848 21.6273 19.7879 20.1847C14.8747 16.2367 13.6939 15.2715 13.6939 15.2202C13.6939 15.1893 15.4857 13.2641 17.6727 10.9384C19.8598 8.61789 21.6926 6.65158 21.744 6.57457C21.8672 6.38461 21.8672 6.00984 21.744 5.79421C21.6413 5.61452 21.2716 5.3989 21.0714 5.3989C20.9379 5.3989 20.3475 5.69666 12.549 9.68061L7.55884 12.2322L5.24856 11.575C3.98048 11.2157 2.93829 10.9076 2.93829 10.8922C2.93829 10.8768 4.422 10.3018 6.23942 9.61387C8.0517 8.92079 10.5879 7.95561 11.8714 7.46275C13.1549 6.97502 14.9261 6.29734 15.7988 5.96363C17.6522 5.25515 25.158 2.39553 25.271 2.35446C25.4096 2.30312 25.6098 2.31852 25.6714 2.38013ZM17.2261 9.15695C16.1993 10.2351 11.9022 14.8248 11.8508 14.9121C11.8098 14.9737 11.5428 15.9851 11.2502 17.1557C10.9627 18.3262 10.7162 19.3119 10.6957 19.3479C10.6803 19.3787 10.1977 18.0644 9.62269 16.4266C9.05282 14.7838 8.59077 13.4387 8.5959 13.4335C8.62157 13.413 13.5348 10.9076 15.3881 9.96812C16.4046 9.44959 17.2569 9.00807 17.2877 8.98753C17.3134 8.96186 17.3596 8.94133 17.3852 8.94133C17.416 8.94133 17.3442 9.03887 17.2261 9.15695ZM13.889 17.4072C14.3613 17.7871 14.7464 18.1106 14.7412 18.126C14.7361 18.1722 12.0203 20.657 11.9997 20.6365C11.9894 20.6262 12.1897 19.7894 12.4412 18.7729C12.6877 17.7563 12.9084 16.8733 12.9238 16.8065C12.9392 16.7398 12.97 16.6936 12.9906 16.7039C13.0111 16.7141 13.4167 17.0273 13.889 17.4072Z" fill="white" fill-opacity="0.5"/>
<path d="M24.8972 0.70566L24.8947 0.706369C24.7488 0.749624 22.8096 1.47704 20.5969 2.32215C19.6839 2.67088 18.2926 3.20167 16.6968 3.81047C14.4174 4.68009 11.7208 5.70889 9.40488 6.5936C7.43593 7.34576 5.60808 8.0466 4.24995 8.57034C3.57091 8.8322 3.00913 9.04985 2.6058 9.20752C2.20866 9.36277 1.95585 9.4634 1.90289 9.48899M24.8972 0.70566L4.64276 13.0023L4.60177 13.1466C4.60166 13.1465 4.60155 13.1465 4.60144 13.1465C3.94104 12.9589 3.30875 12.7726 2.82199 12.624C2.57863 12.5498 2.37117 12.4848 2.21454 12.4338C2.0626 12.3843 1.94811 12.3446 1.8994 12.3219L1.89921 12.3218C1.67922 12.2188 1.46643 12.0646 1.29395 11.8942C1.12316 11.7254 0.981368 11.5303 0.917187 11.3408L0.91718 11.3408L0.916712 11.3394C0.807522 11.0061 0.834628 10.6005 0.981568 10.3066L0.981551 10.3066L0.982649 10.3045C1.06118 10.1535 1.20043 9.99428 1.35985 9.85369C1.5207 9.71185 1.71167 9.5805 1.90289 9.48899M24.8972 0.70566C25.3588 0.577747 25.9509 0.6327 26.384 0.843712L26.3845 0.843966C26.7248 1.01136 26.9797 1.23468 27.148 1.53474C27.3152 1.83277 27.3898 2.19386 27.3924 2.62563V2.62656C27.3924 2.86491 27.3463 3.21097 27.0945 4.51855C26.8415 5.83246 26.378 8.12951 25.5361 12.2825L25.5361 12.2826C25.0252 14.7958 24.5516 17.1063 24.1998 18.8046C24.024 19.6537 23.8786 20.3499 23.7742 20.842C23.722 21.088 23.6801 21.2833 23.6497 21.4212C23.6345 21.4901 23.6221 21.5452 23.6127 21.5853C23.6045 21.6199 23.5963 21.6541 23.5898 21.6725L24.8972 0.70566ZM1.90289 9.48899C1.90274 9.48907 1.90258 9.48914 1.90243 9.48922L1.96797 9.62414L1.90325 9.48882C1.90313 9.48888 1.90301 9.48894 1.90289 9.48899ZM3.37267 10.875C3.52814 10.8136 3.72726 10.7359 3.9615 10.6451C4.55915 10.4136 5.38406 10.098 6.29252 9.75416L6.293 9.75398C7.05698 9.4618 7.94989 9.12117 8.82338 8.78793C10.0212 8.33096 11.1826 7.88792 11.9249 7.60287C13.073 7.1666 14.6111 6.5784 15.5475 6.22032C15.6581 6.17804 15.7603 6.13897 15.8524 6.10374C17.7069 5.39482 25.2108 2.53595 25.3222 2.49543L25.3231 2.49512C25.3686 2.47825 25.4314 2.4706 25.4899 2.47459C25.5184 2.47654 25.5414 2.48099 25.5574 2.48601C25.5597 2.48674 25.5618 2.48744 25.5635 2.48807C25.5658 2.49373 25.5684 2.50135 25.5711 2.51093C25.5781 2.53651 25.5826 2.56744 25.583 2.59632C25.5828 2.59799 25.5824 2.601 25.5818 2.60569C25.5803 2.61659 25.5779 2.63214 25.5745 2.65268C25.5677 2.69361 25.5575 2.75118 25.544 2.82473C25.517 2.97165 25.4774 3.17986 25.4268 3.44086C25.3256 3.96275 25.1809 4.69417 25.0069 5.56525C24.659 7.30734 24.1941 9.60715 23.7263 11.9045C23.2585 14.2018 22.7878 16.4965 22.4283 18.2283C22.2486 19.0943 22.0967 19.8193 21.9868 20.3334C21.9319 20.5906 21.8876 20.7946 21.8556 20.937C21.8396 21.0083 21.8268 21.0635 21.8175 21.1019C21.8127 21.1212 21.8091 21.1354 21.8065 21.1448C21.8061 21.1462 21.8058 21.1474 21.8055 21.1485C21.7785 21.2032 21.7562 21.2436 21.735 21.2736C21.713 21.3046 21.6977 21.3165 21.6887 21.3214C21.6809 21.3256 21.6455 21.3437 21.5157 21.282C21.3882 21.2214 21.2075 21.1018 20.9397 20.9008C20.6741 20.7014 20.3314 20.4287 19.8819 20.0678L3.37267 10.875ZM3.37267 10.875C3.45697 10.9004 3.55343 10.9292 3.66041 10.9608C4.07878 11.0845 4.65579 11.2511 5.28946 11.4307L5.2896 11.4308L7.54311 12.0718L12.4808 9.54706L12.4808 9.54704C16.3798 7.5552 18.4776 6.48447 19.6172 5.91175C20.1866 5.62563 20.5188 5.4628 20.7174 5.3714C20.8164 5.32588 20.8855 5.29652 20.9359 5.27837C20.9841 5.26098 21.0279 5.2489 21.0714 5.2489C21.212 5.2489 21.3828 5.31927 21.5201 5.39977C21.6579 5.48053 21.8033 5.59569 21.8742 5.71979C21.9524 5.85663 21.9864 6.03199 21.9864 6.19402C21.9864 6.35465 21.9529 6.52808 21.8698 6.65621L21.8688 6.65778C21.8588 6.67273 21.8406 6.69364 21.8268 6.70948C21.8092 6.72959 21.7852 6.75649 21.7553 6.78955C21.6955 6.85577 21.6108 6.94839 21.504 7.06422C21.2905 7.29598 20.988 7.62176 20.6189 8.01749C19.8807 8.80899 18.8756 9.88089 17.7819 11.0413C16.6885 12.204 15.6941 13.2664 14.973 14.042C14.6125 14.4298 14.3205 14.7457 14.1188 14.9664C14.0232 15.071 13.9483 15.1537 13.896 15.2125C13.9342 15.2467 13.9856 15.2913 14.0524 15.3481C14.2385 15.5064 14.5386 15.7544 14.9932 16.1249C15.9021 16.8657 17.4252 18.0937 19.8818 20.0677L3.37267 10.875ZM10.5098 18.4612C10.569 18.6223 10.6215 18.7636 10.6662 18.8819L16.7561 9.43485C16.4139 9.61163 15.9548 9.84744 15.4563 10.1017L15.4559 10.1019C14.5294 10.5716 12.8379 11.4327 11.3748 12.1791C10.6432 12.5522 9.96883 12.8966 9.47574 13.149C9.22917 13.2753 9.02804 13.3784 8.88778 13.4506C8.84498 13.4727 8.80792 13.4918 8.777 13.5078C8.78785 13.5404 8.80095 13.5793 8.81615 13.6244C8.86753 13.7765 8.94252 13.9962 9.03555 14.2672C9.22156 14.8092 9.47945 15.556 9.76431 16.3772C10.0516 17.1955 10.3157 17.9327 10.5098 18.4612ZM14.5288 18.1302C14.4929 18.0989 14.4488 18.0612 14.3975 18.018C14.244 17.8887 14.0306 17.7136 13.795 17.5241C13.5594 17.3346 13.3406 17.1618 13.1781 17.0352C13.1288 16.9968 13.0848 16.9627 13.0472 16.9337C13.0348 16.9841 13.0178 17.0529 12.9969 17.137C12.9092 17.4918 12.7536 18.1209 12.587 18.8082L12.5868 18.8089C12.4611 19.3169 12.3483 19.7798 12.2682 20.1167C12.2586 20.1573 12.2494 20.196 12.2408 20.2327C12.2709 20.2058 12.3027 20.1774 12.3359 20.1477C12.593 19.9173 12.9341 19.6076 13.275 19.2956C13.6158 18.9836 13.956 18.6697 14.2111 18.4311C14.3388 18.3117 14.4447 18.2116 14.5185 18.1401C14.5221 18.1367 14.5255 18.1334 14.5288 18.1302Z" stroke="white" stroke-opacity="0.5" stroke-width="0.3"/>
</svg>
