<svg  viewBox="0 0 20 25" xmlns="http://www.w3.org/2000/svg">
<path d="M14.853 0.954437C14.6655 1.02699 13.0572 2.1093 10.5177 3.89298L6.47871 6.71665H4.52573C2.98994 6.71665 2.50018 6.73479 2.2281 6.80735C1.18207 7.07944 0.371853 7.88361 0.0997655 8.92359C-0.0332552 9.45567 -0.0332552 15.5867 0.0997655 16.1188C0.371853 17.1588 1.18207 17.9629 2.2281 18.235C2.50018 18.3076 2.98994 18.3257 4.52573 18.3257H6.47871L10.5177 21.1494C13.4381 23.1991 14.6413 24.0093 14.8832 24.0879C15.7902 24.4024 16.812 23.9489 17.2292 23.054L17.3925 22.7094V12.5212V2.33302L17.2292 1.98837C17.0418 1.58326 16.679 1.21443 16.286 1.03304C15.8929 0.845602 15.2581 0.809324 14.853 0.954437ZM15.4757 17.3825L15.4576 22.2438L11.6061 19.5471L7.74846 16.8504V12.5212V8.19197L11.6061 5.49528L15.4576 2.79859L15.4757 7.65989C15.4818 10.3324 15.4818 14.71 15.4757 17.3825ZM5.81361 12.5212V16.3969L4.18713 16.3788C2.65134 16.3607 2.54856 16.3546 2.39135 16.2337C2.30065 16.1672 2.16763 16.0341 2.10112 15.9435C1.98019 15.7802 1.97415 15.7016 1.95601 12.6844C1.94392 10.9794 1.95601 9.50404 1.97415 9.39521C2.01647 9.15335 2.27042 8.84498 2.51832 8.73615C2.65134 8.67568 3.09878 8.65755 4.25969 8.6515H5.81361V12.5212Z" />
</svg>
