<svg  viewBox="0 0 69 65" fill="none" xmlns="http://www.w3.org/2000/svg">
<g filter="url(#filter0_d_770_234)">
<path d="M35.853 18.9544C35.6655 19.027 34.0572 20.1093 31.5177 21.893L27.4787 24.7167H25.5257C23.9899 24.7167 23.5002 24.7348 23.2281 24.8073C22.1821 25.0794 21.3719 25.8836 21.0998 26.9236C20.9667 27.4557 20.9667 33.5867 21.0998 34.1188C21.3719 35.1588 22.1821 35.9629 23.2281 36.235C23.5002 36.3076 23.9899 36.3257 25.5257 36.3257H27.4787L31.5177 39.1494C34.4381 41.1991 35.6413 42.0093 35.8832 42.0879C36.7902 42.4024 37.812 41.9489 38.2292 41.054L38.3925 40.7094V30.5212V20.333L38.2292 19.9884C38.0418 19.5833 37.679 19.2144 37.286 19.033C36.8929 18.8456 36.2581 18.8093 35.853 18.9544ZM36.4757 35.3825L36.4576 40.2438L32.6061 37.5471L28.7485 34.8504V30.5212V26.192L32.6061 23.4953L36.4576 20.7986L36.4757 25.6599C36.4818 28.3324 36.4818 32.71 36.4757 35.3825ZM26.8136 30.5212V34.3969L25.1871 34.3788C23.6513 34.3607 23.5486 34.3546 23.3913 34.2337C23.3007 34.1672 23.1676 34.0341 23.1011 33.9435C22.9802 33.7802 22.9741 33.7016 22.956 30.6844C22.9439 28.9794 22.956 27.504 22.9741 27.3952C23.0165 27.1533 23.2704 26.845 23.5183 26.7361C23.6513 26.6757 24.0988 26.6575 25.2597 26.6515H26.8136V30.5212Z" fill="white" fill-opacity="0.5"/>
<path d="M35.7988 18.8146L35.7988 18.8145L35.8024 18.8132C36.0291 18.732 36.3104 18.7042 36.5823 18.7193C36.8541 18.7344 37.131 18.7932 37.3497 18.8972C37.7759 19.0943 38.1634 19.4893 38.3651 19.9248C38.3652 19.925 38.3653 19.9252 38.3653 19.9254L38.528 20.2688L38.5425 20.2993V20.333V30.5212V40.7094V40.7431L38.528 40.7736L38.3652 41.1174C38.3651 41.1176 38.365 41.1178 38.3649 41.118C37.917 42.0779 36.8183 42.5702 35.8353 42.2301C35.7541 42.2033 35.6181 42.1273 35.4308 42.0114C35.2359 41.8909 34.9697 41.7169 34.6211 41.4823C33.9237 41.0128 32.8918 40.2971 31.4315 39.2722L27.4315 36.4757H25.5257C24.7581 36.4757 24.2489 36.4712 23.8972 36.4575C23.5476 36.4438 23.343 36.4209 23.1899 36.3801C22.0921 36.0944 21.2406 35.2497 20.9546 34.1568L20.9546 34.1568L20.9542 34.1552C20.9335 34.0721 20.9186 33.9025 20.9064 33.6872C20.8938 33.4653 20.8833 33.1784 20.875 32.8487C20.8583 32.1891 20.85 31.3549 20.85 30.5212C20.85 29.6875 20.8583 28.8533 20.875 28.1937C20.8833 27.864 20.8938 27.577 20.9064 27.3552C20.9186 27.1399 20.9335 26.9703 20.9542 26.8872L20.9542 26.8872L20.9546 26.8856C21.2406 25.7927 22.0921 24.948 23.19 24.6623C23.3431 24.6215 23.5476 24.5986 23.8972 24.5849C24.2489 24.5712 24.7581 24.5667 25.5257 24.5667H27.4315L31.4315 21.7702C32.7016 20.8781 33.7394 20.1611 34.4833 19.6578C34.8552 19.4062 35.1542 19.2077 35.3724 19.0672C35.4815 18.9971 35.5711 18.9409 35.64 18.8997C35.7047 18.861 35.7614 18.8291 35.7988 18.8146ZM36.3087 21.086L32.6921 23.6182L32.692 23.6182L28.8985 26.2701V30.5212V34.7723L32.692 37.4242L32.6921 37.4242L36.3087 39.9564L36.3257 35.3822C36.3318 32.7099 36.3318 28.3325 36.3257 25.6602L36.3087 21.086ZM23.4801 34.1127L23.4801 34.1127L23.4828 34.1148C23.5138 34.1386 23.5343 34.1512 23.5681 34.162C23.6072 34.1745 23.6691 34.1861 23.7842 34.1953C24.0151 34.2136 24.418 34.2197 25.1889 34.2288L26.6636 34.2452V30.5212V26.8015H25.2601C24.6797 26.8045 24.2806 26.8106 24.0106 26.8233C23.8754 26.8296 23.7755 26.8375 23.7027 26.847C23.6267 26.8569 23.5923 26.8673 23.5804 26.8727L23.5786 26.8735C23.4819 26.916 23.3743 27.0029 23.2849 27.1113C23.1952 27.2199 23.1377 27.3334 23.1222 27.4196C23.1222 27.4196 23.1222 27.4196 23.1222 27.4197C23.1221 27.4205 23.1214 27.4265 23.1205 27.4408C23.1196 27.4562 23.1186 27.4771 23.1176 27.5035C23.1156 27.5563 23.1137 27.6284 23.1119 27.7182C23.1085 27.8975 23.1056 28.1447 23.1037 28.4422C23.1 29.037 23.1 29.8314 23.106 30.6834L23.106 30.6835C23.1151 32.194 23.1211 32.9639 23.1399 33.3774C23.1493 33.5856 23.1616 33.693 23.1762 33.756C23.1881 33.8079 23.1998 33.8247 23.2217 33.8542L23.2221 33.8547C23.2795 33.9331 23.4017 34.0553 23.4801 34.1127Z" stroke="white" stroke-opacity="0.5" stroke-width="0.3"/>
<path d="M40.025 26.2402C39.8315 26.343 39.5655 26.609 39.4748 26.7844C39.372 26.9779 39.3659 27.3346 39.4566 27.516C39.4929 27.5885 40.1641 28.296 40.9501 29.082L42.3831 30.521L40.9501 31.954C40.1641 32.7461 39.4929 33.4535 39.4566 33.5261C39.372 33.6954 39.372 34.0582 39.4566 34.2275C39.5594 34.421 39.8194 34.6931 40.0068 34.7898C40.2003 34.8926 40.5571 34.8986 40.7385 34.8079C40.811 34.7717 41.5184 34.1005 42.3105 33.3145L43.7435 31.8815L45.1826 33.3145C45.9686 34.1005 46.676 34.7717 46.7486 34.8079C47.4318 35.1526 48.3751 34.2093 48.0304 33.5261C47.9941 33.4535 47.323 32.7461 46.537 31.954L45.104 30.521L46.537 29.082C47.323 28.296 47.9941 27.5885 48.0304 27.516C48.1151 27.3467 48.1151 26.9839 48.0304 26.8146C47.9276 26.6211 47.6676 26.349 47.4802 26.2523C47.2867 26.1495 46.93 26.1434 46.7486 26.2341C46.676 26.2704 45.9686 26.9416 45.1826 27.7276L43.7435 29.1606L42.3105 27.7276C41.5184 26.9416 40.811 26.2704 40.7385 26.2341C40.5692 26.1495 40.1822 26.1495 40.025 26.2402Z" fill="white" fill-opacity="0.5"/>
<path d="M40.844 31.848L40.8436 31.8484C40.45 32.245 40.0849 32.6207 39.8134 32.9066C39.6778 33.0495 39.5649 33.1705 39.4834 33.2607C39.4428 33.3057 39.4091 33.3439 39.3841 33.3738C39.3716 33.3886 39.3604 33.4024 39.3512 33.4145C39.344 33.424 39.3316 33.4408 39.3225 33.459C39.265 33.5739 39.2431 33.734 39.2431 33.8768C39.2431 34.0196 39.265 34.1797 39.3225 34.2946L39.3241 34.2979L39.3242 34.2979C39.3845 34.4114 39.4854 34.5392 39.5924 34.6494C39.6985 34.7587 39.8231 34.8636 39.9373 34.9227C40.0618 34.9886 40.2246 35.0181 40.3739 35.0214C40.5226 35.0247 40.6845 35.0026 40.8055 34.9421C40.8238 34.933 40.8405 34.9205 40.85 34.9133C40.8621 34.9041 40.8759 34.893 40.8908 34.8805C40.9206 34.8554 40.9589 34.8218 41.0039 34.7811C41.0941 34.6996 41.2151 34.5868 41.358 34.4511C41.6439 34.1796 42.0195 33.8146 42.4162 33.4209L42.4166 33.4205L43.7437 32.0934L45.0765 33.4205C45.0765 33.4206 45.0766 33.4206 45.0766 33.4206C45.4703 33.8143 45.8445 34.1795 46.1297 34.451C46.2722 34.5867 46.393 34.6995 46.4832 34.7811C46.5282 34.8217 46.5664 34.8554 46.5962 34.8805C46.6111 34.8929 46.6249 34.9041 46.637 34.9133C46.6465 34.9205 46.6633 34.933 46.6815 34.9421L40.844 31.848ZM40.844 31.848L42.1712 30.5208L40.844 29.1881C40.844 29.188 40.844 29.188 40.8439 29.188C40.4502 28.7943 40.0851 28.4201 39.8136 28.1349C39.6779 27.9924 39.565 27.8715 39.4835 27.7814C39.4428 27.7364 39.4092 27.6982 39.3841 27.6683C39.3716 27.6534 39.3604 27.6397 39.3512 27.6276C39.344 27.6181 39.3316 27.6013 39.3225 27.5831L39.4561 27.5162M40.844 31.848L39.4561 27.5162M39.4561 27.5162L39.3225 27.5831C39.2619 27.462 39.2399 27.3001 39.2432 27.1514C39.2465 27.0021 39.2759 26.8393 39.3419 26.7147C39.3977 26.6073 39.499 26.4845 39.6057 26.3786C39.7124 26.2726 39.8383 26.17 39.9524 26.1089C40.0656 26.0446 40.2326 26.0222 40.3764 26.0214C40.5228 26.0206 40.6898 26.0421 40.8055 26.1C40.8238 26.1091 40.8405 26.1216 40.85 26.1288C40.8621 26.1379 40.8759 26.1491 40.8908 26.1616C40.9206 26.1867 40.9589 26.2203 41.0039 26.261C41.0941 26.3425 41.2151 26.4553 41.358 26.5909C41.6439 26.8624 42.0195 27.2275 42.4162 27.6211L42.4166 27.6215L43.7437 28.9487L45.0765 27.6215C45.4702 27.2278 45.8445 26.8626 46.1297 26.5911C46.2722 26.4554 46.393 26.3425 46.4832 26.261C46.5282 26.2203 46.5664 26.1867 46.5962 26.1616C46.6111 26.1491 46.6249 26.1379 46.637 26.1288C46.6465 26.1216 46.6633 26.1091 46.6815 26.1C46.8025 26.0395 46.9645 26.0174 47.1132 26.0207C47.2624 26.024 47.4252 26.0535 47.5498 26.1194C47.6639 26.1785 47.7886 26.2834 47.8947 26.3927C48.0017 26.5029 48.1026 26.6307 48.1629 26.7442L48.1629 26.7442L48.1646 26.7475C48.222 26.8624 48.2439 27.0225 48.2439 27.1653C48.2439 27.3081 48.222 27.4682 48.1646 27.5831C48.1555 27.6013 48.143 27.6181 48.1358 27.6276C48.1266 27.6397 48.1154 27.6535 48.1029 27.6683C48.0779 27.6982 48.0442 27.7364 48.0035 27.7814C47.922 27.8715 47.8092 27.9924 47.6735 28.1349C47.4019 28.4201 47.0368 28.7943 46.643 29.1881L45.3159 30.5208L46.643 31.848L46.6434 31.8484M39.4561 27.5162L46.6434 31.8484M46.6434 31.8484C47.037 32.245 47.4021 32.6207 47.6736 32.9066C47.8093 33.0495 47.9221 33.1705 48.0036 33.2607C48.0443 33.3057 48.0779 33.3439 48.103 33.3738C48.1154 33.3886 48.1266 33.4024 48.1358 33.4145C48.1429 33.4239 48.1552 33.4405 48.1643 33.4585L46.6434 31.8484Z" stroke="white" stroke-opacity="0.5" stroke-width="0.3"/>
</g>
<defs>
<filter id="filter0_d_770_234" x="0.7" y="0.56543" width="67.7049" height="63.9224" filterUnits="userSpaceOnUse" color-interpolation-filters="sRGB">
<feFlood flood-opacity="0" result="BackgroundImageFix"/>
<feColorMatrix in="SourceAlpha" type="matrix" values="0 0 0 0 0 0 0 0 0 0 0 0 0 0 0 0 0 0 127 0" result="hardAlpha"/>
<feOffset dy="2"/>
<feGaussianBlur stdDeviation="10"/>
<feComposite in2="hardAlpha" operator="out"/>
<feColorMatrix type="matrix" values="0 0 0 0 0 0 0 0 0 0 0 0 0 0 0 0 0 0 0.35 0"/>
<feBlend mode="normal" in2="BackgroundImageFix" result="effect1_dropShadow_770_234"/>
<feBlend mode="normal" in="SourceGraphic" in2="effect1_dropShadow_770_234" result="shape"/>
</filter>
</defs>
</svg>
