<svg viewBox="0 0 29 25" fill="none" xmlns="http://www.w3.org/2000/svg">
<path d="M15.853 0.954437C15.6655 1.02699 14.0572 2.1093 11.5177 3.89298L7.47871 6.71665H5.52573C3.98994 6.71665 3.50018 6.73479 3.2281 6.80735C2.18207 7.07944 1.37185 7.88361 1.09977 8.92359C0.966745 9.45567 0.966745 15.5867 1.09977 16.1188C1.37185 17.1588 2.18207 17.9629 3.2281 18.235C3.50018 18.3076 3.98994 18.3257 5.52573 18.3257H7.47871L11.5177 21.1494C14.4381 23.1991 15.6413 24.0093 15.8832 24.0879C16.7902 24.4024 17.812 23.9489 18.2292 23.054L18.3925 22.7094V12.5212V2.33302L18.2292 1.98837C18.0418 1.58326 17.679 1.21443 17.286 1.03304C16.8929 0.845602 16.2581 0.809324 15.853 0.954437ZM16.4757 17.3825L16.4576 22.2438L12.6061 19.5471L8.74846 16.8504V12.5212V8.19197L12.6061 5.49528L16.4576 2.79859L16.4757 7.65989C16.4818 10.3324 16.4818 14.71 16.4757 17.3825ZM6.81361 12.5212V16.3969L5.18713 16.3788C3.65134 16.3607 3.54856 16.3546 3.39135 16.2337C3.30065 16.1672 3.16763 16.0341 3.10112 15.9435C2.98019 15.7802 2.97415 15.7016 2.95601 12.6844C2.94392 10.9794 2.95601 9.50404 2.97415 9.39521C3.01647 9.15335 3.27042 8.84498 3.51832 8.73615C3.65134 8.67568 4.09878 8.65755 5.25969 8.6515H6.81361V12.5212Z" fill="white" fill-opacity="0.5"/>
<path d="M15.7988 0.814552L15.7988 0.814507L15.8024 0.813223C16.0291 0.732002 16.3104 0.704155 16.5823 0.719263C16.8541 0.734362 17.131 0.793158 17.3497 0.897243C17.7759 1.09426 18.1634 1.48935 18.3651 1.92484C18.3652 1.92502 18.3653 1.9252 18.3653 1.92538L18.528 2.2688L18.5425 2.29929V2.33302V12.5212V22.7094V22.7431L18.528 22.7736L18.3652 23.1174C18.3651 23.1176 18.365 23.1178 18.3649 23.118C17.917 24.0779 16.8183 24.5702 15.8353 24.2301C15.7541 24.2033 15.6181 24.1273 15.4308 24.0114C15.2359 23.8909 14.9697 23.7169 14.6211 23.4823C13.9237 23.0128 12.8918 22.2971 11.4315 21.2722L7.43148 18.4757H5.52573C4.75806 18.4757 4.24892 18.4712 3.89717 18.4575C3.54757 18.4438 3.34303 18.4209 3.18991 18.3801C2.09208 18.0944 1.24058 17.2497 0.95465 16.1568L0.954641 16.1568L0.954244 16.1552C0.933471 16.0721 0.918588 15.9025 0.906359 15.6872C0.893761 15.4653 0.883321 15.1784 0.874989 14.8487C0.85832 14.1891 0.85 13.3549 0.85 12.5212C0.85 11.6875 0.85832 10.8533 0.874989 10.1937C0.883321 9.86403 0.893761 9.57705 0.906359 9.35519C0.918588 9.13985 0.933471 8.9703 0.954244 8.88721L0.954235 8.8872L0.95465 8.88562C1.24059 7.79269 2.09211 6.94798 3.18998 6.66227C3.34308 6.62152 3.54762 6.59855 3.89717 6.58491C4.24892 6.57117 4.75806 6.56665 5.52573 6.56665H7.43148L11.4315 3.77024C12.7016 2.87811 13.7394 2.16107 14.4833 1.6578C14.8552 1.40622 15.1542 1.20767 15.3724 1.06723C15.4815 0.997066 15.5711 0.940884 15.64 0.899664C15.7047 0.860975 15.7614 0.829054 15.7988 0.814552ZM16.3087 3.08597L12.6921 5.61815L12.692 5.61822L8.89846 8.27013V12.5212V16.7723L12.692 19.4242L12.6921 19.4242L16.3087 21.9564L16.3257 17.3822C16.3318 14.7099 16.3318 10.3325 16.3257 7.66023L16.3087 3.08597ZM3.48005 16.1127L3.48008 16.1127L3.48281 16.1148C3.51382 16.1386 3.53429 16.1512 3.56805 16.162C3.60718 16.1745 3.66907 16.1861 3.78418 16.1953C4.01506 16.2136 4.41799 16.2197 5.1889 16.2288L6.66361 16.2452V12.5212V8.8015H5.2601C4.67968 8.80452 4.28061 8.81057 4.01058 8.82325C3.87544 8.8296 3.7755 8.83749 3.70272 8.847C3.62665 8.85694 3.59232 8.86728 3.5804 8.87271L3.57862 8.87349C3.48191 8.91595 3.37427 9.00287 3.28485 9.11125C3.19518 9.21994 3.13768 9.33336 3.12217 9.41958C3.12217 9.41959 3.12216 9.41962 3.12216 9.41965C3.1221 9.42045 3.12143 9.42645 3.12053 9.44077C3.11955 9.45621 3.11856 9.47708 3.11756 9.50351C3.11556 9.55627 3.11367 9.62845 3.11193 9.71819C3.10845 9.89753 3.10563 10.1447 3.10374 10.4422C3.09996 11.037 3.09996 11.8314 3.106 12.6834L3.10601 12.6835C3.11509 14.194 3.12114 14.9639 3.13987 15.3774C3.14929 15.5856 3.16163 15.693 3.17615 15.756C3.18811 15.8079 3.19984 15.8247 3.22166 15.8542L3.22208 15.8547C3.27955 15.9331 3.40169 16.0553 3.48005 16.1127Z" stroke="white" stroke-opacity="0.5" stroke-width="0.3"/>
<path d="M20.025 8.24019C19.8315 8.34298 19.5654 8.60902 19.4747 8.78437C19.3719 8.97785 19.3659 9.33459 19.4566 9.51598C19.4929 9.58854 20.164 10.296 20.9501 11.082L22.383 12.521L20.9501 13.954C20.164 14.7461 19.4929 15.4535 19.4566 15.5261C19.3719 15.6954 19.3719 16.0582 19.4566 16.2275C19.5594 16.421 19.8194 16.6931 20.0068 16.7898C20.2003 16.8926 20.557 16.8986 20.7384 16.8079C20.811 16.7717 21.5184 16.1005 22.3105 15.3145L23.7435 13.8815L25.1825 15.3145C25.9686 16.1005 26.676 16.7717 26.7485 16.8079C27.4318 17.1526 28.375 16.2093 28.0304 15.5261C27.9941 15.4535 27.323 14.7461 26.5369 13.954L25.1039 12.521L26.5369 11.082C27.323 10.296 27.9941 9.58854 28.0304 9.51598C28.115 9.34668 28.115 8.9839 28.0304 8.8146C27.9276 8.62111 27.6676 8.34903 27.4802 8.25228C27.2867 8.1495 26.9299 8.14345 26.7485 8.23414C26.676 8.27042 25.9686 8.94157 25.1825 9.7276L23.7435 11.1606L22.3105 9.7276C21.5184 8.94157 20.811 8.27042 20.7384 8.23414C20.5691 8.1495 20.1822 8.1495 20.025 8.24019Z" fill="white" fill-opacity="0.5"/>
<path d="M20.844 13.848L20.8436 13.8484C20.45 14.245 20.0849 14.6207 19.8134 14.9066C19.6777 15.0495 19.5649 15.1705 19.4834 15.2607C19.4427 15.3057 19.4091 15.3439 19.384 15.3738C19.3716 15.3886 19.3604 15.4024 19.3512 15.4145C19.344 15.424 19.3315 15.4408 19.3224 15.459C19.265 15.5739 19.2431 15.734 19.2431 15.8768C19.2431 16.0196 19.265 16.1797 19.3224 16.2946L19.3241 16.2979L19.3241 16.2979C19.3844 16.4114 19.4853 16.5392 19.5923 16.6494C19.6984 16.7587 19.8231 16.8636 19.9372 16.9227C20.0618 16.9886 20.2246 17.0181 20.3738 17.0214C20.5225 17.0247 20.6845 17.0026 20.8055 16.9421C20.8237 16.933 20.8405 16.9205 20.85 16.9133C20.8621 16.9041 20.8759 16.893 20.8907 16.8805C20.9206 16.8554 20.9588 16.8218 21.0038 16.7811C21.0941 16.6996 21.2151 16.5868 21.3579 16.4511C21.6438 16.1796 22.0195 15.8146 22.4161 15.4209L22.4166 15.4205L23.7437 14.0934L25.0765 15.4205C25.0765 15.4206 25.0765 15.4206 25.0766 15.4206C25.4703 15.8143 25.8445 16.1795 26.1297 16.451C26.2722 16.5867 26.393 16.6995 26.4832 16.7811C26.5281 16.8217 26.5664 16.8554 26.5962 16.8805C26.6111 16.8929 26.6249 16.9041 26.637 16.9133C26.6465 16.9205 26.6632 16.933 26.6815 16.9421L20.844 13.848ZM20.844 13.848L22.1711 12.5208L20.844 11.1881C20.844 11.188 20.8439 11.188 20.8439 11.188C20.4502 10.7943 20.0851 10.4201 19.8135 10.1349C19.6778 9.99235 19.565 9.87152 19.4835 9.78135C19.4428 9.73638 19.4091 9.69817 19.3841 9.66831C19.3716 9.65345 19.3604 9.63966 19.3512 9.62755C19.344 9.61807 19.3315 9.6013 19.3224 9.58306L19.4561 9.51622M20.844 13.848L19.4561 9.51622M19.4561 9.51622L19.3224 9.58306C19.2619 9.46201 19.2398 9.30009 19.2431 9.15138C19.2465 9.00214 19.2759 8.83932 19.3419 8.71472C19.3976 8.60726 19.499 8.48448 19.6056 8.37861C19.7124 8.27262 19.8382 8.16998 19.9524 8.10888C20.0656 8.04463 20.2326 8.02221 20.3763 8.02142C20.5228 8.02061 20.6897 8.04209 20.8055 8.09998C20.8237 8.1091 20.8405 8.12156 20.85 8.12875C20.8621 8.13793 20.8759 8.14912 20.8907 8.16159C20.9206 8.18665 20.9588 8.2203 21.0038 8.26095C21.0941 8.34246 21.2151 8.45529 21.3579 8.59095C21.6438 8.86243 22.0195 9.22752 22.4162 9.62113L22.4166 9.62154L23.7437 10.9487L25.0765 9.62154C25.4702 9.2278 25.8444 8.86263 26.1297 8.59108C26.2722 8.45539 26.393 8.34254 26.4832 8.26101C26.5281 8.22034 26.5664 8.18668 26.5962 8.16161C26.6111 8.14913 26.6249 8.13794 26.637 8.12876C26.6465 8.12157 26.6632 8.1091 26.6815 8.09998C26.8025 8.03946 26.9644 8.01739 27.1131 8.02069C27.2624 8.02401 27.4252 8.05345 27.5497 8.1194C27.6639 8.17851 27.7886 8.28343 27.8946 8.39267C28.0016 8.50288 28.1025 8.63068 28.1628 8.74422L28.1629 8.7442L28.1645 8.74752C28.222 8.86242 28.2439 9.02251 28.2439 9.16529C28.2439 9.30807 28.222 9.46816 28.1645 9.58306C28.1554 9.6013 28.143 9.61807 28.1358 9.62755C28.1266 9.63966 28.1154 9.65345 28.1029 9.66831C28.0778 9.69817 28.0442 9.73638 28.0035 9.78135C27.922 9.87152 27.8091 9.99235 27.6734 10.1349C27.4019 10.4201 27.0367 10.7943 26.643 11.1881L25.3158 12.5208L26.643 13.848L26.6434 13.8484M19.4561 9.51622L26.6434 13.8484M26.6434 13.8484C27.037 14.245 27.4021 14.6207 27.6736 14.9066C27.8092 15.0495 27.9221 15.1705 28.0036 15.2607C28.0442 15.3057 28.0779 15.3439 28.1029 15.3738C28.1154 15.3886 28.1266 15.4024 28.1358 15.4145C28.1429 15.4239 28.1552 15.4405 28.1643 15.4585L26.6434 13.8484Z" stroke="white" stroke-opacity="0.5" stroke-width="0.3"/>
</svg>
