<svg width="35" height="22" viewBox="0 0 35 22" fill="none" xmlns="http://www.w3.org/2000/svg">
<path d="M6.8746 0.961872C5.71483 1.07039 4.70427 1.54515 3.86326 2.38616C3.40884 2.84057 3.17146 3.19325 2.86626 3.82401C2.43897 4.72606 2.31689 5.91974 2.54071 6.94387C2.68314 7.59497 3.16468 8.57162 3.5784 9.03282L3.91752 9.41263L3.29355 9.81957C1.53693 10.9726 0.343241 12.892 0.0583838 15.0284C0.0109076 15.3811 -0.00943928 16.1339 0.00412534 16.8053C0.0244723 18.1008 0.0516015 18.1754 0.539928 18.5077C0.838349 18.718 1.41485 18.6976 1.73361 18.467C2.09308 18.2161 2.1609 17.9651 2.1609 16.9478C2.1609 15.2861 2.33046 14.3908 2.81878 13.5024C3.4631 12.3155 4.46689 11.4745 5.78944 11.0133C6.29133 10.8437 6.41341 10.8301 7.34937 10.8234C8.31924 10.8234 8.39384 10.8369 8.96356 11.0404C10.2793 11.5084 11.3102 12.3968 11.9274 13.5905L12.158 14.0246L11.7511 14.5265C11.2085 15.1912 11.0864 15.3743 10.8083 15.9372C10.3065 16.9546 10.1233 17.626 10.0216 18.8672C9.91986 20.1016 9.96056 21.146 10.1369 21.4377C10.5642 22.1702 11.4934 22.1905 12.0224 21.4784C12.1512 21.3088 12.1716 21.1664 12.2055 19.7896C12.2462 18.4874 12.2733 18.2161 12.4022 17.8091C12.9583 16.0729 14.1927 14.852 15.929 14.3095C16.6615 14.0789 18.0383 14.0789 18.7776 14.3095C20.4867 14.8317 21.7618 16.1068 22.3044 17.8091C22.4332 18.2161 22.4604 18.4941 22.501 19.7896C22.535 21.1664 22.5553 21.3088 22.6842 21.4784C23.2132 22.1905 24.1424 22.1702 24.5696 21.4377C24.746 21.146 24.7867 20.1016 24.6849 18.8672C24.5832 17.626 24.4001 16.9546 23.8982 15.9372C23.6201 15.3743 23.498 15.1912 22.9622 14.5333L22.5553 14.0382L22.6638 13.7737C22.9622 13.0073 23.9253 11.956 24.7528 11.488C25.0308 11.332 25.4988 11.1218 25.7972 11.0133C26.2991 10.8437 26.4212 10.8301 27.3572 10.8301C28.2931 10.8301 28.4152 10.8437 28.9171 11.0133C30.2397 11.4745 31.2434 12.3155 31.8878 13.5024C32.3761 14.3908 32.5456 15.2861 32.5456 16.9478C32.5456 17.9651 32.6135 18.2161 32.9729 18.467C33.2917 18.6976 33.8682 18.718 34.1666 18.5077C34.6549 18.1754 34.6821 18.1008 34.7024 16.8053C34.7295 15.5099 34.6482 14.7096 34.404 13.855C34.2209 13.2311 33.8411 12.4172 33.4477 11.8271C33.0272 11.1828 32.098 10.274 31.413 9.81957L30.789 9.41263L31.1281 9.03282C31.5419 8.57162 32.0234 7.59497 32.1658 6.94387C32.5253 5.29577 32.0302 3.57306 30.8433 2.38616C29.8802 1.42985 28.7069 0.948307 27.33 0.948307C24.5832 0.95509 22.44 3.11186 22.44 5.87226C22.44 7.07273 22.8537 8.21216 23.593 9.0396L23.9321 9.41941L23.6066 9.60932C23.2064 9.83992 22.9215 10.0502 22.4129 10.4842C22.1891 10.6674 22.0263 10.7691 22.0534 10.7081C22.2094 10.2875 22.2637 9.90774 22.2637 9.1956C22.2704 8.53093 22.2365 8.28677 22.1077 7.87305C21.5922 6.21138 20.4664 5.03126 18.8793 4.50224C18.391 4.33268 18.2418 4.31912 17.3533 4.31912C16.4648 4.31912 16.3156 4.33268 15.8273 4.50224C14.2402 5.03126 13.1143 6.21138 12.5989 7.87305C12.3954 8.52415 12.3751 9.79244 12.5582 10.3961C12.6192 10.6063 12.6735 10.803 12.6735 10.8301C12.6735 10.864 12.5107 10.7352 12.3208 10.5453C11.8935 10.1383 11.5341 9.86026 11.1 9.60932L10.7744 9.41941L11.1135 9.0396C11.8528 8.21216 12.2665 7.07273 12.2665 5.87226C12.2665 2.92196 9.81813 0.697363 6.8746 0.961872ZM8.0276 3.22038C9.39762 3.58663 10.2793 4.92952 10.0487 6.29277C9.89951 7.1609 9.34337 7.91374 8.55662 8.3139C8.18359 8.5038 8.12255 8.51737 7.34937 8.51737C6.58975 8.51737 6.50836 8.5038 6.16246 8.32746C4.79244 7.61532 4.24307 6.00113 4.91452 4.63788C5.10442 4.23773 5.64022 3.66801 5.97934 3.48489C6.63044 3.14578 7.39006 3.04404 8.0276 3.22038ZM28.0761 3.23395C28.6255 3.39672 28.9035 3.5595 29.2766 3.93252C30.5991 5.25508 30.2329 7.45254 28.5441 8.32746C28.1982 8.5038 28.1168 8.51737 27.3572 8.51737C26.584 8.51737 26.523 8.5038 26.1499 8.3139C24.4815 7.45933 24.1085 5.26186 25.4174 3.95287C26.1431 3.22716 27.1401 2.95587 28.0761 3.23395ZM17.9094 6.52337C19.1913 6.79466 20.0662 7.87983 20.0662 9.1956C20.0662 10.2604 19.5236 11.1421 18.5605 11.6508C18.2214 11.8271 18.1468 11.8407 17.3533 11.8407C16.5597 11.8407 16.4851 11.8271 16.146 11.6508C15.1829 11.1421 14.6403 10.2604 14.6403 9.1956C14.6403 8.62588 14.7692 8.17147 15.0541 7.73062C15.6713 6.76075 16.7971 6.28599 17.9094 6.52337Z" fill="#292929"/>
</svg>
