<svg width="43" height="35" viewBox="0 0 43 35" fill="none" xmlns="http://www.w3.org/2000/svg">
<path d="M15.6656 0.0818291C15.525 0.114895 15.3018 0.263699 15.1696 0.404236C15.0373 0.536503 14.3677 1.62772 13.6816 2.82641L12.4333 4.99231L8.05186 5.04191C4.76994 5.07498 3.59606 5.10804 3.34805 5.19071C2.62057 5.43045 1.86003 5.88512 1.36402 6.3894C0.735745 7.01767 0.372006 7.63768 0.165336 8.47263C0.0082668 9.09264 0 9.40678 0 19.9469C0 29.3546 0.0165336 30.8591 0.124002 31.3138C0.512541 32.9341 1.70296 34.1824 3.34805 34.6866C3.81926 34.8272 4.58807 34.8354 21.163 34.8354C37.7379 34.8354 38.5067 34.8272 38.978 34.6866C40.623 34.1824 41.8135 32.9341 42.202 31.3138C42.3095 30.8591 42.326 29.3546 42.326 19.9469C42.326 9.40678 42.3177 9.09264 42.1607 8.47263C41.954 7.63768 41.5903 7.01767 40.9703 6.3894C40.4246 5.85205 39.9204 5.53792 39.1433 5.25685C38.6638 5.08324 38.5067 5.07498 34.2741 5.03364L29.8927 4.99231L28.6445 2.82641C27.9583 1.62772 27.2887 0.544769 27.1564 0.404236C27.0242 0.263699 26.7844 0.114895 26.6274 0.0735626C26.2554 -0.0256386 16.0128 -0.0256386 15.6656 0.0818291ZM26.7183 4.78564C28.074 7.12514 28.1815 7.28221 28.4957 7.48888C28.7023 7.62942 29.1239 7.63768 33.5219 7.67902L38.3331 7.72035L38.7382 7.96836C38.9862 8.12542 39.2342 8.37343 39.3913 8.62143L39.6393 9.0265V19.9469V30.8674L39.4078 31.2559C39.1433 31.7106 38.8209 31.9586 38.3001 32.1157C37.7297 32.2893 4.59634 32.2893 4.02593 32.1157C3.50512 31.9586 3.18272 31.7106 2.91818 31.2559L2.68671 30.8674V19.9469V9.0265L2.93471 8.62143C3.09178 8.37343 3.33979 8.12542 3.58779 7.96836L3.99286 7.72035L8.79587 7.67902C12.2183 7.64595 13.6485 7.61288 13.7642 7.53848C14.0866 7.35661 14.3016 7.03421 15.4589 5.03364C16.1037 3.91762 16.6824 2.92561 16.7485 2.81814L16.8725 2.63627L21.1878 2.65281L25.5031 2.6776L26.7183 4.78564Z" fill="#7C7C7C"/>
<path d="M19.9642 9.13397C17.4429 9.52251 15.5498 10.4319 13.8633 12.0522C10.3251 15.4581 9.5894 20.691 12.0529 24.9401C13.6071 27.6268 16.3268 29.5199 19.3773 30.0407C20.3362 30.206 22.0061 30.1978 22.9816 30.0324C27.0406 29.338 30.3639 26.2545 31.3807 22.2451C32.1743 19.1203 31.5378 15.9127 29.6116 13.3252C28.1153 11.3247 25.8915 9.89452 23.395 9.32411C22.7088 9.16704 20.5346 9.05131 19.9642 9.13397ZM23.0726 11.9695C25.7923 12.6804 27.8921 14.6727 28.7188 17.3264C29.8513 20.972 28.1401 24.9814 24.7176 26.6927C23.5107 27.2961 22.5435 27.5193 21.1629 27.5193C19.7824 27.5193 18.8152 27.2961 17.6082 26.6927C15.5415 25.6593 14.0287 23.7414 13.4583 21.435C13.2103 20.4016 13.2103 18.8392 13.4583 17.8141C14.2105 14.7554 16.6658 12.4407 19.7824 11.8455C20.609 11.6884 22.2541 11.7463 23.0726 11.9695Z" fill="#7C7C7C"/>
<path d="M19.9643 14.1767C17.5091 14.7141 15.6243 16.9709 15.5912 19.4179C15.5829 20.1205 15.7069 20.4182 16.1451 20.7158C16.5584 21.0051 17.0048 21.0299 17.4347 20.8067C17.9638 20.5339 18.0878 20.3107 18.22 19.4592C18.344 18.5995 18.5507 18.1448 19.0633 17.5992C19.5262 17.1032 20.2123 16.789 21.039 16.6981C21.5185 16.6402 21.7252 16.5741 21.9566 16.4005C22.6841 15.8466 22.6428 14.8298 21.8822 14.2594C21.5846 14.0362 20.7497 14.0031 19.9643 14.1767Z" fill="#7C7C7C"/>
<path d="M33.8112 10.3409C32.9927 10.8865 32.9845 12.0025 33.7946 12.5564C34.0674 12.7466 34.1749 12.7631 35.2496 12.7879C36.3325 12.8127 36.44 12.8044 36.7789 12.6226C37.2584 12.3745 37.4651 12.0852 37.5147 11.5809C37.5395 11.2585 37.5147 11.1015 37.3741 10.8452C37.0269 10.2417 36.9112 10.2004 35.4232 10.1756C34.1501 10.1508 34.084 10.159 33.8112 10.3409Z" fill="#7C7C7C"/>
</svg>
