<svg width="38" height="37" viewBox="0 0 38 37" fill="none" xmlns="http://www.w3.org/2000/svg">
<path d="M3.00291 0.140608C1.60583 0.512613 0.514608 1.62863 0.142602 3.04226C-0.0475341 3.7532 -0.0475341 28.008 0.142602 28.7189C0.522875 30.1904 1.73809 31.3643 3.17652 31.6619C3.48239 31.728 6.18563 31.7528 11.9807 31.7363C20.2805 31.7115 20.3467 31.7115 20.5699 31.5379C21.008 31.2155 21.1403 30.951 21.1403 30.4302C21.1403 29.9093 21.008 29.6448 20.5699 29.3224C20.3467 29.1488 20.264 29.1488 11.9228 29.1075C3.58159 29.0661 3.49892 29.0661 3.27572 28.8925C3.15172 28.8016 2.96985 28.6197 2.87891 28.4957C2.70531 28.2725 2.70531 28.2643 2.70531 15.8806C2.70531 3.49693 2.70531 3.48866 2.87891 3.26546C2.96985 3.14146 3.15172 2.95959 3.27572 2.86865C3.49892 2.69505 3.50719 2.69505 15.8909 2.69505C28.2745 2.69505 28.2828 2.69505 28.506 2.86865C28.63 2.95959 28.8119 3.14146 28.9028 3.26546C29.0764 3.48866 29.0764 3.57133 29.1177 11.9125C29.1591 20.2537 29.1591 20.3364 29.3327 20.5596C29.6551 20.9977 29.9196 21.13 30.4404 21.13C30.9612 21.13 31.2258 20.9977 31.5482 20.5596C31.7218 20.3364 31.7218 20.2703 31.7466 11.9704C31.7631 6.17537 31.7383 3.47213 31.6722 3.16626C31.3746 1.72783 30.2007 0.512613 28.7292 0.132341C28.0265 -0.0495281 3.68079 -0.0412617 3.00291 0.140608Z" fill="#7C7C7C"/>
<path d="M11.1458 5.38175C10.625 5.51402 9.88096 5.96043 9.51722 6.34896C9.33535 6.54737 9.06254 6.96071 8.92201 7.26658C8.68227 7.77085 8.65747 7.89486 8.65747 8.61407C8.65747 9.35808 8.674 9.43248 8.96334 10.0277C9.33535 10.78 9.81482 11.2429 10.5836 11.6066C11.0879 11.8464 11.2119 11.8712 11.9229 11.8712C12.6338 11.8712 12.7578 11.8464 13.2621 11.6066C14.0309 11.2429 14.5104 10.78 14.8824 10.0277C15.1717 9.43248 15.1882 9.35808 15.1882 8.6058C15.1882 7.85352 15.1717 7.77912 14.8824 7.18391C14.3202 6.05963 13.3282 5.39002 12.1047 5.33215C11.7575 5.31562 11.3276 5.34042 11.1458 5.38175Z" fill="#7C7C7C"/>
<path d="M19.3629 12.0035C19.2471 12.0448 17.5277 13.7064 15.5436 15.6987L11.9228 19.3113L10.2529 17.6414C8.83098 16.2278 8.52511 15.9715 8.26884 15.9219C7.6075 15.7979 7.40909 15.9054 6.31788 16.9801L5.30933 17.9804V22.2212V26.4621H15.8908H26.4723V22.2212V17.9886L23.5211 15.0374C21.8925 13.4171 20.4541 12.0448 20.3301 11.9952C20.0408 11.896 19.644 11.896 19.3629 12.0035Z" fill="#7C7C7C"/>
<path d="M29.9032 23.9325C29.5973 24.073 29.3245 24.3623 29.2088 24.6682C29.1509 24.8087 29.1178 25.7181 29.1178 26.9994V29.0992L26.8941 29.124C24.7943 29.1488 24.6538 29.1571 24.4388 29.3224C24.0007 29.6448 23.8684 29.9093 23.8684 30.4302C23.8684 30.951 24.0007 31.2155 24.4388 31.5379C24.6538 31.7032 24.7943 31.7115 26.8858 31.7363L29.1096 31.7611L29.1344 33.9849C29.1592 36.0764 29.1674 36.2169 29.3328 36.4318C29.6552 36.87 29.9197 37.0023 30.4405 37.0023C30.9613 37.0023 31.2259 36.87 31.5483 36.4318C31.7136 36.2169 31.7219 36.0764 31.7467 33.9849L31.7715 31.7611L33.9952 31.7363C36.0867 31.7115 36.2273 31.7032 36.4422 31.5379C36.8803 31.2155 37.0126 30.951 37.0126 30.4302C37.0126 29.9093 36.8803 29.6448 36.4422 29.3224C36.2273 29.1571 36.0867 29.1488 33.9952 29.124L31.7715 29.0992L31.7467 26.8754C31.7219 24.7839 31.7136 24.6434 31.5483 24.4285C31.4573 24.3045 31.2837 24.1226 31.168 24.0399C30.8869 23.8332 30.2338 23.7754 29.9032 23.9325Z" fill="#7C7C7C"/>
</svg>
